<svg id="Layer_1" data-name="Layer 1" xmlns="http://www.w3.org/2000/svg" viewBox="0 0 263.67 116.58"><defs><style>.cls-1,.cls-10,.cls-11,.cls-12,.cls-2,.cls-3,.cls-30,.cls-33{fill:none;stroke-linecap:round;}.cls-1{stroke:#54b04a;}.cls-1,.cls-10,.cls-11,.cls-12,.cls-2,.cls-24,.cls-26,.cls-3,.cls-30,.cls-33,.cls-4{stroke-miterlimit:10;}.cls-1,.cls-10,.cls-11,.cls-12,.cls-2,.cls-3{stroke-width:3px;stroke-dasharray:4 6;}.cls-2{stroke:#67228c;}.cls-3{stroke:#de73ea;}.cls-4{fill:#f0efef;}.cls-24,.cls-26,.cls-4{stroke:#515251;stroke-width:0.1px;}.cls-13,.cls-5,.cls-8{font-size:6.25px;fill:#231f20;}.cls-13,.cls-5{font-family:Roboto-Regular, Roboto;}.cls-6{letter-spacing:-0.01em;}.cls-7{letter-spacing:0em;}.cls-8{isolation:isolate;font-family:Roboto-Bold, Roboto;font-weight:700;}.cls-9{letter-spacing:-0.02em;}.cls-10{stroke:#009fd0;}.cls-11{stroke:#ef7d19;}.cls-12{stroke:#646464;}.cls-13{letter-spacing:-0.04em;}.cls-14{letter-spacing:-0.02em;}.cls-15{letter-spacing:0em;}.cls-16{letter-spacing:-0.01em;}.cls-17{letter-spacing:-0.01em;}.cls-18{letter-spacing:-0.01em;}.cls-19{letter-spacing:-0.01em;}.cls-20{letter-spacing:-0.01em;}.cls-21{letter-spacing:-0.01em;}.cls-22{letter-spacing:0em;}.cls-23{letter-spacing:-0.01em;}.cls-24{fill:#a7dca3;}.cls-25{letter-spacing:-0.01em;}.cls-26{fill:#bbdfe2;}.cls-27{letter-spacing:-0.02em;}.cls-28{fill:#999898;}.cls-29{letter-spacing:0.01em;}.cls-30{stroke:#192986;}.cls-31{letter-spacing:0.01em;}.cls-32{letter-spacing:-0.01em;}.cls-33{stroke:#000;stroke-width:5px;opacity:0.3;}</style></defs><title>Interactive_map_legend5</title><line class="cls-1" x1="8.35" y1="23.79" x2="44.71" y2="23.79"/><line class="cls-2" x1="8.35" y1="34.72" x2="44.71" y2="34.72"/><line class="cls-3" x1="8.35" y1="47.6" x2="44.71" y2="47.6"/><rect class="cls-4" x="182.45" y="19.49" width="15.8" height="9.68"/><text class="cls-5" transform="translate(207.51 26.54)">City A<tspan class="cls-6" x="16.21" y="0">r</tspan><tspan class="cls-7" x="18.26" y="0">eas</tspan></text><text class="cls-8" transform="translate(7 14.94)">Recommended <tspan class="cls-9" x="43.84" y="0">F</tspan><tspan class="cls-7" x="47.16" y="0">acilities</tspan></text><line class="cls-10" x1="8.35" y1="59.79" x2="44.71" y2="59.79"/><line class="cls-11" x1="8.35" y1="71.72" x2="44.71" y2="71.72"/><line class="cls-12" x1="8.35" y1="83.6" x2="44.71" y2="83.6"/><text class="cls-13" transform="translate(54.26 25.79)">T<tspan class="cls-14" x="3.5" y="0">r</tspan><tspan class="cls-15" x="5.49" y="0">ail</tspan></text><text class="cls-5" transform="translate(54.26 36.79)">Sepa<tspan class="cls-14" x="13.93" y="0">r</tspan><tspan class="cls-15" x="15.92" y="0">ated Bi</tspan><tspan class="cls-16" x="35.15" y="0">k</tspan><tspan x="38.26" y="0">e Lane/Sidepath</tspan></text><text class="cls-5" transform="translate(54.26 49.79)">Buf<tspan class="cls-17" x="9.51" y="0">f</tspan><tspan class="cls-7" x="11.6" y="0">e</tspan><tspan class="cls-6" x="14.91" y="0">r</tspan><tspan class="cls-7" x="16.97" y="0">ed Bi</tspan><tspan class="cls-16" x="30.76" y="0">k</tspan><tspan class="cls-7" x="33.87" y="0">e Lane</tspan></text><text class="cls-5" transform="translate(54.26 61.79)">Bi<tspan class="cls-18" x="5.41" y="0">k</tspan><tspan x="8.51" y="0">e Lane or </tspan><tspan class="cls-19" x="35.67" y="0">P</tspan><tspan class="cls-20" x="39.58" y="0">a</tspan><tspan class="cls-21" x="42.93" y="0">v</tspan><tspan class="cls-22" x="45.92" y="0">ed Shoulder</tspan></text><text class="cls-5" transform="translate(54.26 73.79)">Slow St<tspan class="cls-23" x="20.78" y="0">r</tspan><tspan x="22.84" y="0">eet</tspan></text><text class="cls-5" transform="translate(54.26 85.79)">Sidewalk</text><rect class="cls-24" x="182.45" y="63.49" width="15.8" height="9.68"/><text class="cls-5" transform="translate(207.51 70.54)"><tspan class="cls-25">P</tspan><tspan x="3.91" y="0">arks</tspan></text><rect class="cls-26" x="182.45" y="77.49" width="15.8" height="9.68"/><text class="cls-5" transform="translate(207.51 84.54)"><tspan class="cls-27">W</tspan><tspan x="5.44" y="0">ater</tspan></text><text class="cls-8" transform="translate(182 14.94)">Boundaries</text><rect class="cls-28" x="182.45" y="33.49" width="15.8" height="9.68"/><text class="cls-5" transform="translate(207.51 40.54)">MPO Bounda<tspan class="cls-29" x="36.52" y="0">r</tspan><tspan x="38.69" y="0">y</tspan></text><text class="cls-8" transform="translate(182 57.94)">Land Uses</text><line class="cls-30" x1="7.35" y1="94.6" x2="43.71" y2="94.6"/><text class="cls-5" transform="translate(54.26 96.79)">P<tspan class="cls-23" x="3.94" y="0">r</tspan><tspan x="6" y="0">elimina</tspan><tspan class="cls-31" x="26.19" y="0">r</tspan><tspan x="28.36" y="0">y Bi</tspan><tspan class="cls-32" x="38.27" y="0">k</tspan><tspan class="cls-22" x="41.38" y="0">e Stripe</tspan></text><line class="cls-33" x1="7.35" y1="105.6" x2="43.71" y2="105.6"/><text class="cls-5" transform="translate(54.26 107.79)">Regional Connection</text></svg>