<svg id="Layer_1" data-name="Layer 1" xmlns="http://www.w3.org/2000/svg" viewBox="0 0 232.41 103.2"><defs><style>.cls-1{fill:#f0efef;}.cls-1,.cls-12,.cls-13{stroke:#515251;stroke-width:0.1px;}.cls-1,.cls-12,.cls-13,.cls-15,.cls-16,.cls-18,.cls-19,.cls-4,.cls-5,.cls-6{stroke-miterlimit:10;}.cls-17,.cls-2,.cls-3,.cls-7{font-size:6.25px;fill:#231f20;}.cls-10,.cls-2{font-family:ArialMT, Arial;}.cls-3{isolation:isolate;}.cls-3,.cls-7{font-family:Arial-BoldMT, Arial;font-weight:700;}.cls-16,.cls-18,.cls-19,.cls-4,.cls-5,.cls-6{fill:none;stroke-linecap:round;}.cls-4,.cls-5{stroke:#7b9622;}.cls-16,.cls-18,.cls-19,.cls-4,.cls-5{stroke-width:3px;}.cls-16,.cls-19,.cls-5{stroke-dasharray:4 6;}.cls-6{stroke:#646464;stroke-width:6px;opacity:0.4;}.cls-8{letter-spacing:-0.06em;}.cls-9{letter-spacing:0em;}.cls-10,.cls-11{font-weight:400;}.cls-11{font-family:Roboto-Regular, Roboto;}.cls-12{fill:#a7dca3;}.cls-13{fill:#bbdfe2;}.cls-14{letter-spacing:-0.04em;}.cls-15{fill:#fff;stroke:#848484;stroke-width:0.25px;}.cls-16{stroke:#fdc34e;}.cls-17{font-family:Arial-ItalicMT, Arial;font-style:italic;}.cls-18,.cls-19{stroke:#b3006e;}</style></defs><title>Interactive_map_legend5</title><rect class="cls-1" x="166" y="21.24" width="12.25" height="9.68"/><text class="cls-2" transform="translate(181.51 28.29)">County Boundary</text><text class="cls-3" transform="translate(3 10.69)">Recommended Network</text><line class="cls-4" x1="90.14" y1="25.86" x2="115.11" y2="25.86"/><line class="cls-5" x1="120.07" y1="25.81" x2="146.68" y2="25.81"/><line class="cls-6" x1="89.51" y1="92.81" x2="144.07" y2="92.81"/><text class="cls-7" transform="translate(3.26 27.54)"><tspan class="cls-8">T</tspan><tspan class="cls-9" x="3.47" y="0">rail</tspan><tspan class="cls-10" x="12.85" y="0"> </tspan><tspan class="cls-10"><tspan x="0" y="7.5">(path in own corridor)</tspan></tspan></text><text class="cls-7" transform="translate(3.26 47.54)">Sidepath<tspan class="cls-10" x="26.39" y="0"> </tspan><tspan class="cls-10"><tspan x="0" y="7.5">(path next to road or highway)</tspan></tspan></text><text class="cls-7" transform="translate(3.26 67.54)">On-Street Facility<tspan class="cls-11" x="51.75" y="0"> </tspan><tspan class="cls-10"><tspan x="0" y="7.5">(signed bike route, bike lane, or </tspan><tspan x="0" y="15">paved shoulder)</tspan></tspan></text><text class="cls-7" transform="translate(3.26 94.54)">Priority Corridor</text><rect class="cls-12" x="166" y="38.24" width="12.25" height="9.68"/><text class="cls-2" transform="translate(181.51 45.29)">Parks</text><rect class="cls-13" x="166" y="55.24" width="12.25" height="9.68"/><text class="cls-2" transform="translate(181.51 62.29)"><tspan class="cls-14">W</tspan><tspan x="5.67" y="0">ater</tspan></text><line class="cls-15" x1="4.25" y1="39.5" x2="146.16" y2="39.5"/><line class="cls-15" x1="4.25" y1="59.5" x2="146.16" y2="59.5"/><line class="cls-16" x1="120.07" y1="65.81" x2="146.68" y2="65.81"/><text class="cls-17" transform="translate(91.88 19.52)">Existing</text><text class="cls-17" transform="translate(118.88 19.52)">Proposed</text><line class="cls-18" x1="90.14" y1="45.86" x2="115.11" y2="45.86"/><line class="cls-19" x1="120.07" y1="45.81" x2="146.68" y2="45.81"/><line class="cls-15" x1="4.25" y1="86.5" x2="146.16" y2="86.5"/></svg>