<svg id="Layer_1" data-name="Layer 1" xmlns="http://www.w3.org/2000/svg" viewBox="0 0 263.67 90.33"><defs><style>.cls-1,.cls-10,.cls-11,.cls-2,.cls-28,.cls-3,.cls-30,.cls-9{fill:none;stroke-linecap:round;}.cls-1{stroke:#54b04a;}.cls-1,.cls-10,.cls-11,.cls-2,.cls-24,.cls-26,.cls-3,.cls-30,.cls-4,.cls-9{stroke-miterlimit:10;}.cls-1,.cls-10,.cls-11,.cls-2,.cls-3,.cls-9{stroke-width:3px;stroke-dasharray:4 6;}.cls-2{stroke:#b4006e;}.cls-3{stroke:#82a;}.cls-4{fill:#f0efef;}.cls-24,.cls-26,.cls-4{stroke:#515251;stroke-width:0.1px;}.cls-12,.cls-5,.cls-6{font-size:6.25px;fill:#231f20;}.cls-12,.cls-5{font-family:Roboto-Regular, Roboto;}.cls-6{isolation:isolate;font-family:Roboto-Bold, Roboto;font-weight:700;}.cls-7{letter-spacing:-0.02em;}.cls-8{letter-spacing:0em;}.cls-9{stroke:#009fd0;}.cls-10{stroke:#ef7d19;}.cls-11{stroke:#646464;}.cls-12{letter-spacing:-0.04em;}.cls-13{letter-spacing:-0.02em;}.cls-14{letter-spacing:0em;}.cls-15{letter-spacing:-0.01em;}.cls-16{letter-spacing:-0.01em;}.cls-17{letter-spacing:-0.01em;}.cls-18{letter-spacing:-0.01em;}.cls-19{letter-spacing:-0.01em;}.cls-20{letter-spacing:-0.01em;}.cls-21{letter-spacing:-0.01em;}.cls-22{letter-spacing:0em;}.cls-23{letter-spacing:-0.01em;}.cls-24{fill:#a7dca3;}.cls-25{letter-spacing:-0.01em;}.cls-26{fill:#bbdfe2;}.cls-27{letter-spacing:-0.02em;}.cls-28{stroke:#6d6d6d;stroke-linejoin:round;stroke-dasharray:2 3;}.cls-29{letter-spacing:0.01em;}.cls-30{stroke:#192986;}.cls-31{letter-spacing:0.01em;}.cls-32{letter-spacing:-0.01em;}</style></defs><title>Interactive_map_legend</title><line class="cls-1" x1="8.35" y1="16.54" x2="44.71" y2="16.54"/><line class="cls-2" x1="8.35" y1="27.47" x2="44.71" y2="27.47"/><line class="cls-3" x1="8.35" y1="39.1" x2="44.71" y2="39.1"/><rect class="cls-4" x="182.45" y="12.24" width="15.8" height="9.68"/><text class="cls-5" transform="translate(207.51 19.29)">City Boundaries</text><text class="cls-6" transform="translate(7 7.69)">Recommended <tspan class="cls-7" x="43.84" y="0">F</tspan><tspan class="cls-8" x="47.16" y="0">acilities</tspan></text><line class="cls-9" x1="8.35" y1="50.54" x2="44.71" y2="50.54"/><line class="cls-10" x1="8.35" y1="62.47" x2="44.71" y2="62.47"/><line class="cls-11" x1="8.35" y1="74.1" x2="44.71" y2="74.1"/><text class="cls-12" transform="translate(54.26 18.54)">T<tspan class="cls-13" x="3.5" y="0">r</tspan><tspan class="cls-14" x="5.49" y="0">ail</tspan></text><text class="cls-5" transform="translate(54.26 29.54)">Sepa<tspan class="cls-13" x="13.93" y="0">r</tspan><tspan class="cls-14" x="15.92" y="0">ated Bi</tspan><tspan class="cls-15" x="35.15" y="0">k</tspan><tspan x="38.26" y="0">e Lane/Sidepath</tspan></text><text class="cls-5" transform="translate(54.26 41.54)">Buf<tspan class="cls-16" x="9.51" y="0">f</tspan><tspan class="cls-8" x="11.6" y="0">e</tspan><tspan class="cls-17" x="14.91" y="0">r</tspan><tspan class="cls-8" x="16.97" y="0">ed Bi</tspan><tspan class="cls-15" x="30.76" y="0">k</tspan><tspan class="cls-8" x="33.87" y="0">e Lane</tspan></text><text class="cls-5" transform="translate(54.26 52.54)">Bi<tspan class="cls-18" x="5.41" y="0">k</tspan><tspan x="8.51" y="0">e Lane or </tspan><tspan class="cls-19" x="35.67" y="0">P</tspan><tspan class="cls-20" x="39.58" y="0">a</tspan><tspan class="cls-21" x="42.93" y="0">v</tspan><tspan class="cls-22" x="45.92" y="0">ed Shoulder</tspan></text><text class="cls-5" transform="translate(54.26 64.54)">Slow St<tspan class="cls-23" x="20.78" y="0">r</tspan><tspan x="22.84" y="0">eet</tspan></text><text class="cls-5" transform="translate(54.26 75.54)">Sidewalk</text><rect class="cls-24" x="182.45" y="56.24" width="15.8" height="9.68"/><text class="cls-5" transform="translate(207.51 63.29)"><tspan class="cls-25">P</tspan><tspan x="3.91" y="0">arks</tspan></text><rect class="cls-26" x="182.45" y="70.24" width="15.8" height="9.68"/><text class="cls-5" transform="translate(207.51 77.29)"><tspan class="cls-27">W</tspan><tspan x="5.44" y="0">ater</tspan></text><text class="cls-6" transform="translate(182 7.69)">Boundaries</text><rect class="cls-28" x="182.45" y="26.24" width="15.8" height="9.68"/><text class="cls-5" transform="translate(207.51 33.29)">MPO Bounda<tspan class="cls-29" x="36.52" y="0">r</tspan><tspan x="38.69" y="0">y</tspan></text><text class="cls-6" transform="translate(182 50.69)">Land Uses</text><line class="cls-30" x1="7.35" y1="85.1" x2="43.71" y2="85.1"/><text class="cls-5" transform="translate(54.26 86.54)">P<tspan class="cls-23" x="3.94" y="0">r</tspan><tspan x="6" y="0">elimina</tspan><tspan class="cls-31" x="26.19" y="0">r</tspan><tspan x="28.36" y="0">y Bi</tspan><tspan class="cls-32" x="38.27" y="0">k</tspan><tspan class="cls-22" x="41.38" y="0">e Stripe</tspan></text></svg>