<svg id="Layer_1" data-name="Layer 1" xmlns="http://www.w3.org/2000/svg" viewBox="0 0 232.41 103.2"><defs><style>.cls-1{fill:#f0efef;}.cls-1,.cls-21,.cls-23{stroke:#515251;stroke-width:0.1px;}.cls-1,.cls-21,.cls-23,.cls-25,.cls-26,.cls-28,.cls-29,.cls-5,.cls-6,.cls-7{stroke-miterlimit:10;}.cls-2,.cls-27,.cls-4,.cls-8{font-size:6.25px;fill:#231f20;}.cls-11,.cls-12,.cls-2{font-family:Roboto-Regular, Roboto;}.cls-3{letter-spacing:0.01em;}.cls-4{isolation:isolate;}.cls-4,.cls-8{font-family:Roboto-Bold, Roboto;font-weight:700;}.cls-26,.cls-28,.cls-29,.cls-5,.cls-6,.cls-7{fill:none;stroke-linecap:round;stroke-width:3px;}.cls-5,.cls-6{stroke:#7b9622;}.cls-26,.cls-29,.cls-6{stroke-dasharray:4 6;}.cls-7{stroke:#646464;opacity:0.4;}.cls-9{letter-spacing:-0.03em;}.cls-10{letter-spacing:-0.01em;}.cls-11,.cls-12{font-weight:400;}.cls-11{letter-spacing:0em;}.cls-13{letter-spacing:-0.01em;}.cls-14{letter-spacing:-0.01em;}.cls-15{letter-spacing:-0.01em;}.cls-16{letter-spacing:-0.01em;}.cls-17{letter-spacing:-0.02em;}.cls-18{letter-spacing:0em;}.cls-19{letter-spacing:-0.01em;}.cls-20{letter-spacing:-0.01em;}.cls-21{fill:#a7dca3;}.cls-22{letter-spacing:-0.01em;}.cls-23{fill:#bbdfe2;}.cls-24{letter-spacing:-0.02em;}.cls-25{fill:#fff;stroke:#848484;stroke-width:0.25px;}.cls-26{stroke:#fdc34e;}.cls-27{font-family:Roboto-Italic, Roboto;font-style:italic;}.cls-28,.cls-29{stroke:#b3006e;}</style></defs><title>Interactive_map_legend4</title><rect class="cls-1" x="166" y="21.24" width="12.25" height="9.68"/><text class="cls-2" transform="translate(181.51 28.29)">County Bounda<tspan class="cls-3" x="42.35" y="0">r</tspan><tspan x="44.52" y="0">y</tspan></text><text class="cls-4" transform="translate(3 10.69)">Recommended Network</text><line class="cls-5" x1="90.14" y1="25.86" x2="115.11" y2="25.86"/><line class="cls-6" x1="120.07" y1="25.81" x2="146.68" y2="25.81"/><line class="cls-7" x1="89.51" y1="92.81" x2="144.07" y2="92.81"/><text class="cls-8" transform="translate(3.26 27.54)"><tspan class="cls-9">T</tspan><tspan class="cls-10" x="3.67" y="0">r</tspan><tspan x="5.86" y="0">ail</tspan><tspan class="cls-11" x="12.52" y="0"> </tspan><tspan class="cls-12"><tspan x="0" y="7.5">(path in own corridor)</tspan></tspan></text><text class="cls-8" transform="translate(3.26 47.54)">Sidepath<tspan class="cls-12" x="24.88" y="0"> </tspan><tspan class="cls-12"><tspan x="0" y="7.5">(path next </tspan><tspan class="cls-13" x="29.52" y="7.5">t</tspan><tspan x="31.5" y="7.5">o </tspan><tspan class="cls-14" x="36.61" y="7.5">r</tspan><tspan x="38.67" y="7.5">oad or highw</tspan><tspan class="cls-15" x="74.53" y="7.5">a</tspan><tspan x="77.89" y="7.5">y)</tspan></tspan></text><text class="cls-8" transform="translate(3.26 67.54)">On-St<tspan class="cls-16" x="16.19" y="0">r</tspan><tspan x="18.41" y="0">eet </tspan><tspan class="cls-17" x="28.84" y="0">F</tspan><tspan class="cls-18" x="32.16" y="0">acility</tspan><tspan class="cls-12" x="48.99" y="0"> </tspan><tspan class="cls-12"><tspan x="0" y="7.5">(signed bi</tspan><tspan class="cls-13" x="27.24" y="7.5">k</tspan><tspan x="30.34" y="7.5">e </tspan><tspan class="cls-13" x="35.2" y="7.5">r</tspan><tspan class="cls-18" x="37.26" y="7.5">oute, bi</tspan><tspan class="cls-19" x="57.42" y="7.5">k</tspan><tspan x="60.52" y="7.5">e lane, or </tspan><tspan x="0" y="15">p</tspan><tspan class="cls-15" x="3.51" y="15">a</tspan><tspan class="cls-20" x="6.86" y="15">v</tspan><tspan x="9.85" y="15">ed shoulder)</tspan></tspan></text><text class="cls-8" transform="translate(3.26 94.54)">Priority Corridor</text><rect class="cls-21" x="166" y="38.24" width="12.25" height="9.68"/><text class="cls-2" transform="translate(181.51 45.29)"><tspan class="cls-22">P</tspan><tspan x="3.91" y="0">arks</tspan></text><rect class="cls-23" x="166" y="55.24" width="12.25" height="9.68"/><text class="cls-2" transform="translate(181.51 62.29)"><tspan class="cls-24">W</tspan><tspan x="5.44" y="0">ater</tspan></text><line class="cls-25" x1="4.25" y1="39.5" x2="146.16" y2="39.5"/><line class="cls-25" x1="4.25" y1="59.5" x2="146.16" y2="59.5"/><line class="cls-26" x1="120.07" y1="65.81" x2="146.68" y2="65.81"/><text class="cls-27" transform="translate(91.88 19.52)">Existing</text><text class="cls-27" transform="translate(118.88 19.52)">P<tspan class="cls-13" x="3.85" y="0">r</tspan><tspan x="5.87" y="0">oposed</tspan></text><line class="cls-28" x1="90.14" y1="45.86" x2="115.11" y2="45.86"/><line class="cls-29" x1="120.07" y1="45.81" x2="146.68" y2="45.81"/><line class="cls-25" x1="4.25" y1="86.5" x2="146.16" y2="86.5"/></svg>