<?xml version="1.0" encoding="utf-8"?>
<!-- Generator: Adobe Illustrator 22.0.1, SVG Export Plug-In . SVG Version: 6.00 Build 0)  -->
<svg version="1.1" id="Layer_1" xmlns="http://www.w3.org/2000/svg" xmlns:xlink="http://www.w3.org/1999/xlink" x="0px" y="0px"
	 viewBox="0 0 242.9 62.6" style="enable-background:new 0 0 242.9 62.6;" xml:space="preserve">
<style type="text/css">
	.st0{fill:#231F20;}
	.st1{font-family:'Roboto-Bold';}
	.st2{font-size:6.25px;}
	.st3{fill:#F0EFEF;stroke:#515251;stroke-width:0.1;stroke-miterlimit:10;}
	.st4{fill:#C2C1C0;}
	.st5{font-family:'Roboto-Regular';}
	.st6{opacity:0.8;fill:#F4EDED;stroke:#F1D5D3;stroke-width:0.5;stroke-miterlimit:10;enable-background:new    ;}
	.st7{fill:#636464;}
</style>
<title>interactive_ped_map_legend_9-17_2</title>
<text transform="matrix(1 0 0 1 6.68 10.69)" class="st0 st1 st2">High-Demand A</text>
<text transform="matrix(1 0 0 1 51.26 10.69)" class="st0 st1 st2">r</text>
<text transform="matrix(1 0 0 1 53.48 10.69)" class="st0 st1 st2">ea Based</text>
<text transform="matrix(1 0 0 1 19.15 18.19)" class="st0 st1 st2">On Data </text>
<text transform="matrix(1 0 0 1 42.97 18.19)" class="st0 st1 st2">A</text>
<text transform="matrix(1 0 0 1 47.03 18.19)" class="st0 st1 st2">nalysis</text>
<text transform="matrix(1 0 0 1 160 10.69)" class="st0 st1 st2">Boundaries</text>
<rect x="160.4" y="16.2" class="st3" width="15.8" height="9.7"/>
<rect x="160.4" y="32" class="st4" width="15.8" height="9.7"/>
<text transform="matrix(1 0 0 1 185.57 23.13)" class="st0 st5 st2">City of </text>
<text transform="matrix(1 0 0 1 204.99 23.13)" class="st0 st5 st2">F</text>
<text transform="matrix(1 0 0 1 208.39 23.13)" class="st0 st5 st2">o</text>
<text transform="matrix(1 0 0 1 211.95 23.13)" class="st0 st5 st2">r</text>
<text transform="matrix(1 0 0 1 214.22 23.13)" class="st0 st5 st2">t </text>
<text transform="matrix(1 0 0 1 217.81 23.13)" class="st0 st5 st2">W</text>
<text transform="matrix(1 0 0 1 223.27 23.13)" class="st0 st5 st2">o</text>
<text transform="matrix(1 0 0 1 226.83 23.13)" class="st0 st5 st2">r</text>
<text transform="matrix(1 0 0 1 229.1 23.13)" class="st0 st5 st2">th</text>
<image style="overflow:visible;enable-background:new    ;" width="131" height="122" xlink:href="92CD6871.png"  transform="matrix(0.2 0 0 0.2 29.75 28.16)">
</image>
<text transform="matrix(1 0 0 1 97.37 10.69)" class="st0 st1 st2">Clickable Grid</text>
<rect x="103.8" y="25.5" class="st6" width="25.5" height="25.5"/>
<text transform="matrix(1 0 0 1 185.57 35.51)" class="st0 st5 st2">Ext</text>
<text transform="matrix(1 0 0 1 194.27 35.51)" class="st0 st5 st2">r</text>
<text transform="matrix(1 0 0 1 196.26 35.51)" class="st0 st5 st2">a-</text>
<text transform="matrix(1 0 0 1 201.39 35.51)" class="st0 st5 st2">T</text>
<text transform="matrix(1 0 0 1 204.82 35.51)" class="st0 st5 st2">erri</text>
<text transform="matrix(1 0 0 1 213.88 35.51)" class="st0 st5 st2">t</text>
<text transform="matrix(1 0 0 1 215.86 35.51)" class="st0 st5 st2">orial</text>
<text transform="matrix(1 0 0 1 185.57 43.01)" class="st0 st5 st2">Jurisdictions</text>
<rect x="160.4" y="49" class="st7" width="15.8" height="9.7"/>
<text transform="matrix(1 0 0 1 185.57 55.88)" class="st0 st5 st2">Outside Study A</text>
<text transform="matrix(1 0 0 1 229.81 55.88)" class="st0 st5 st2">r</text>
<text transform="matrix(1 0 0 1 231.87 55.88)" class="st0 st5 st2">ea</text>
</svg>
