<svg id="Layer_1" data-name="Layer 1" xmlns="http://www.w3.org/2000/svg" viewBox="0 0 226.92 78.08"><defs><style>.cls-1,.cls-10,.cls-2,.cls-3,.cls-8,.cls-9{fill:none;stroke-linecap:round;stroke-width:3px;}.cls-1,.cls-2{stroke:#7b9622;}.cls-1,.cls-10,.cls-16,.cls-18,.cls-2,.cls-3,.cls-4,.cls-8,.cls-9{stroke-miterlimit:10;}.cls-2,.cls-8,.cls-9{stroke-dasharray:4 6;}.cls-3,.cls-8{stroke:#b3006e;}.cls-4{fill:#f0efef;}.cls-16,.cls-18,.cls-4{stroke:#515251;stroke-width:0.1px;}.cls-5,.cls-7{font-size:6.25px;fill:#231f20;}.cls-5{font-family:Roboto-Regular, Roboto;}.cls-6{letter-spacing:0.01em;}.cls-7{isolation:isolate;font-family:Roboto-Bold, Roboto;font-weight:700;}.cls-9{stroke:#fdc34e;}.cls-10{stroke:#646464;opacity:0.4;}.cls-11{letter-spacing:-0.02em;}.cls-12{letter-spacing:-0.04em;}.cls-13{letter-spacing:-0.01em;}.cls-14{letter-spacing:-0.01em;}.cls-15{letter-spacing:-0.02em;}.cls-16{fill:#a7dca3;}.cls-17{letter-spacing:-0.01em;}.cls-18{fill:#bbdfe2;}.cls-19{letter-spacing:-0.02em;}</style></defs><title>Interactive_map_legend2</title><line class="cls-1" x1="4.35" y1="16.54" x2="40.71" y2="16.54"/><line class="cls-2" x1="5.35" y1="27.47" x2="41.71" y2="27.47"/><line class="cls-3" x1="4.35" y1="39.1" x2="40.71" y2="39.1"/><rect class="cls-4" x="151.45" y="12.24" width="15.8" height="9.68"/><text class="cls-5" transform="translate(176.51 19.29)">County Bounda<tspan class="cls-6" x="42.35" y="0">r</tspan><tspan x="44.52" y="0">y</tspan></text><text class="cls-7" transform="translate(3 7.69)">Recommended Network</text><line class="cls-8" x1="5.35" y1="50.54" x2="41.71" y2="50.54"/><line class="cls-9" x1="5.35" y1="62.47" x2="41.71" y2="62.47"/><line class="cls-10" x1="4.35" y1="74.1" x2="40.71" y2="74.1"/><text class="cls-5" transform="translate(50.26 18.54)">Existing<tspan class="cls-11" x="21.9" y="0"> </tspan><tspan class="cls-12" x="23.33" y="0">T</tspan><tspan class="cls-11" x="26.83" y="0">r</tspan><tspan x="28.82" y="0">ail</tspan></text><text class="cls-5" transform="translate(50.26 29.54)">P<tspan class="cls-13" x="3.94" y="0">r</tspan><tspan x="6" y="0">oposed</tspan><tspan class="cls-11" x="26.69" y="0"> </tspan><tspan class="cls-12" x="28.12" y="0">T</tspan><tspan class="cls-11" x="31.62" y="0">r</tspan><tspan x="33.61" y="0">ail</tspan></text><text class="cls-5" transform="translate(50.26 41.54)">Existing Sidepath</text><text class="cls-5" transform="translate(50.26 52.54)">P<tspan class="cls-13" x="3.94" y="0">r</tspan><tspan x="6" y="0">oposed Sidepath</tspan></text><text class="cls-5" transform="translate(50.26 64.54)">P<tspan class="cls-13" x="3.94" y="0">r</tspan><tspan x="6" y="0">oposed On-St</tspan><tspan class="cls-14" x="43.46" y="0">r</tspan><tspan x="45.51" y="0">eet </tspan><tspan class="cls-15" x="55.72" y="0">F</tspan><tspan x="59.08" y="0">acility</tspan></text><text class="cls-5" transform="translate(50.26 75.54)">Priority Corridor</text><rect class="cls-16" x="151.45" y="29.24" width="15.8" height="9.68"/><text class="cls-5" transform="translate(176.51 36.29)"><tspan class="cls-17">P</tspan><tspan x="3.91" y="0">arks</tspan></text><rect class="cls-18" x="151.45" y="46.24" width="15.8" height="9.68"/><text class="cls-5" transform="translate(176.51 53.29)"><tspan class="cls-19">W</tspan><tspan x="5.44" y="0">ater</tspan></text></svg>