<svg id="Layer_1" data-name="Layer 1" xmlns="http://www.w3.org/2000/svg" viewBox="0 0 246.25 72.25"><defs><style>.cls-1{isolation:isolate;}.cls-1,.cls-5{font-size:6.25px;}.cls-1,.cls-10,.cls-15,.cls-5{fill:#231f20;}.cls-1,.cls-10,.cls-15{font-family:ArialMT, Arial;}.cls-2{fill:#f0efef;stroke:#515251;stroke-width:0.1px;}.cls-12,.cls-13,.cls-14,.cls-18,.cls-2,.cls-7,.cls-8,.cls-9{stroke-miterlimit:10;}.cls-3{fill:#c2c1c0;}.cls-4{fill:#636464;}.cls-5{font-family:Roboto-Regular, Roboto Regular;}.cls-6{letter-spacing:0.01em;}.cls-12,.cls-13,.cls-14,.cls-18,.cls-7,.cls-8,.cls-9{fill:none;stroke-linecap:round;stroke-width:2px;}.cls-12,.cls-7{stroke:#54b048;}.cls-13,.cls-8{stroke:#f57f20;}.cls-14,.cls-9{stroke:#195b87;}.cls-10{font-size:6px;}.cls-11{letter-spacing:-0.04em;}.cls-12,.cls-13,.cls-14{stroke-dasharray:2 4;}.cls-15{font-size:5px;}.cls-16{letter-spacing:-0.02em;}.cls-17{letter-spacing:0em;}.cls-18{stroke:#d39fe9;}.cls-19{letter-spacing:-0.02em;}.cls-20{letter-spacing:-0.11em;}.cls-21{letter-spacing:-0.06em;}.cls-22{letter-spacing:-0.02em;}</style></defs><title>interactive_map_9-23_current-01</title><text class="cls-1" transform="translate(150.55 67.58) rotate(-90)">Boundaries</text><rect class="cls-2" x="155.45" y="32.24" width="15.8" height="9.68"/><rect class="cls-3" x="155.45" y="46" width="15.8" height="9.68"/><rect class="cls-4" x="155.45" y="60" width="15.8" height="9.68"/><text class="cls-5" transform="translate(181.04 22.36)"><tspan class="cls-6">S</tspan><tspan x="3.12" y="0">chools</tspan></text><path id="path4177" d="M162.5,15.33v2.3h0c-1.69.08-3,.62-3.07,1.28v2.83c0,.69,1.55,1.25,3.45,1.25s3.45-.56,3.45-1.25V18.92c-.06-.66-1.37-1.2-3.06-1.28v-.33l1.91-.83Zm-2.44,4.41a3.53,3.53,0,0,0,.91.35V22c-.58-.18-.91-.44-.91-.71Zm5.65,0v1.52c0,.27-.33.53-.91.71V20.09A4.34,4.34,0,0,0,165.71,19.75Zm-4,.49a8.65,8.65,0,0,0,1.15.08,8.53,8.53,0,0,0,1.15-.08v1.91a8.42,8.42,0,0,1-1.15.08,8.65,8.65,0,0,1-1.15-.08Z"/><line class="cls-7" x1="3.85" y1="29.29" x2="27" y2="29.29"/><line class="cls-8" x1="3.85" y1="47.22" x2="27" y2="47.22"/><line class="cls-9" x1="3.85" y1="64.85" x2="27" y2="64.85"/><text class="cls-10" transform="translate(67.24 30.87)"><tspan class="cls-11">T</tspan><tspan x="3.44" y="0">rail</tspan></text><text class="cls-10" transform="translate(4.9 20.2)">Existing</text><text class="cls-10" transform="translate(33.9 20.2)">Proposed</text><line class="cls-12" x1="36.85" y1="29.29" x2="60" y2="29.29"/><line class="cls-13" x1="36.85" y1="47.22" x2="60" y2="47.22"/><line class="cls-14" x1="36.85" y1="64.85" x2="60" y2="64.85"/><text class="cls-10" transform="translate(67.24 45.87)">Sidepath/<tspan x="0" y="7.2">Separated Bike Lane</tspan></text><text class="cls-10" transform="translate(67.24 66.87)">On-Street Facility</text><text class="cls-15" transform="translate(32.24 62.87)">(Facility<tspan class="cls-16" x="17.22" y="0"> </tspan><tspan class="cls-17" x="18.52" y="0">TBD)</tspan></text><text class="cls-10" transform="translate(180.9 8.87)"><tspan class="cls-11">T</tspan><tspan x="3.44" y="0">ransit Lines</tspan></text><line class="cls-18" x1="154.33" y1="6.85" x2="172.17" y2="6.85"/><text class="cls-10" transform="translate(180.57 38.87)">City of Fort <tspan class="cls-19" x="31" y="0">W</tspan><tspan x="36.56" y="0">orth</tspan></text><text class="cls-10" transform="translate(180.57 48.87)">Extra-<tspan class="cls-20" x="16" y="0">T</tspan><tspan x="19" y="0">erritorial</tspan><tspan x="0" y="7.2">Jurisdictions</tspan></text><text class="cls-10" transform="translate(180.57 66.87)">Outside Study<tspan class="cls-21" x="37.69" y="0"> </tspan><tspan x="39.02" y="0">Area</tspan></text><text class="cls-1" transform="translate(4 7.69)">Bicycle and<tspan class="cls-22" x="31.96" y="0"> </tspan><tspan class="cls-11" x="33.58" y="0">T</tspan><tspan x="37.17" y="0">rails Network</tspan></text><text class="cls-10" transform="translate(222.24 6.53)">(Zoom <tspan x="0" y="7.2">to view)</tspan></text></svg>