<svg id="Layer_1" data-name="Layer 1" xmlns="http://www.w3.org/2000/svg" viewBox="0 0 263.67 69.58"><defs><style>.cls-1,.cls-2,.cls-3,.cls-4,.cls-5,.cls-6{fill:none;stroke-linecap:round;stroke-width:3px;}.cls-1,.cls-4{stroke:#54b048;}.cls-1,.cls-15,.cls-2,.cls-3,.cls-4,.cls-5,.cls-6{stroke-miterlimit:10;}.cls-2,.cls-5{stroke:#f57f20;}.cls-3,.cls-6{stroke:#195b87;}.cls-4,.cls-5,.cls-6{stroke-dasharray:4.61 7.38;}.cls-10,.cls-11,.cls-12,.cls-13,.cls-14,.cls-17,.cls-18,.cls-19,.cls-7,.cls-8,.cls-9{isolation:isolate;}.cls-10,.cls-11,.cls-12,.cls-18,.cls-19,.cls-7,.cls-8,.cls-9{font-size:6.25px;}.cls-10,.cls-11,.cls-12,.cls-13,.cls-14,.cls-18,.cls-19,.cls-7,.cls-8,.cls-9{fill:#231f20;}.cls-10,.cls-13,.cls-14,.cls-18,.cls-19,.cls-7,.cls-8,.cls-9{font-family:Roboto-Regular, Roboto;}.cls-7{letter-spacing:-0.08em;}.cls-12,.cls-8{letter-spacing:-0.02em;}.cls-10{letter-spacing:-0.01em;}.cls-11,.cls-12{font-family:Roboto-Bold, Roboto;font-weight:700;}.cls-13,.cls-14{font-size:5.8px;}.cls-14{letter-spacing:-0.02em;}.cls-15{fill:#f0efef;stroke:#515251;stroke-width:0.1px;}.cls-16{fill:#c2c1c0;}.cls-18{letter-spacing:0.02em;}.cls-19{letter-spacing:-0.07em;}.cls-20{fill:#636464;}</style></defs><title>interactive_map_legend_9-17_2-01current88</title><line class="cls-1" x1="5.85" y1="21.29" x2="42.21" y2="21.29"/><line class="cls-2" x1="5.85" y1="40.22" x2="42.21" y2="40.22"/><line class="cls-3" x1="5.85" y1="59.85" x2="42.21" y2="59.85"/><line class="cls-1" x1="48.6" y1="21.29" x2="51.1" y2="21.29"/><line class="cls-4" x1="58.48" y1="21.29" x2="78.78" y2="21.29"/><line class="cls-1" x1="82.47" y1="21.29" x2="84.97" y2="21.29"/><line class="cls-2" x1="48.6" y1="40.22" x2="51.1" y2="40.22"/><line class="cls-5" x1="58.48" y1="40.22" x2="78.78" y2="40.22"/><line class="cls-2" x1="82.47" y1="40.22" x2="84.97" y2="40.22"/><line class="cls-3" x1="48.6" y1="59.85" x2="51.1" y2="59.85"/><line class="cls-6" x1="58.48" y1="59.85" x2="78.78" y2="59.85"/><line class="cls-3" x1="82.47" y1="59.85" x2="84.97" y2="59.85"/><text class="cls-7" transform="translate(95.26 23.43)">T</text><text class="cls-8" transform="translate(98.76 23.43)">r</text><text class="cls-9" transform="translate(100.76 23.43)">ail</text><text class="cls-9" transform="translate(95.26 38.89)">Sidepath /</text><text class="cls-9" transform="translate(95.26 46.39)">Sepa</text><text class="cls-8" transform="translate(109.19 46.39)">r</text><text class="cls-9" transform="translate(111.19 46.39)">ated Bi</text><text class="cls-10" transform="translate(130.43 46.39)">k</text><text class="cls-9" transform="translate(133.54 46.39)">e Lane</text><text class="cls-9" transform="translate(95.26 61.99)">On-St</text><text class="cls-10" transform="translate(110.49 61.99)">r</text><text class="cls-9" transform="translate(112.55 61.99)">eet</text><text class="cls-8" transform="translate(122.77 61.99)">F</text><text class="cls-9" transform="translate(126.12 61.99)">acility</text><text class="cls-11" transform="translate(14.33 10.69)">Existing</text><text class="cls-11" transform="translate(53.77 10.69)">P</text><text class="cls-12" transform="translate(57.8 10.69)">r</text><text class="cls-11" transform="translate(59.98 10.69)">oposed</text><text class="cls-11" transform="translate(181 10.69)">Boundaries</text><text class="cls-13" transform="translate(49.75 56.64)">(</text><text class="cls-14" transform="translate(51.73 56.64)">F</text><text class="cls-13" transform="translate(54.84 56.64)">acility</text><text class="cls-13" transform="translate(71.22 56.64)">TBD)</text><rect class="cls-15" x="181.45" y="19.24" width="15.8" height="9.68"/><rect class="cls-16" x="181.45" y="35" width="15.8" height="9.68"/><g class="cls-17"><text class="cls-9" transform="translate(206.57 26.13)">City of </text><text class="cls-10" transform="translate(225.99 26.13)">F</text><text class="cls-9" transform="translate(229.39 26.13)">o</text><text class="cls-18" transform="translate(232.95 26.13)">r</text><text class="cls-9" transform="translate(235.22 26.13)">t </text><text class="cls-8" transform="translate(238.81 26.13)">W</text><text class="cls-9" transform="translate(244.27 26.13)">o</text><text class="cls-18" transform="translate(247.83 26.13)">r</text><text class="cls-9" transform="translate(250.1 26.13)">th</text></g><g class="cls-17"><text class="cls-9" transform="translate(206.57 38.51)">Ext</text><text class="cls-8" transform="translate(215.27 38.51)">r</text><text class="cls-9" transform="translate(217.26 38.51)">a-</text><text class="cls-19" transform="translate(222.39 38.51)">T</text><text class="cls-9" transform="translate(225.82 38.51)">erri</text><text class="cls-10" transform="translate(234.88 38.51)">t</text><text class="cls-9" transform="translate(236.86 38.51)">orial</text><text class="cls-9" transform="translate(206.57 46.01)">Jurisdictions</text></g><rect class="cls-20" x="181.45" y="52" width="15.8" height="9.68"/><g class="cls-17"><text class="cls-9" transform="translate(206.57 58.88)">Outside Study A</text><text class="cls-10" transform="translate(250.81 58.88)">r</text><text class="cls-9" transform="translate(252.87 58.88)">ea</text></g></svg>