<svg id="Layer_1" data-name="Layer 1" xmlns="http://www.w3.org/2000/svg" viewBox="0 0 246.25 72.25"><defs><style>.cls-1,.cls-25{isolation:isolate;}.cls-1,.cls-25,.cls-5{font-size:6.25px;}.cls-1,.cls-18,.cls-25,.cls-5,.cls-9{fill:#231f20;}.cls-1,.cls-5,.cls-9{font-family:Roboto-Regular, Roboto;}.cls-2{fill:#f0efef;stroke:#515251;stroke-width:0.1px;}.cls-13,.cls-14,.cls-15,.cls-2,.cls-20,.cls-6,.cls-7,.cls-8{stroke-miterlimit:10;}.cls-3{fill:#c2c1c0;}.cls-4{fill:#636464;}.cls-13,.cls-14,.cls-15,.cls-20,.cls-6,.cls-7,.cls-8{fill:none;stroke-linecap:round;}.cls-13,.cls-6{stroke:#54b048;}.cls-13,.cls-14,.cls-15,.cls-6,.cls-7,.cls-8{stroke-width:2px;}.cls-14,.cls-7{stroke:#f57f20;}.cls-15,.cls-8{stroke:#195b87;}.cls-9{font-size:6px;}.cls-10{letter-spacing:-0.04em;}.cls-11{letter-spacing:-0.02em;}.cls-12{letter-spacing:-0.01em;}.cls-13,.cls-14,.cls-15{stroke-dasharray:2 4;}.cls-16{letter-spacing:-0.01em;}.cls-17{letter-spacing:-0.02em;}.cls-18{font-size:5px;font-family:Roboto-LightItalic, Roboto;font-style:italic;}.cls-19{letter-spacing:-0.02em;}.cls-20{stroke:#5d048c;stroke-width:0.75px;}.cls-21{letter-spacing:-0.01em;}.cls-22{letter-spacing:0.02em;}.cls-23{letter-spacing:-0.02em;}.cls-24{letter-spacing:-0.05em;}.cls-25{font-family:Roboto-Bold, Roboto;font-weight:700;}.cls-26{letter-spacing:-0.01em;}.cls-27{letter-spacing:-0.03em;}.cls-28{letter-spacing:-0.03em;}.cls-29{letter-spacing:-0.01em;}.cls-30{letter-spacing:0em;}</style></defs><title>interactive_map_9-21</title><text class="cls-1" transform="translate(162.55 67.58) rotate(-90)">Boundaries</text><rect class="cls-2" x="167.45" y="32.24" width="15.8" height="9.68"/><rect class="cls-3" x="167.45" y="46" width="15.8" height="9.68"/><rect class="cls-4" x="167.45" y="60" width="15.8" height="9.68"/><text class="cls-5" transform="translate(193.04 22.36)">Schools</text><path id="path4177" d="M174.5,15.33v2.3h0c-1.69.08-3,.62-3.07,1.28v2.83c0,.69,1.55,1.25,3.45,1.25s3.45-.56,3.45-1.25V18.92c-.06-.66-1.37-1.2-3.06-1.28v-.33l1.91-.83Zm-2.44,4.41a3.53,3.53,0,0,0,.91.35V22c-.58-.18-.91-.44-.91-.71Zm5.65,0v1.52c0,.27-.33.53-.91.71V20.09A4.34,4.34,0,0,0,177.71,19.75Zm-4,.49a8.65,8.65,0,0,0,1.15.08,8.53,8.53,0,0,0,1.15-.08v1.91a8.42,8.42,0,0,1-1.15.08,8.65,8.65,0,0,1-1.15-.08Z"/><line class="cls-6" x1="3.85" y1="29.29" x2="27" y2="29.29"/><line class="cls-7" x1="3.85" y1="47.22" x2="27" y2="47.22"/><line class="cls-8" x1="3.85" y1="64.85" x2="27" y2="64.85"/><text class="cls-9" transform="translate(67.24 30.87)"><tspan class="cls-10">T</tspan><tspan class="cls-11" x="3.36" y="0">r</tspan><tspan x="5.27" y="0">ail</tspan></text><text class="cls-9" transform="translate(4.9 20.2)">Existing</text><text class="cls-9" transform="translate(33.9 20.2)">P<tspan class="cls-12" x="3.79" y="0">r</tspan><tspan x="5.76" y="0">oposed</tspan></text><line class="cls-13" x1="36.85" y1="29.29" x2="60" y2="29.29"/><line class="cls-14" x1="36.85" y1="47.22" x2="60" y2="47.22"/><line class="cls-15" x1="36.85" y1="64.85" x2="60" y2="64.85"/><text class="cls-9" transform="translate(67.24 45.87)">Sidepath/<tspan x="0" y="7.2">Sepa</tspan><tspan class="cls-11" x="13.37" y="7.2">r</tspan><tspan x="15.28" y="7.2">ated Bi</tspan><tspan class="cls-12" x="33.74" y="7.2">k</tspan><tspan x="36.73" y="7.2">e Lane</tspan></text><text class="cls-9" transform="translate(67.24 66.87)">On-St<tspan class="cls-16" x="14.61" y="0">r</tspan><tspan x="16.58" y="0">eet </tspan><tspan class="cls-17" x="26.39" y="0">F</tspan><tspan x="29.6" y="0">acility</tspan></text><text class="cls-18" transform="translate(32.24 62.87)">(<tspan class="cls-19" x="1.57" y="0">F</tspan><tspan x="4.24" y="0">acility</tspan><tspan class="cls-11" x="16.63" y="0"> </tspan><tspan x="17.73" y="0">TBD)</tspan></text><text class="cls-9" transform="translate(192.9 8.87)"><tspan class="cls-10">T</tspan><tspan class="cls-11" x="3.36" y="0">r</tspan><tspan x="5.27" y="0">ansit Lines</tspan></text><line class="cls-20" x1="162.52" y1="6.85" x2="185.67" y2="6.85"/><text class="cls-9" transform="translate(192.57 38.87)">City of <tspan class="cls-21" x="18.64" y="0">F</tspan><tspan x="21.89" y="0">o</tspan><tspan class="cls-22" x="25.31" y="0">r</tspan><tspan x="27.49" y="0">t </tspan><tspan class="cls-23" x="30.93" y="0">W</tspan><tspan x="36.17" y="0">o</tspan><tspan class="cls-22" x="39.59" y="0">r</tspan><tspan x="41.77" y="0">th</tspan></text><text class="cls-9" transform="translate(192.57 48.87)">Ext<tspan class="cls-11" x="8.34" y="0">r</tspan><tspan x="10.26" y="0">a-</tspan><tspan class="cls-24" x="15.18" y="0">T</tspan><tspan x="18.47" y="0">erri</tspan><tspan class="cls-12" x="27.16" y="0">t</tspan><tspan x="29.06" y="0">orial</tspan><tspan x="0" y="7.2">Jurisdictions</tspan></text><text class="cls-9" transform="translate(192.57 66.87)">Outside Study A<tspan class="cls-16" x="42.44" y="0">r</tspan><tspan x="44.41" y="0">ea</tspan></text><text class="cls-25" transform="translate(4 7.69)">Bic<tspan class="cls-26" x="8.91" y="0">y</tspan><tspan x="12" y="0">cle and</tspan><tspan class="cls-27" x="32.23" y="0"> </tspan><tspan class="cls-28" x="33.6" y="0">T</tspan><tspan class="cls-29" x="37.27" y="0">r</tspan><tspan class="cls-30" x="39.46" y="0">ails Network</tspan></text></svg>