<svg id="Layer_1" data-name="Layer 1" xmlns="http://www.w3.org/2000/svg" viewBox="0 0 263.67 77.83"><defs><style>.cls-1,.cls-15,.cls-2,.cls-3,.cls-4,.cls-5,.cls-6{fill:none;stroke-miterlimit:10;}.cls-1,.cls-4{stroke:#54b048;}.cls-1,.cls-2,.cls-3,.cls-4,.cls-5,.cls-6{stroke-linecap:round;stroke-width:3px;}.cls-2,.cls-5{stroke:#f57f20;}.cls-3,.cls-6{stroke:#195b87;}.cls-4,.cls-5,.cls-6{stroke-dasharray:4.61 7.38;}.cls-13,.cls-7{font-size:6.25px;}.cls-13,.cls-20,.cls-7{fill:#231f20;}.cls-20,.cls-7{font-family:Roboto-Regular, Roboto;}.cls-8{letter-spacing:-0.04em;}.cls-9{letter-spacing:-0.02em;}.cls-10{letter-spacing:-0.01em;}.cls-11{letter-spacing:-0.01em;}.cls-12{letter-spacing:-0.02em;}.cls-13{font-family:Roboto-Bold, Roboto;font-weight:700;}.cls-14{letter-spacing:-0.02em;}.cls-15{stroke:#6d6d6d;stroke-width:0.5px;}.cls-16{fill:#b0b0b0;}.cls-17{letter-spacing:0.01em;}.cls-18{letter-spacing:0.01em;}.cls-19{letter-spacing:-0.12em;}.cls-20{font-size:4.17px;}.cls-21{letter-spacing:-0.02em;}.cls-22{letter-spacing:-0.02em;}.cls-23{letter-spacing:0em;}</style></defs><title>interactive_map_legend_9-13_current</title><line class="cls-1" x1="5.85" y1="21.29" x2="42.21" y2="21.29"/><line class="cls-2" x1="5.85" y1="44.22" x2="42.21" y2="44.22"/><line class="cls-3" x1="5.85" y1="67.85" x2="42.21" y2="67.85"/><line class="cls-1" x1="48.6" y1="21.29" x2="51.1" y2="21.29"/><line class="cls-4" x1="58.48" y1="21.29" x2="78.78" y2="21.29"/><line class="cls-1" x1="82.47" y1="21.29" x2="84.97" y2="21.29"/><line class="cls-2" x1="48.6" y1="44.22" x2="51.1" y2="44.22"/><line class="cls-5" x1="58.48" y1="44.22" x2="78.78" y2="44.22"/><line class="cls-2" x1="82.47" y1="44.22" x2="84.97" y2="44.22"/><line class="cls-3" x1="48.6" y1="67.85" x2="51.1" y2="67.85"/><line class="cls-6" x1="58.48" y1="67.85" x2="78.78" y2="67.85"/><line class="cls-3" x1="82.47" y1="67.85" x2="84.97" y2="67.85"/><text class="cls-7" transform="translate(95.26 23.43)"><tspan class="cls-8">T</tspan><tspan class="cls-9" x="3.5" y="0">r</tspan><tspan x="5.5" y="0">ail</tspan></text><text class="cls-7" transform="translate(95.26 42.89)">Sidepath /<tspan x="0" y="7.5">Sepa</tspan><tspan class="cls-9" x="13.93" y="7.5">r</tspan><tspan x="15.93" y="7.5">ated Bi</tspan><tspan class="cls-10" x="35.17" y="7.5">k</tspan><tspan x="38.28" y="7.5">e Lane</tspan></text><text class="cls-7" transform="translate(95.26 69.99)">On-St<tspan class="cls-11" x="15.23" y="0">r</tspan><tspan x="17.29" y="0">eet </tspan><tspan class="cls-12" x="27.51" y="0">F</tspan><tspan x="30.86" y="0">acility</tspan></text><text class="cls-13" transform="translate(14.33 10.69)">Existing</text><text class="cls-13" transform="translate(53.77 10.69)">P<tspan class="cls-14" x="4.03" y="0">r</tspan><tspan x="6.21" y="0">oposed</tspan></text><text class="cls-13" transform="translate(187 10.69)">Boundaries</text><rect class="cls-15" x="187.45" y="28.24" width="21.54" height="13.2"/><rect class="cls-16" x="187.45" y="47" width="21.54" height="13.2"/><text class="cls-7" transform="translate(217.57 36.63)">City Bounda<tspan class="cls-17" x="33.43" y="0">r</tspan><tspan x="35.6" y="0">y</tspan></text><text class="cls-7" transform="translate(217.57 54.7)"><tspan class="cls-18">E</tspan><tspan class="cls-19" x="3.62" y="0">T</tspan><tspan x="6.61" y="0">J Bounda</tspan><tspan class="cls-17" x="32.9" y="0">r</tspan><tspan x="35.07" y="0">y</tspan></text><text class="cls-20" transform="translate(53.8 63.42)">(<tspan class="cls-21" x="1.43" y="0">F</tspan><tspan x="3.66" y="0">acility</tspan><tspan class="cls-22" x="14.48" y="0"> </tspan><tspan class="cls-23" x="15.43" y="0">TBD)</tspan></text></svg>