<?xml version="1.0" encoding="utf-8"?>
<!-- Generator: Adobe Illustrator 22.0.1, SVG Export Plug-In . SVG Version: 6.00 Build 0)  -->
<svg version="1.1" id="Layer_1" xmlns="http://www.w3.org/2000/svg" xmlns:xlink="http://www.w3.org/1999/xlink" x="0px" y="0px"
	 viewBox="0 0 263.7 69.6" style="enable-background:new 0 0 263.7 69.6;" xml:space="preserve">
<style type="text/css">
	.st0{fill:none;stroke:#54B048;stroke-width:3;stroke-linecap:round;stroke-miterlimit:10;}
	.st1{fill:none;stroke:#F57F20;stroke-width:3;stroke-linecap:round;stroke-miterlimit:10;}
	.st2{fill:none;stroke:#195B87;stroke-width:3;stroke-linecap:round;stroke-miterlimit:10;}
	.st3{fill:none;stroke:#54B048;stroke-width:3;stroke-linecap:round;stroke-miterlimit:10;stroke-dasharray:4.61,7.38;}
	.st4{fill:none;stroke:#F57F20;stroke-width:3;stroke-linecap:round;stroke-miterlimit:10;stroke-dasharray:4.61,7.38;}
	.st5{fill:none;stroke:#195B87;stroke-width:3;stroke-linecap:round;stroke-miterlimit:10;stroke-dasharray:4.61,7.38;}
	.st6{fill:#231F20;}
	.st7{font-family:'Roboto-Regular';}
	.st8{font-size:6.25px;}
	.st9{font-family:'Roboto-Bold';}
	.st10{font-size:5.8px;}
	.st11{fill:#F0EFEF;stroke:#515251;stroke-width:0.1;stroke-miterlimit:10;}
	.st12{fill:#C2C1C0;}
	.st13{fill:#636464;}
</style>
<title>interactive_map_legend_9-17_2</title>
<line class="st0" x1="5.8" y1="21.3" x2="42.2" y2="21.3"/>
<line class="st1" x1="5.8" y1="40.2" x2="42.2" y2="40.2"/>
<line class="st2" x1="5.8" y1="59.8" x2="42.2" y2="59.8"/>
<line class="st0" x1="48.6" y1="21.3" x2="51.1" y2="21.3"/>
<line class="st3" x1="58.5" y1="21.3" x2="78.8" y2="21.3"/>
<line class="st0" x1="82.5" y1="21.3" x2="85" y2="21.3"/>
<line class="st1" x1="48.6" y1="40.2" x2="51.1" y2="40.2"/>
<line class="st4" x1="58.5" y1="40.2" x2="78.8" y2="40.2"/>
<line class="st1" x1="82.5" y1="40.2" x2="85" y2="40.2"/>
<line class="st2" x1="48.6" y1="59.8" x2="51.1" y2="59.8"/>
<line class="st5" x1="58.5" y1="59.8" x2="78.8" y2="59.8"/>
<line class="st2" x1="82.5" y1="59.8" x2="85" y2="59.8"/>
<g>
	<text transform="matrix(1 0 0 1 95.26 23.43)" class="st6 st7 st8">T</text>
	<text transform="matrix(1 0 0 1 98.76 23.43)" class="st6 st7 st8">r</text>
	<text transform="matrix(1 0 0 1 100.76 23.43)" class="st6 st7 st8">ail</text>
</g>
<g>
	<text transform="matrix(1 0 0 1 95.26 38.89)" class="st6 st7 st8">Sidepath /</text>
	<text transform="matrix(1 0 0 1 95.26 46.39)" class="st6 st7 st8">Sepa</text>
	<text transform="matrix(1 0 0 1 109.19 46.39)" class="st6 st7 st8">r</text>
	<text transform="matrix(1 0 0 1 111.19 46.39)" class="st6 st7 st8">ated Bi</text>
	<text transform="matrix(1 0 0 1 130.43 46.39)" class="st6 st7 st8">k</text>
	<text transform="matrix(1 0 0 1 133.54 46.39)" class="st6 st7 st8">e Lane</text>
</g>
<g>
	<text transform="matrix(1 0 0 1 95.26 61.99)" class="st6 st7 st8">On-St</text>
	<text transform="matrix(1 0 0 1 110.49 61.99)" class="st6 st7 st8">r</text>
	<text transform="matrix(1 0 0 1 112.55 61.99)" class="st6 st7 st8">eet</text>
	<text transform="matrix(1 0 0 1 122.77 61.99)" class="st6 st7 st8">F</text>
	<text transform="matrix(1 0 0 1 126.12 61.99)" class="st6 st7 st8">acility</text>
</g>
<text transform="matrix(1 0 0 1 14.33 10.69)" class="st6 st9 st8">Existing</text>
<g>
	<text transform="matrix(1 0 0 1 53.77 10.69)" class="st6 st9 st8">P</text>
	<text transform="matrix(1 0 0 1 57.8 10.69)" class="st6 st9 st8">r</text>
	<text transform="matrix(1 0 0 1 59.98 10.69)" class="st6 st9 st8">oposed</text>
</g>
<text transform="matrix(1 0 0 1 181 10.69)" class="st6 st9 st8">Boundaries</text>
<g>
	<text transform="matrix(1 0 0 1 49.75 56.64)" class="st6 st7 st10">(</text>
	<text transform="matrix(1 0 0 1 51.73 56.64)" class="st6 st7 st10">F</text>
	<text transform="matrix(1 0 0 1 54.84 56.64)" class="st6 st7 st10">acility</text>
	<text transform="matrix(1 0 0 1 71.22 56.64)" class="st6 st7 st10">TBD)</text>
</g>
<rect x="181.4" y="19.2" class="st11" width="15.8" height="9.7"/>
<rect x="181.4" y="35" class="st12" width="15.8" height="9.7"/>
<text transform="matrix(1 0 0 1 206.57 26.13)" class="st6 st7 st8">City of </text>
<text transform="matrix(1 0 0 1 225.99 26.13)" class="st6 st7 st8">F</text>
<text transform="matrix(1 0 0 1 229.39 26.13)" class="st6 st7 st8">o</text>
<text transform="matrix(1 0 0 1 232.95 26.13)" class="st6 st7 st8">r</text>
<text transform="matrix(1 0 0 1 235.22 26.13)" class="st6 st7 st8">t </text>
<text transform="matrix(1 0 0 1 238.81 26.13)" class="st6 st7 st8">W</text>
<text transform="matrix(1 0 0 1 244.27 26.13)" class="st6 st7 st8">o</text>
<text transform="matrix(1 0 0 1 247.83 26.13)" class="st6 st7 st8">r</text>
<text transform="matrix(1 0 0 1 250.1 26.13)" class="st6 st7 st8">th</text>
<text transform="matrix(1 0 0 1 206.57 38.51)" class="st6 st7 st8">Ext</text>
<text transform="matrix(1 0 0 1 215.27 38.51)" class="st6 st7 st8">r</text>
<text transform="matrix(1 0 0 1 217.26 38.51)" class="st6 st7 st8">a-</text>
<text transform="matrix(1 0 0 1 222.39 38.51)" class="st6 st7 st8">T</text>
<text transform="matrix(1 0 0 1 225.82 38.51)" class="st6 st7 st8">erri</text>
<text transform="matrix(1 0 0 1 234.88 38.51)" class="st6 st7 st8">t</text>
<text transform="matrix(1 0 0 1 236.86 38.51)" class="st6 st7 st8">orial</text>
<text transform="matrix(1 0 0 1 206.57 46.01)" class="st6 st7 st8">Jurisdictions</text>
<rect x="181.4" y="52" class="st13" width="15.8" height="9.7"/>
<text transform="matrix(1 0 0 1 206.57 58.88)" class="st6 st7 st8">Outside Study A</text>
<text transform="matrix(1 0 0 1 250.81 58.88)" class="st6 st7 st8">r</text>
<text transform="matrix(1 0 0 1 252.87 58.88)" class="st6 st7 st8">ea</text>
</svg>
