<svg id="Layer_1" data-name="Layer 1" xmlns="http://www.w3.org/2000/svg" viewBox="0 0 339 153"><defs><style>.cls-1,.cls-2,.cls-3,.cls-4,.cls-5,.cls-6{fill:none;stroke-linecap:round;stroke-miterlimit:10;stroke-width:6px;}.cls-1,.cls-4{stroke:#54b048;}.cls-2,.cls-5{stroke:#f57f20;}.cls-3,.cls-6{stroke:#195b87;}.cls-4,.cls-5,.cls-6{stroke-dasharray:8.14 12.21;}.cls-7{font-size:12px;font-family:Roboto-Regular, Roboto;}.cls-13,.cls-7{fill:#231f20;}.cls-8{letter-spacing:-0.04em;}.cls-9{letter-spacing:-0.02em;}.cls-10{letter-spacing:-0.01em;}.cls-11{letter-spacing:-0.01em;}.cls-12{letter-spacing:-0.02em;}.cls-13{font-size:11px;font-family:Roboto-Bold, Roboto;font-weight:700;}.cls-14{letter-spacing:-0.02em;}</style></defs><title>legend3-01</title><line class="cls-1" x1="9" y1="38" x2="90.29" y2="38"/><line class="cls-2" x1="9" y1="87" x2="90.29" y2="87"/><line class="cls-3" x1="9" y1="136" x2="90.29" y2="136"/><line class="cls-1" x1="105.04" y1="38" x2="109.04" y2="38"/><line class="cls-4" x1="121.26" y1="38" x2="176.23" y2="38"/><line class="cls-1" x1="182.33" y1="38" x2="186.33" y2="38"/><line class="cls-2" x1="105.04" y1="87" x2="109.04" y2="87"/><line class="cls-5" x1="121.26" y1="87" x2="176.23" y2="87"/><line class="cls-2" x1="182.33" y1="87" x2="186.33" y2="87"/><line class="cls-3" x1="105.04" y1="136" x2="109.04" y2="136"/><line class="cls-6" x1="121.26" y1="136" x2="176.23" y2="136"/><line class="cls-3" x1="182.33" y1="136" x2="186.33" y2="136"/><text class="cls-7" transform="translate(211.67 41.33)"><tspan class="cls-8">T</tspan><tspan class="cls-9" x="6.72" y="0">r</tspan><tspan x="10.55" y="0">ail</tspan></text><text class="cls-7" transform="translate(211.67 83.33)">Sidepath /<tspan x="0" y="14.4">Sepa</tspan><tspan class="cls-9" x="26.74" y="14.4">r</tspan><tspan x="30.56" y="14.4">ated Bi</tspan><tspan class="cls-10" x="67.49" y="14.4">k</tspan><tspan x="73.45" y="14.4">e Lane</tspan></text><text class="cls-7" transform="translate(211.67 131.33)">On-St<tspan class="cls-11" x="29.22" y="0">r</tspan><tspan x="33.17" y="0">eet</tspan><tspan x="0" y="14.4">(Existing / </tspan><tspan class="cls-12" x="57.04" y="14.4">F</tspan><tspan x="63.47" y="14.4">acility</tspan><tspan class="cls-9" x="94.62" y="14.4"> </tspan><tspan x="97.35" y="14.4">TBD)</tspan></text><text class="cls-13" transform="translate(30.62 14.25)">Existing</text><text class="cls-13" transform="translate(122.66 14.25)">P<tspan class="cls-14" x="7.1" y="0">r</tspan><tspan x="10.91" y="0">oposed</tspan></text></svg>