<svg id="Layer_1" data-name="Layer 1" xmlns="http://www.w3.org/2000/svg" viewBox="0 0 339 153"><title>legend2</title><line x1="9" y1="38" x2="90.29" y2="38" style="fill:none;stroke:#54b048;stroke-linecap:round;stroke-miterlimit:10;stroke-width:6px"/><line x1="9" y1="87" x2="90.29" y2="87" style="fill:none;stroke:#f57f20;stroke-linecap:round;stroke-miterlimit:10;stroke-width:6px"/><line x1="9" y1="136" x2="90.29" y2="136" style="fill:none;stroke:#195b87;stroke-linecap:round;stroke-miterlimit:10;stroke-width:6px"/><line x1="105.04" y1="38" x2="109.04" y2="38" style="fill:none;stroke:#54b048;stroke-linecap:round;stroke-miterlimit:10;stroke-width:6px"/><line x1="121.26" y1="38" x2="176.23" y2="38" style="fill:none;stroke:#54b048;stroke-linecap:round;stroke-miterlimit:10;stroke-width:6px;stroke-dasharray:8.143263816833496,12.214896202087402"/><line x1="182.33" y1="38" x2="186.33" y2="38" style="fill:none;stroke:#54b048;stroke-linecap:round;stroke-miterlimit:10;stroke-width:6px"/><line x1="105.04" y1="87" x2="109.04" y2="87" style="fill:none;stroke:#f57f20;stroke-linecap:round;stroke-miterlimit:10;stroke-width:6px"/><line x1="121.26" y1="87" x2="176.23" y2="87" style="fill:none;stroke:#f57f20;stroke-linecap:round;stroke-miterlimit:10;stroke-width:6px;stroke-dasharray:8.143263816833496,12.214896202087402"/><line x1="182.33" y1="87" x2="186.33" y2="87" style="fill:none;stroke:#f57f20;stroke-linecap:round;stroke-miterlimit:10;stroke-width:6px"/><line x1="105.04" y1="136" x2="109.04" y2="136" style="fill:none;stroke:#195b87;stroke-linecap:round;stroke-miterlimit:10;stroke-width:6px"/><line x1="121.26" y1="136" x2="176.23" y2="136" style="fill:none;stroke:#195b87;stroke-linecap:round;stroke-miterlimit:10;stroke-width:6px;stroke-dasharray:8.143263816833496,12.214896202087402"/><line x1="182.33" y1="136" x2="186.33" y2="136" style="fill:none;stroke:#195b87;stroke-linecap:round;stroke-miterlimit:10;stroke-width:6px"/><text transform="translate(211.67 41.33)" style="font-size:12px;fill:#231f20;font-family:Roboto-Regular, Roboto"><tspan style="letter-spacing:-0.03662109375em">T</tspan><tspan x="6.72" y="0" style="letter-spacing:-0.01953125em">r</tspan><tspan x="10.55" y="0">ail</tspan></text><text transform="translate(211.67 83.33)" style="font-size:12px;fill:#231f20;font-family:Roboto-Regular, Roboto">Sidepath /<tspan x="0" y="14.4">Sepa</tspan><tspan x="26.74" y="14.4" style="letter-spacing:-0.01953125em">r</tspan><tspan x="30.56" y="14.4">ated Bi</tspan><tspan x="67.49" y="14.4" style="letter-spacing:-0.009765625em">k</tspan><tspan x="73.45" y="14.4">e Lane</tspan></text><text transform="translate(211.67 131.33)" style="font-size:12px;fill:#231f20;font-family:Roboto-Regular, Roboto">On-St<tspan x="29.22" y="0" style="letter-spacing:-0.00927734375em">r</tspan><tspan x="33.17" y="0">eet</tspan><tspan x="0" y="14.4">(Existing / </tspan><tspan x="57.04" y="14.4" style="letter-spacing:-0.0166015625em">F</tspan><tspan x="63.47" y="14.4">acility</tspan><tspan x="94.62" y="14.4" style="letter-spacing:-0.01953125em"> </tspan><tspan x="97.35" y="14.4">TBD)</tspan></text><text transform="translate(30.62 14.25)" style="font-size:11px;fill:#231f20;font-family:Roboto-Bold, Roboto;font-weight:700">Existing</text><text transform="translate(122.66 14.25)" style="font-size:11px;fill:#231f20;font-family:Roboto-Bold, Roboto;font-weight:700">P<tspan x="7.1" y="0" style="letter-spacing:-0.017578125em">r</tspan><tspan x="10.91" y="0">oposed</tspan></text></svg>