<?xml version="1.0" encoding="utf-8"?>
<!-- Generator: Adobe Illustrator 16.0.0, SVG Export Plug-In . SVG Version: 6.00 Build 0)  -->
<!DOCTYPE svg PUBLIC "-//W3C//DTD SVG 1.1//EN" "http://www.w3.org/Graphics/SVG/1.1/DTD/svg11.dtd">
<svg version="1.1" id="Layer_1" xmlns="http://www.w3.org/2000/svg" xmlns:xlink="http://www.w3.org/1999/xlink" x="0px" y="0px"
	 width="268.499px" height="121.5px" viewBox="0 0 268.499 121.5" style="enable-background:new 0 0 268.499 121.5;"
	 xml:space="preserve">
<g>
	<rect x="107.463" y="12.227" style="fill:none;" width="172.95" height="100.699"/>
	<path style="fill:#231F20;" d="M111.06,19.25l0.193,0.674h0.035l0.193-0.674l2.203-6.41h1.248l-3.17,8.531h-0.99l-3.17-8.531h1.254
		L111.06,19.25z"/>
	<path style="fill:#231F20;" d="M117.148,13.408h-1.154V12.23h1.154V13.408z M117.148,21.371h-1.154v-6.34h1.154V21.371z"/>
	<path style="fill:#231F20;" d="M119.955,15.031l0.082,0.943c0.211-0.336,0.476-0.597,0.794-0.782s0.681-0.278,1.087-0.278
		c0.684,0,1.213,0.2,1.588,0.601s0.562,1.019,0.562,1.854v4.002h-1.154v-3.979c0-0.559-0.11-0.955-0.331-1.189
		s-0.558-0.352-1.011-0.352c-0.332,0-0.626,0.08-0.882,0.24s-0.46,0.379-0.612,0.656v4.623h-1.154v-6.34H119.955z"/>
	<path style="fill:#231F20;" d="M128.375,21.494c-0.883,0-1.585-0.294-2.106-0.882s-0.782-1.351-0.782-2.288v-0.258
		c0-0.902,0.269-1.653,0.806-2.253s1.173-0.899,1.907-0.899c0.855,0,1.502,0.258,1.939,0.773s0.656,1.203,0.656,2.062v0.721h-4.113
		l-0.018,0.029c0.012,0.607,0.166,1.107,0.463,1.499c0.297,0.392,0.713,0.587,1.248,0.587c0.391,0,0.733-0.056,1.028-0.167
		s0.55-0.265,0.765-0.46l0.451,0.751c-0.227,0.224-0.525,0.411-0.896,0.56S128.902,21.494,128.375,21.494z M128.199,15.822
		c-0.387,0-0.717,0.163-0.99,0.488c-0.273,0.325-0.441,0.733-0.504,1.223l0.012,0.029h2.924v-0.152c0-0.452-0.121-0.829-0.363-1.133
		S128.675,15.822,128.199,15.822z"/>
	<path style="fill:#231F20;" d="M141.066,13.748h-2.742v7.623h-1.154v-7.623h-2.736V12.84h6.633V13.748z"/>
	<path style="fill:#231F20;" d="M144.722,16.051l-0.592-0.035c-0.305,0-0.562,0.072-0.771,0.217s-0.37,0.348-0.483,0.609v4.529
		h-1.154v-6.34h1.031l0.111,0.926c0.18-0.328,0.401-0.584,0.665-0.768s0.567-0.275,0.911-0.275c0.086,0,0.168,0.007,0.246,0.021
		s0.143,0.028,0.193,0.044L144.722,16.051z"/>
	<path style="fill:#231F20;" d="M149.732,21.371c-0.039-0.191-0.069-0.36-0.091-0.507s-0.034-0.294-0.038-0.442
		c-0.215,0.305-0.495,0.56-0.841,0.765s-0.718,0.308-1.116,0.308c-0.66,0-1.163-0.169-1.509-0.507s-0.519-0.804-0.519-1.397
		c0-0.605,0.245-1.079,0.735-1.421s1.155-0.513,1.995-0.513h1.254v-0.627c0-0.371-0.113-0.665-0.34-0.882s-0.547-0.325-0.961-0.325
		c-0.371,0-0.673,0.095-0.905,0.284s-0.349,0.417-0.349,0.683h-1.102l-0.012-0.035c-0.023-0.461,0.194-0.883,0.653-1.266
		s1.052-0.574,1.778-0.574c0.719,0,1.297,0.183,1.734,0.548s0.656,0.892,0.656,1.579v3.053c0,0.227,0.012,0.445,0.035,0.656
		s0.066,0.418,0.129,0.621H149.732z M147.816,20.521c0.418,0,0.795-0.107,1.131-0.321s0.555-0.459,0.656-0.736v-1.028h-1.295
		c-0.465,0-0.837,0.117-1.116,0.351s-0.419,0.508-0.419,0.824c0,0.281,0.088,0.502,0.264,0.667
		C147.212,20.44,147.472,20.521,147.816,20.521z"/>
	<path style="fill:#231F20;" d="M153.681,13.408h-1.154V12.23h1.154V13.408z M153.681,21.371h-1.154v-6.34h1.154V21.371z"/>
	<path style="fill:#231F20;" d="M156.705,21.371h-1.154V12.23h1.154V21.371z"/>
	<path style="fill:#231F20;" d="M114.558,33.035l0.012,0.035c0.016,0.801-0.266,1.472-0.844,2.013s-1.342,0.812-2.291,0.812
		c-0.965,0-1.751-0.342-2.358-1.025s-0.911-1.551-0.911-2.602V30.75c0-1.051,0.304-1.919,0.911-2.604s1.394-1.028,2.358-1.028
		s1.732,0.257,2.303,0.771s0.848,1.194,0.832,2.042l-0.012,0.035h-1.107c0-0.598-0.176-1.07-0.527-1.418s-0.848-0.521-1.488-0.521
		c-0.645,0-1.158,0.26-1.541,0.779s-0.574,1.163-0.574,1.932v1.528c0,0.776,0.191,1.424,0.574,1.943s0.896,0.779,1.541,0.779
		c0.641,0,1.137-0.173,1.488-0.519s0.527-0.823,0.527-1.433H114.558z"/>
	<path style="fill:#231F20;" d="M117.16,35.771h-1.154V26.63h1.154V35.771z"/>
	<path style="fill:#231F20;" d="M122.832,35.771c-0.039-0.191-0.069-0.36-0.091-0.507s-0.034-0.294-0.038-0.442
		c-0.215,0.305-0.495,0.56-0.841,0.765s-0.718,0.308-1.116,0.308c-0.66,0-1.163-0.169-1.509-0.507s-0.519-0.804-0.519-1.397
		c0-0.605,0.245-1.079,0.735-1.421s1.155-0.513,1.995-0.513h1.254v-0.627c0-0.371-0.113-0.665-0.34-0.882s-0.547-0.325-0.961-0.325
		c-0.371,0-0.673,0.095-0.905,0.284s-0.349,0.417-0.349,0.683h-1.102l-0.012-0.035c-0.023-0.461,0.194-0.883,0.653-1.266
		s1.052-0.574,1.778-0.574c0.719,0,1.297,0.183,1.734,0.548s0.656,0.892,0.656,1.579v3.053c0,0.227,0.012,0.445,0.035,0.656
		s0.066,0.418,0.129,0.621H122.832z M120.916,34.921c0.418,0,0.795-0.107,1.131-0.321s0.555-0.459,0.656-0.736v-1.028h-1.295
		c-0.465,0-0.837,0.117-1.116,0.351s-0.419,0.508-0.419,0.824c0,0.281,0.088,0.502,0.264,0.667
		C120.312,34.84,120.572,34.921,120.916,34.921z"/>
	<path style="fill:#231F20;" d="M129.218,34.083c0-0.254-0.097-0.463-0.29-0.627s-0.56-0.307-1.099-0.428
		c-0.77-0.168-1.349-0.395-1.737-0.682s-0.583-0.678-0.583-1.173c0-0.515,0.219-0.954,0.656-1.316s1.008-0.544,1.711-0.544
		c0.738,0,1.325,0.189,1.761,0.568s0.644,0.84,0.624,1.383L130.25,31.3h-1.102c0-0.277-0.116-0.526-0.349-0.747
		s-0.54-0.331-0.923-0.331c-0.41,0-0.715,0.09-0.914,0.27s-0.299,0.396-0.299,0.65c0,0.25,0.088,0.447,0.264,0.592
		s0.533,0.273,1.072,0.387c0.801,0.172,1.396,0.405,1.787,0.7s0.586,0.69,0.586,1.187c0,0.562-0.228,1.018-0.683,1.365
		s-1.05,0.521-1.784,0.521c-0.809,0-1.445-0.205-1.91-0.615s-0.686-0.889-0.662-1.436l0.012-0.035h1.102
		c0.02,0.408,0.172,0.707,0.457,0.895s0.619,0.283,1.002,0.283c0.41,0,0.731-0.083,0.964-0.249S129.218,34.353,129.218,34.083z"/>
	<path style="fill:#231F20;" d="M135.494,34.083c0-0.254-0.097-0.463-0.29-0.627s-0.56-0.307-1.099-0.428
		c-0.77-0.168-1.349-0.395-1.737-0.682s-0.583-0.678-0.583-1.173c0-0.515,0.219-0.954,0.656-1.316s1.008-0.544,1.711-0.544
		c0.738,0,1.325,0.189,1.761,0.568s0.644,0.84,0.624,1.383l-0.012,0.035h-1.102c0-0.277-0.116-0.526-0.349-0.747
		s-0.54-0.331-0.923-0.331c-0.41,0-0.715,0.09-0.914,0.27s-0.299,0.396-0.299,0.65c0,0.25,0.088,0.447,0.264,0.592
		s0.533,0.273,1.072,0.387c0.801,0.172,1.396,0.405,1.787,0.7s0.586,0.69,0.586,1.187c0,0.562-0.228,1.018-0.683,1.365
		s-1.05,0.521-1.784,0.521c-0.809,0-1.445-0.205-1.91-0.615s-0.686-0.889-0.662-1.436l0.012-0.035h1.102
		c0.02,0.408,0.172,0.707,0.457,0.895s0.619,0.283,1.002,0.283c0.41,0,0.731-0.083,0.964-0.249S135.494,34.353,135.494,34.083z"/>
	<path style="fill:#231F20;" d="M142.501,35.771h-1.16V27.24h1.16V35.771z"/>
	<path style="fill:#231F20;" d="M149.134,27.24l2.719,6.932h0.035l2.719-6.932h1.477v8.531h-1.154v-3.375l0.117-3.469l-0.029-0.006
		l-2.766,6.85h-0.768l-2.754-6.832l-0.029,0.006l0.111,3.451v3.375h-1.154V27.24H149.134z"/>
	<path style="fill:#231F20;" d="M162.007,34.833c-0.199,0.34-0.455,0.602-0.768,0.785s-0.674,0.275-1.084,0.275
		c-0.691,0-1.23-0.221-1.617-0.662s-0.58-1.129-0.58-2.062v-3.738h1.154v3.75c0,0.676,0.1,1.141,0.299,1.395s0.51,0.381,0.932,0.381
		c0.41,0,0.749-0.083,1.017-0.249s0.47-0.401,0.606-0.706v-4.57h1.154v6.34h-1.037L162.007,34.833z"/>
	<path style="fill:#231F20;" d="M166.05,35.771h-1.154V26.63h1.154V35.771z"/>
	<path style="fill:#231F20;" d="M169.349,27.902v1.529h1.201v0.855h-1.201v3.85c0,0.297,0.062,0.506,0.185,0.627
		s0.286,0.182,0.489,0.182c0.066,0,0.14-0.008,0.22-0.023s0.151-0.035,0.214-0.059l0.152,0.791c-0.086,0.07-0.212,0.128-0.378,0.173
		s-0.333,0.067-0.501,0.067c-0.469,0-0.842-0.142-1.119-0.425s-0.416-0.728-0.416-1.333v-3.85h-1.008v-0.855h1.008v-1.529H169.349z"
		/>
	<path style="fill:#231F20;" d="M173.222,27.808h-1.154V26.63h1.154V27.808z M173.222,35.771h-1.154v-6.34h1.154V35.771z"/>
	<path style="fill:#231F20;" d="M184.431,27.24v5.783c0,0.93-0.302,1.641-0.905,2.133s-1.392,0.738-2.364,0.738
		c-0.938,0-1.698-0.247-2.282-0.741s-0.876-1.204-0.876-2.13V27.24h1.154v5.779c0,0.644,0.184,1.133,0.551,1.467
		c0.367,0.333,0.852,0.5,1.453,0.5c0.633,0,1.144-0.167,1.532-0.5c0.389-0.334,0.583-0.823,0.583-1.467V27.24H184.431z"/>
	<path style="fill:#231F20;" d="M189.787,34.083c0-0.254-0.097-0.463-0.29-0.627s-0.56-0.307-1.099-0.428
		c-0.77-0.168-1.349-0.395-1.737-0.682s-0.583-0.678-0.583-1.173c0-0.515,0.219-0.954,0.656-1.316s1.008-0.544,1.711-0.544
		c0.738,0,1.325,0.189,1.761,0.568s0.644,0.84,0.624,1.383l-0.012,0.035h-1.102c0-0.277-0.116-0.526-0.349-0.747
		s-0.54-0.331-0.923-0.331c-0.41,0-0.715,0.09-0.914,0.27s-0.299,0.396-0.299,0.65c0,0.25,0.088,0.447,0.264,0.592
		s0.533,0.273,1.072,0.387c0.801,0.172,1.396,0.405,1.787,0.7s0.586,0.69,0.586,1.187c0,0.562-0.228,1.018-0.683,1.365
		s-1.05,0.521-1.784,0.521c-0.809,0-1.445-0.205-1.91-0.615s-0.686-0.889-0.662-1.436l0.012-0.035h1.102
		c0.02,0.408,0.172,0.707,0.457,0.895s0.619,0.283,1.002,0.283c0.41,0,0.731-0.083,0.964-0.249S189.787,34.353,189.787,34.083z"/>
	<path style="fill:#231F20;" d="M195.007,35.894c-0.883,0-1.585-0.294-2.106-0.882s-0.782-1.351-0.782-2.288v-0.258
		c0-0.902,0.269-1.653,0.806-2.253s1.173-0.899,1.907-0.899c0.855,0,1.502,0.258,1.939,0.773s0.656,1.203,0.656,2.062v0.721h-4.113
		l-0.018,0.029c0.012,0.607,0.166,1.107,0.463,1.499c0.297,0.392,0.713,0.587,1.248,0.587c0.391,0,0.733-0.056,1.028-0.167
		s0.55-0.265,0.765-0.46l0.451,0.751c-0.227,0.224-0.525,0.411-0.896,0.56S195.535,35.894,195.007,35.894z M194.832,30.222
		c-0.387,0-0.717,0.163-0.99,0.488c-0.273,0.325-0.441,0.733-0.504,1.223l0.012,0.029h2.924v-0.152c0-0.452-0.121-0.829-0.363-1.133
		S195.308,30.222,194.832,30.222z"/>
	<path style="fill:#231F20;" d="M203.076,32.349v3.422h-1.154V27.24h3.264c0.91,0,1.617,0.234,2.121,0.703s0.756,1.086,0.756,1.852
		c0,0.777-0.252,1.397-0.756,1.86s-1.211,0.694-2.121,0.694H203.076z M203.076,31.441h2.109c0.578,0,1.01-0.155,1.295-0.465
		s0.428-0.701,0.428-1.173s-0.144-0.866-0.431-1.182s-0.718-0.474-1.292-0.474h-2.109V31.441z"/>
	<path style="fill:#231F20;" d="M213.224,35.771c-0.039-0.191-0.069-0.36-0.091-0.507s-0.034-0.294-0.038-0.442
		c-0.215,0.305-0.495,0.56-0.841,0.765s-0.718,0.308-1.116,0.308c-0.66,0-1.163-0.169-1.509-0.507s-0.519-0.804-0.519-1.397
		c0-0.605,0.245-1.079,0.735-1.421s1.155-0.513,1.995-0.513h1.254v-0.627c0-0.371-0.113-0.665-0.34-0.882s-0.547-0.325-0.961-0.325
		c-0.371,0-0.673,0.095-0.905,0.284s-0.349,0.417-0.349,0.683h-1.102l-0.012-0.035c-0.023-0.461,0.194-0.883,0.653-1.266
		s1.052-0.574,1.778-0.574c0.719,0,1.297,0.183,1.734,0.548s0.656,0.892,0.656,1.579v3.053c0,0.227,0.012,0.445,0.035,0.656
		s0.066,0.418,0.129,0.621H213.224z M211.308,34.921c0.418,0,0.795-0.107,1.131-0.321s0.555-0.459,0.656-0.736v-1.028H211.8
		c-0.465,0-0.837,0.117-1.116,0.351s-0.419,0.508-0.419,0.824c0,0.281,0.088,0.502,0.264,0.667
		C210.705,34.84,210.964,34.921,211.308,34.921z"/>
	<path style="fill:#231F20;" d="M217.449,27.902v1.529h1.201v0.855h-1.201v3.85c0,0.297,0.062,0.506,0.185,0.627
		s0.286,0.182,0.489,0.182c0.066,0,0.14-0.008,0.22-0.023s0.151-0.035,0.214-0.059l0.152,0.791c-0.086,0.07-0.212,0.128-0.378,0.173
		s-0.333,0.067-0.501,0.067c-0.469,0-0.842-0.142-1.119-0.425s-0.416-0.728-0.416-1.333v-3.85h-1.008v-0.855h1.008v-1.529H217.449z"
		/>
	<path style="fill:#231F20;" d="M221.228,30.281c0.219-0.305,0.487-0.542,0.806-0.712s0.671-0.255,1.058-0.255
		c0.676,0,1.202,0.203,1.579,0.609s0.565,1.031,0.565,1.875v3.973h-1.154v-3.984c0-0.523-0.112-0.91-0.337-1.16
		s-0.56-0.375-1.005-0.375c-0.32,0-0.61,0.075-0.87,0.226s-0.474,0.354-0.642,0.612v4.682h-1.154V26.63h1.154V30.281z"/>
	<path style="fill:#231F20;" d="M114.558,47.435l0.012,0.035c0.016,0.801-0.266,1.472-0.844,2.013s-1.342,0.812-2.291,0.812
		c-0.965,0-1.751-0.342-2.358-1.025s-0.911-1.551-0.911-2.602v-1.518c0-1.051,0.304-1.919,0.911-2.604s1.394-1.028,2.358-1.028
		s1.732,0.257,2.303,0.771s0.848,1.194,0.832,2.042l-0.012,0.035h-1.107c0-0.598-0.176-1.07-0.527-1.418s-0.848-0.521-1.488-0.521
		c-0.645,0-1.158,0.26-1.541,0.779s-0.574,1.163-0.574,1.932v1.528c0,0.776,0.191,1.424,0.574,1.943s0.896,0.779,1.541,0.779
		c0.641,0,1.137-0.173,1.488-0.519s0.527-0.823,0.527-1.433H114.558z"/>
	<path style="fill:#231F20;" d="M117.16,50.171h-1.154V41.03h1.154V50.171z"/>
	<path style="fill:#231F20;" d="M122.832,50.171c-0.039-0.191-0.069-0.36-0.091-0.507s-0.034-0.294-0.038-0.442
		c-0.215,0.305-0.495,0.56-0.841,0.765s-0.718,0.308-1.116,0.308c-0.66,0-1.163-0.169-1.509-0.507s-0.519-0.804-0.519-1.397
		c0-0.605,0.245-1.079,0.735-1.421s1.155-0.513,1.995-0.513h1.254v-0.627c0-0.371-0.113-0.665-0.34-0.882s-0.547-0.325-0.961-0.325
		c-0.371,0-0.673,0.095-0.905,0.284s-0.349,0.417-0.349,0.683h-1.102l-0.012-0.035c-0.023-0.461,0.194-0.883,0.653-1.266
		s1.052-0.574,1.778-0.574c0.719,0,1.297,0.183,1.734,0.548s0.656,0.892,0.656,1.579v3.053c0,0.227,0.012,0.445,0.035,0.656
		s0.066,0.418,0.129,0.621H122.832z M120.916,49.321c0.418,0,0.795-0.107,1.131-0.321s0.555-0.459,0.656-0.736v-1.028h-1.295
		c-0.465,0-0.837,0.117-1.116,0.351s-0.419,0.508-0.419,0.824c0,0.281,0.088,0.502,0.264,0.667
		C120.312,49.24,120.572,49.321,120.916,49.321z"/>
	<path style="fill:#231F20;" d="M129.218,48.483c0-0.254-0.097-0.463-0.29-0.627s-0.56-0.307-1.099-0.428
		c-0.77-0.168-1.349-0.395-1.737-0.682s-0.583-0.678-0.583-1.173c0-0.515,0.219-0.954,0.656-1.316s1.008-0.544,1.711-0.544
		c0.738,0,1.325,0.189,1.761,0.568s0.644,0.84,0.624,1.383L130.25,45.7h-1.102c0-0.277-0.116-0.526-0.349-0.747
		s-0.54-0.331-0.923-0.331c-0.41,0-0.715,0.09-0.914,0.27s-0.299,0.396-0.299,0.65c0,0.25,0.088,0.447,0.264,0.592
		s0.533,0.273,1.072,0.387c0.801,0.172,1.396,0.405,1.787,0.7s0.586,0.69,0.586,1.187c0,0.562-0.228,1.018-0.683,1.365
		s-1.05,0.521-1.784,0.521c-0.809,0-1.445-0.205-1.91-0.615s-0.686-0.889-0.662-1.436l0.012-0.035h1.102
		c0.02,0.408,0.172,0.707,0.457,0.895s0.619,0.283,1.002,0.283c0.41,0,0.731-0.083,0.964-0.249S129.218,48.753,129.218,48.483z"/>
	<path style="fill:#231F20;" d="M135.494,48.483c0-0.254-0.097-0.463-0.29-0.627s-0.56-0.307-1.099-0.428
		c-0.77-0.168-1.349-0.395-1.737-0.682s-0.583-0.678-0.583-1.173c0-0.515,0.219-0.954,0.656-1.316s1.008-0.544,1.711-0.544
		c0.738,0,1.325,0.189,1.761,0.568s0.644,0.84,0.624,1.383l-0.012,0.035h-1.102c0-0.277-0.116-0.526-0.349-0.747
		s-0.54-0.331-0.923-0.331c-0.41,0-0.715,0.09-0.914,0.27s-0.299,0.396-0.299,0.65c0,0.25,0.088,0.447,0.264,0.592
		s0.533,0.273,1.072,0.387c0.801,0.172,1.396,0.405,1.787,0.7s0.586,0.69,0.586,1.187c0,0.562-0.228,1.018-0.683,1.365
		s-1.05,0.521-1.784,0.521c-0.809,0-1.445-0.205-1.91-0.615s-0.686-0.889-0.662-1.436l0.012-0.035h1.102
		c0.02,0.408,0.172,0.707,0.457,0.895s0.619,0.283,1.002,0.283c0.41,0,0.731-0.083,0.964-0.249S135.494,48.753,135.494,48.483z"/>
	<path style="fill:#231F20;" d="M142.501,50.171h-1.16V41.64h1.16V50.171z"/>
	<path style="fill:#231F20;" d="M145.894,50.171h-1.16V41.64h1.16V50.171z"/>
	<path style="fill:#231F20;" d="M151.05,50.171V41.64h2.783c0.891,0,1.588,0.192,2.092,0.577s0.756,0.962,0.756,1.731
		c0,0.379-0.121,0.718-0.363,1.017s-0.561,0.521-0.955,0.665c0.516,0.109,0.921,0.361,1.216,0.756s0.442,0.854,0.442,1.377
		c0,0.781-0.253,1.378-0.759,1.79s-1.192,0.618-2.06,0.618H151.05z M152.205,45.267h1.869c0.43,0,0.779-0.118,1.049-0.354
		s0.404-0.565,0.404-0.987c0-0.461-0.146-0.806-0.437-1.034s-0.71-0.343-1.257-0.343h-1.629V45.267z M152.205,46.175v3.088h1.998
		c0.523,0,0.932-0.129,1.225-0.388s0.439-0.625,0.439-1.1c0-0.498-0.122-0.889-0.366-1.173s-0.62-0.426-1.128-0.426H152.205z"/>
	<path style="fill:#231F20;" d="M159.751,42.208h-1.154V41.03h1.154V42.208z M159.751,50.171h-1.154v-6.34h1.154V50.171z"/>
	<path style="fill:#231F20;" d="M163.437,47.235h-0.75v2.936h-1.154V41.03h1.154v5.297h0.738l1.734-2.496h1.383l-2.168,2.878
		l2.479,3.462h-1.359L163.437,47.235z"/>
	<path style="fill:#231F20;" d="M170.193,50.294c-0.883,0-1.585-0.294-2.106-0.882s-0.782-1.351-0.782-2.288v-0.258
		c0-0.902,0.269-1.653,0.806-2.253s1.173-0.899,1.907-0.899c0.855,0,1.502,0.258,1.939,0.773s0.656,1.203,0.656,2.062v0.721H168.5
		l-0.018,0.029c0.012,0.607,0.166,1.107,0.463,1.499c0.297,0.392,0.713,0.587,1.248,0.587c0.391,0,0.733-0.056,1.028-0.167
		s0.55-0.265,0.765-0.46l0.451,0.751c-0.227,0.224-0.525,0.411-0.896,0.56S170.72,50.294,170.193,50.294z M170.017,44.622
		c-0.387,0-0.717,0.163-0.99,0.488c-0.273,0.325-0.441,0.733-0.504,1.223l0.012,0.029h2.924V46.21c0-0.452-0.121-0.829-0.363-1.133
		S170.494,44.622,170.017,44.622z"/>
	<path style="fill:#231F20;" d="M178.261,49.263h4.037v0.908h-5.191V41.64h1.154V49.263z"/>
	<path style="fill:#231F20;" d="M187.267,50.171c-0.039-0.191-0.069-0.36-0.091-0.507s-0.034-0.294-0.038-0.442
		c-0.215,0.305-0.495,0.56-0.841,0.765s-0.718,0.308-1.116,0.308c-0.66,0-1.163-0.169-1.509-0.507s-0.519-0.804-0.519-1.397
		c0-0.605,0.245-1.079,0.735-1.421s1.155-0.513,1.995-0.513h1.254v-0.627c0-0.371-0.113-0.665-0.34-0.882s-0.547-0.325-0.961-0.325
		c-0.371,0-0.673,0.095-0.905,0.284s-0.349,0.417-0.349,0.683h-1.102l-0.012-0.035c-0.023-0.461,0.194-0.883,0.653-1.266
		s1.052-0.574,1.778-0.574c0.719,0,1.297,0.183,1.734,0.548s0.656,0.892,0.656,1.579v3.053c0,0.227,0.012,0.445,0.035,0.656
		s0.066,0.418,0.129,0.621H187.267z M185.351,49.321c0.418,0,0.795-0.107,1.131-0.321s0.555-0.459,0.656-0.736v-1.028h-1.295
		c-0.465,0-0.837,0.117-1.116,0.351s-0.419,0.508-0.419,0.824c0,0.281,0.088,0.502,0.264,0.667
		C184.748,49.24,185.007,49.321,185.351,49.321z"/>
	<path style="fill:#231F20;" d="M191,43.831l0.082,0.943c0.211-0.336,0.476-0.597,0.794-0.782s0.681-0.278,1.087-0.278
		c0.684,0,1.213,0.2,1.588,0.601s0.562,1.019,0.562,1.854v4.002h-1.154v-3.979c0-0.559-0.11-0.955-0.331-1.189
		s-0.558-0.352-1.011-0.352c-0.332,0-0.626,0.08-0.882,0.24s-0.46,0.379-0.612,0.656v4.623h-1.154v-6.34H191z"/>
	<path style="fill:#231F20;" d="M199.419,50.294c-0.883,0-1.585-0.294-2.106-0.882s-0.782-1.351-0.782-2.288v-0.258
		c0-0.902,0.269-1.653,0.806-2.253s1.173-0.899,1.907-0.899c0.855,0,1.502,0.258,1.939,0.773s0.656,1.203,0.656,2.062v0.721h-4.113
		l-0.018,0.029c0.012,0.607,0.166,1.107,0.463,1.499c0.297,0.392,0.713,0.587,1.248,0.587c0.391,0,0.733-0.056,1.028-0.167
		s0.55-0.265,0.765-0.46l0.451,0.751c-0.227,0.224-0.525,0.411-0.896,0.56S199.947,50.294,199.419,50.294z M199.244,44.622
		c-0.387,0-0.717,0.163-0.99,0.488c-0.273,0.325-0.441,0.733-0.504,1.223l0.012,0.029h2.924V46.21c0-0.452-0.121-0.829-0.363-1.133
		S199.72,44.622,199.244,44.622z"/>
	<path style="fill:#231F20;" d="M114.558,61.834l0.012,0.035c0.016,0.801-0.266,1.472-0.844,2.013s-1.342,0.812-2.291,0.812
		c-0.965,0-1.751-0.342-2.358-1.025s-0.911-1.551-0.911-2.602v-1.518c0-1.051,0.304-1.919,0.911-2.604s1.394-1.028,2.358-1.028
		s1.732,0.257,2.303,0.771s0.848,1.194,0.832,2.042l-0.012,0.035h-1.107c0-0.598-0.176-1.07-0.527-1.418s-0.848-0.521-1.488-0.521
		c-0.645,0-1.158,0.26-1.541,0.779s-0.574,1.163-0.574,1.932v1.528c0,0.776,0.191,1.424,0.574,1.943s0.896,0.779,1.541,0.779
		c0.641,0,1.137-0.173,1.488-0.519s0.527-0.823,0.527-1.433H114.558z"/>
	<path style="fill:#231F20;" d="M117.16,64.571h-1.154V55.43h1.154V64.571z"/>
	<path style="fill:#231F20;" d="M122.832,64.571c-0.039-0.191-0.069-0.36-0.091-0.507s-0.034-0.294-0.038-0.442
		c-0.215,0.305-0.495,0.56-0.841,0.765s-0.718,0.308-1.116,0.308c-0.66,0-1.163-0.169-1.509-0.507s-0.519-0.804-0.519-1.397
		c0-0.605,0.245-1.079,0.735-1.421s1.155-0.513,1.995-0.513h1.254v-0.627c0-0.371-0.113-0.665-0.34-0.882s-0.547-0.325-0.961-0.325
		c-0.371,0-0.673,0.095-0.905,0.284s-0.349,0.417-0.349,0.683h-1.102l-0.012-0.035c-0.023-0.461,0.194-0.883,0.653-1.266
		s1.052-0.574,1.778-0.574c0.719,0,1.297,0.183,1.734,0.548s0.656,0.892,0.656,1.579v3.053c0,0.227,0.012,0.445,0.035,0.656
		s0.066,0.418,0.129,0.621H122.832z M120.916,63.721c0.418,0,0.795-0.107,1.131-0.321s0.555-0.459,0.656-0.736v-1.028h-1.295
		c-0.465,0-0.837,0.117-1.116,0.351s-0.419,0.508-0.419,0.824c0,0.281,0.088,0.502,0.264,0.667
		C120.312,63.64,120.572,63.721,120.916,63.721z"/>
	<path style="fill:#231F20;" d="M129.218,62.883c0-0.254-0.097-0.463-0.29-0.627s-0.56-0.307-1.099-0.428
		c-0.77-0.168-1.349-0.395-1.737-0.682s-0.583-0.678-0.583-1.173c0-0.515,0.219-0.954,0.656-1.316s1.008-0.544,1.711-0.544
		c0.738,0,1.325,0.189,1.761,0.568s0.644,0.84,0.624,1.383L130.25,60.1h-1.102c0-0.277-0.116-0.526-0.349-0.747
		s-0.54-0.331-0.923-0.331c-0.41,0-0.715,0.09-0.914,0.27s-0.299,0.396-0.299,0.65c0,0.25,0.088,0.447,0.264,0.592
		s0.533,0.273,1.072,0.387c0.801,0.172,1.396,0.405,1.787,0.7s0.586,0.69,0.586,1.187c0,0.562-0.228,1.018-0.683,1.365
		s-1.05,0.521-1.784,0.521c-0.809,0-1.445-0.205-1.91-0.615s-0.686-0.889-0.662-1.436l0.012-0.035h1.102
		c0.02,0.408,0.172,0.707,0.457,0.895s0.619,0.283,1.002,0.283c0.41,0,0.731-0.083,0.964-0.249S129.218,63.153,129.218,62.883z"/>
	<path style="fill:#231F20;" d="M135.494,62.883c0-0.254-0.097-0.463-0.29-0.627s-0.56-0.307-1.099-0.428
		c-0.77-0.168-1.349-0.395-1.737-0.682s-0.583-0.678-0.583-1.173c0-0.515,0.219-0.954,0.656-1.316s1.008-0.544,1.711-0.544
		c0.738,0,1.325,0.189,1.761,0.568s0.644,0.84,0.624,1.383l-0.012,0.035h-1.102c0-0.277-0.116-0.526-0.349-0.747
		s-0.54-0.331-0.923-0.331c-0.41,0-0.715,0.09-0.914,0.27s-0.299,0.396-0.299,0.65c0,0.25,0.088,0.447,0.264,0.592
		s0.533,0.273,1.072,0.387c0.801,0.172,1.396,0.405,1.787,0.7s0.586,0.69,0.586,1.187c0,0.562-0.228,1.018-0.683,1.365
		s-1.05,0.521-1.784,0.521c-0.809,0-1.445-0.205-1.91-0.615s-0.686-0.889-0.662-1.436l0.012-0.035h1.102
		c0.02,0.408,0.172,0.707,0.457,0.895s0.619,0.283,1.002,0.283c0.41,0,0.731-0.083,0.964-0.249S135.494,63.153,135.494,62.883z"/>
	<path style="fill:#231F20;" d="M142.501,64.571h-1.16V56.04h1.16V64.571z"/>
	<path style="fill:#231F20;" d="M145.894,64.571h-1.16V56.04h1.16V64.571z"/>
	<path style="fill:#231F20;" d="M149.287,64.571h-1.16V56.04h1.16V64.571z"/>
	<path style="fill:#231F20;" d="M154.443,64.571V56.04h2.783c0.891,0,1.588,0.192,2.092,0.577s0.756,0.962,0.756,1.731
		c0,0.379-0.121,0.718-0.363,1.017s-0.561,0.521-0.955,0.665c0.516,0.109,0.921,0.361,1.216,0.756s0.442,0.854,0.442,1.377
		c0,0.781-0.253,1.378-0.759,1.79s-1.192,0.618-2.06,0.618H154.443z M155.597,59.667h1.869c0.43,0,0.779-0.118,1.049-0.354
		s0.404-0.565,0.404-0.987c0-0.461-0.146-0.806-0.437-1.034s-0.71-0.343-1.257-0.343h-1.629V59.667z M155.597,60.575v3.088h1.998
		c0.523,0,0.932-0.129,1.225-0.388s0.439-0.625,0.439-1.1c0-0.498-0.122-0.889-0.366-1.173s-0.62-0.426-1.128-0.426H155.597z"/>
	<path style="fill:#231F20;" d="M163.144,56.608h-1.154V55.43h1.154V56.608z M163.144,64.571h-1.154v-6.34h1.154V64.571z"/>
	<path style="fill:#231F20;" d="M166.83,61.635h-0.75v2.936h-1.154V55.43h1.154v5.297h0.738l1.734-2.496h1.383l-2.168,2.878
		l2.479,3.462h-1.359L166.83,61.635z"/>
	<path style="fill:#231F20;" d="M173.585,64.694c-0.883,0-1.585-0.294-2.106-0.882s-0.782-1.351-0.782-2.288v-0.258
		c0-0.902,0.269-1.653,0.806-2.253s1.173-0.899,1.907-0.899c0.855,0,1.502,0.258,1.939,0.773s0.656,1.203,0.656,2.062v0.721h-4.113
		l-0.018,0.029c0.012,0.607,0.166,1.107,0.463,1.499c0.297,0.392,0.713,0.587,1.248,0.587c0.391,0,0.733-0.056,1.028-0.167
		s0.55-0.265,0.765-0.46l0.451,0.751c-0.227,0.224-0.525,0.411-0.896,0.56S174.113,64.694,173.585,64.694z M173.41,59.022
		c-0.387,0-0.717,0.163-0.99,0.488c-0.273,0.325-0.441,0.733-0.504,1.223l0.012,0.029h2.924V60.61c0-0.452-0.121-0.829-0.363-1.133
		S173.886,59.022,173.41,59.022z"/>
	<path style="fill:#231F20;" d="M180.5,64.571V56.04h2.783c0.891,0,1.588,0.192,2.092,0.577s0.756,0.962,0.756,1.731
		c0,0.379-0.121,0.718-0.363,1.017s-0.561,0.521-0.955,0.665c0.516,0.109,0.921,0.361,1.216,0.756s0.442,0.854,0.442,1.377
		c0,0.781-0.253,1.378-0.759,1.79s-1.192,0.618-2.06,0.618H180.5z M181.654,59.667h1.869c0.43,0,0.779-0.118,1.049-0.354
		s0.404-0.565,0.404-0.987c0-0.461-0.146-0.806-0.437-1.034s-0.71-0.343-1.257-0.343h-1.629V59.667z M181.654,60.575v3.088h1.998
		c0.523,0,0.932-0.129,1.225-0.388s0.439-0.625,0.439-1.1c0-0.498-0.122-0.889-0.366-1.173s-0.62-0.426-1.128-0.426H181.654z"/>
	<path style="fill:#231F20;" d="M187.683,61.342c0-0.938,0.254-1.71,0.762-2.317s1.197-0.911,2.068-0.911
		c0.879,0,1.573,0.303,2.083,0.908s0.765,1.379,0.765,2.32v0.129c0,0.945-0.254,1.719-0.762,2.32s-1.199,0.902-2.074,0.902
		s-1.567-0.302-2.077-0.905s-0.765-1.376-0.765-2.317V61.342z M188.837,61.468c0,0.671,0.142,1.225,0.425,1.662
		s0.704,0.655,1.263,0.655c0.551,0,0.969-0.218,1.254-0.655s0.428-0.991,0.428-1.662v-0.129c0-0.663-0.144-1.215-0.431-1.656
		c-0.287-0.44-0.708-0.661-1.263-0.661c-0.551,0-0.968,0.221-1.251,0.661c-0.283,0.441-0.425,0.993-0.425,1.656V61.468z"/>
	<path style="fill:#231F20;" d="M198.798,63.633c-0.199,0.34-0.455,0.602-0.768,0.785s-0.674,0.275-1.084,0.275
		c-0.691,0-1.23-0.221-1.617-0.662s-0.58-1.129-0.58-2.062v-3.738h1.154v3.75c0,0.676,0.1,1.141,0.299,1.395s0.51,0.381,0.932,0.381
		c0.41,0,0.749-0.083,1.017-0.249s0.47-0.401,0.606-0.706v-4.57h1.154v6.34h-1.037L198.798,63.633z"/>
	<path style="fill:#231F20;" d="M202.841,64.571h-1.154V55.43h1.154V64.571z"/>
	<path style="fill:#231F20;" d="M207.248,64.694c-0.883,0-1.585-0.294-2.106-0.882s-0.782-1.351-0.782-2.288v-0.258
		c0-0.902,0.269-1.653,0.806-2.253s1.173-0.899,1.907-0.899c0.855,0,1.502,0.258,1.939,0.773s0.656,1.203,0.656,2.062v0.721h-4.113
		l-0.018,0.029c0.012,0.607,0.166,1.107,0.463,1.499c0.297,0.392,0.713,0.587,1.248,0.587c0.391,0,0.733-0.056,1.028-0.167
		s0.55-0.265,0.765-0.46l0.451,0.751c-0.227,0.224-0.525,0.411-0.896,0.56S207.775,64.694,207.248,64.694z M207.072,59.022
		c-0.387,0-0.717,0.163-0.99,0.488c-0.273,0.325-0.441,0.733-0.504,1.223l0.012,0.029h2.924V60.61c0-0.452-0.121-0.829-0.363-1.133
		S207.548,59.022,207.072,59.022z"/>
	<path style="fill:#231F20;" d="M213.001,62.702l0.1,0.445h0.035l0.111-0.445l1.459-4.471h1.178l-2.332,6.34h-0.873l-2.361-6.34
		h1.184L213.001,62.702z"/>
	<path style="fill:#231F20;" d="M220.73,64.571c-0.039-0.191-0.069-0.36-0.091-0.507s-0.034-0.294-0.038-0.442
		c-0.215,0.305-0.495,0.56-0.841,0.765s-0.718,0.308-1.116,0.308c-0.66,0-1.163-0.169-1.509-0.507s-0.519-0.804-0.519-1.397
		c0-0.605,0.245-1.079,0.735-1.421s1.155-0.513,1.995-0.513h1.254v-0.627c0-0.371-0.113-0.665-0.34-0.882s-0.547-0.325-0.961-0.325
		c-0.371,0-0.673,0.095-0.905,0.284s-0.349,0.417-0.349,0.683h-1.102l-0.012-0.035c-0.023-0.461,0.194-0.883,0.653-1.266
		s1.052-0.574,1.778-0.574c0.719,0,1.297,0.183,1.734,0.548s0.656,0.892,0.656,1.579v3.053c0,0.227,0.012,0.445,0.035,0.656
		s0.066,0.418,0.129,0.621H220.73z M218.814,63.721c0.418,0,0.795-0.107,1.131-0.321s0.555-0.459,0.656-0.736v-1.028h-1.295
		c-0.465,0-0.837,0.117-1.116,0.351s-0.419,0.508-0.419,0.824c0,0.281,0.088,0.502,0.264,0.667
		C218.21,63.64,218.47,63.721,218.814,63.721z"/>
	<path style="fill:#231F20;" d="M226.431,59.25l-0.592-0.035c-0.305,0-0.562,0.072-0.771,0.217s-0.37,0.348-0.483,0.609v4.529
		h-1.154v-6.34h1.031l0.111,0.926c0.18-0.328,0.401-0.584,0.665-0.768s0.567-0.275,0.911-0.275c0.086,0,0.168,0.007,0.246,0.021
		s0.143,0.028,0.193,0.044L226.431,59.25z"/>
	<path style="fill:#231F20;" d="M227.169,61.518c0-1.02,0.218-1.842,0.653-2.467s1.046-0.938,1.831-0.938
		c0.371,0,0.7,0.068,0.987,0.205s0.532,0.336,0.735,0.598V55.43h1.154v9.141h-0.943l-0.135-0.779
		c-0.207,0.297-0.461,0.521-0.762,0.674s-0.65,0.229-1.049,0.229c-0.773,0-1.379-0.28-1.816-0.841s-0.656-1.298-0.656-2.212V61.518z
		 M228.324,61.641c0,0.641,0.131,1.153,0.393,1.538s0.668,0.577,1.219,0.577c0.344,0,0.633-0.078,0.867-0.234
		s0.426-0.375,0.574-0.656v-2.959c-0.148-0.262-0.341-0.47-0.577-0.624s-0.521-0.231-0.853-0.231c-0.555,0-0.964,0.229-1.228,0.686
		s-0.396,1.051-0.396,1.781V61.641z"/>
	<path style="fill:#231F20;" d="M114.558,76.235l0.012,0.035c0.016,0.801-0.266,1.472-0.844,2.013s-1.342,0.812-2.291,0.812
		c-0.965,0-1.751-0.342-2.358-1.025s-0.911-1.551-0.911-2.602V73.95c0-1.051,0.304-1.919,0.911-2.604s1.394-1.028,2.358-1.028
		s1.732,0.257,2.303,0.771s0.848,1.194,0.832,2.042l-0.012,0.035h-1.107c0-0.598-0.176-1.07-0.527-1.418s-0.848-0.521-1.488-0.521
		c-0.645,0-1.158,0.26-1.541,0.779s-0.574,1.163-0.574,1.932v1.528c0,0.776,0.191,1.424,0.574,1.943s0.896,0.779,1.541,0.779
		c0.641,0,1.137-0.173,1.488-0.519s0.527-0.823,0.527-1.433H114.558z"/>
	<path style="fill:#231F20;" d="M117.16,78.971h-1.154v-9.141h1.154V78.971z"/>
	<path style="fill:#231F20;" d="M122.832,78.971c-0.039-0.191-0.069-0.36-0.091-0.507s-0.034-0.294-0.038-0.442
		c-0.215,0.305-0.495,0.56-0.841,0.765s-0.718,0.308-1.116,0.308c-0.66,0-1.163-0.169-1.509-0.507s-0.519-0.804-0.519-1.397
		c0-0.605,0.245-1.079,0.735-1.421s1.155-0.513,1.995-0.513h1.254v-0.627c0-0.371-0.113-0.665-0.34-0.882s-0.547-0.325-0.961-0.325
		c-0.371,0-0.673,0.095-0.905,0.284s-0.349,0.417-0.349,0.683h-1.102l-0.012-0.035c-0.023-0.461,0.194-0.883,0.653-1.266
		s1.052-0.574,1.778-0.574c0.719,0,1.297,0.183,1.734,0.548s0.656,0.892,0.656,1.579v3.053c0,0.227,0.012,0.445,0.035,0.656
		s0.066,0.418,0.129,0.621H122.832z M120.916,78.122c0.418,0,0.795-0.107,1.131-0.321s0.555-0.459,0.656-0.736v-1.028h-1.295
		c-0.465,0-0.837,0.117-1.116,0.351s-0.419,0.508-0.419,0.824c0,0.281,0.088,0.502,0.264,0.667
		C120.312,78.04,120.572,78.122,120.916,78.122z"/>
	<path style="fill:#231F20;" d="M129.218,77.284c0-0.254-0.097-0.463-0.29-0.627s-0.56-0.307-1.099-0.428
		c-0.77-0.168-1.349-0.395-1.737-0.682s-0.583-0.678-0.583-1.173c0-0.515,0.219-0.954,0.656-1.316s1.008-0.544,1.711-0.544
		c0.738,0,1.325,0.189,1.761,0.568s0.644,0.84,0.624,1.383L130.25,74.5h-1.102c0-0.277-0.116-0.526-0.349-0.747
		s-0.54-0.331-0.923-0.331c-0.41,0-0.715,0.09-0.914,0.27s-0.299,0.396-0.299,0.65c0,0.25,0.088,0.447,0.264,0.592
		s0.533,0.273,1.072,0.387c0.801,0.172,1.396,0.405,1.787,0.7s0.586,0.69,0.586,1.187c0,0.562-0.228,1.018-0.683,1.365
		s-1.05,0.521-1.784,0.521c-0.809,0-1.445-0.205-1.91-0.615s-0.686-0.889-0.662-1.436l0.012-0.035h1.102
		c0.02,0.408,0.172,0.707,0.457,0.895s0.619,0.283,1.002,0.283c0.41,0,0.731-0.083,0.964-0.249S129.218,77.553,129.218,77.284z"/>
	<path style="fill:#231F20;" d="M135.494,77.284c0-0.254-0.097-0.463-0.29-0.627s-0.56-0.307-1.099-0.428
		c-0.77-0.168-1.349-0.395-1.737-0.682s-0.583-0.678-0.583-1.173c0-0.515,0.219-0.954,0.656-1.316s1.008-0.544,1.711-0.544
		c0.738,0,1.325,0.189,1.761,0.568s0.644,0.84,0.624,1.383l-0.012,0.035h-1.102c0-0.277-0.116-0.526-0.349-0.747
		s-0.54-0.331-0.923-0.331c-0.41,0-0.715,0.09-0.914,0.27s-0.299,0.396-0.299,0.65c0,0.25,0.088,0.447,0.264,0.592
		s0.533,0.273,1.072,0.387c0.801,0.172,1.396,0.405,1.787,0.7s0.586,0.69,0.586,1.187c0,0.562-0.228,1.018-0.683,1.365
		s-1.05,0.521-1.784,0.521c-0.809,0-1.445-0.205-1.91-0.615s-0.686-0.889-0.662-1.436l0.012-0.035h1.102
		c0.02,0.408,0.172,0.707,0.457,0.895s0.619,0.283,1.002,0.283c0.41,0,0.731-0.083,0.964-0.249S135.494,77.553,135.494,77.284z"/>
	<path style="fill:#231F20;" d="M142.501,78.971h-1.16V70.44h1.16V78.971z"/>
	<path style="fill:#231F20;" d="M145.894,78.971h-1.16V70.44h1.16V78.971z"/>
	<path style="fill:#231F20;" d="M149.287,78.971h-1.16V70.44h1.16V78.971z"/>
	<path style="fill:#231F20;" d="M155.597,75.274v3.697h-1.154v-8.525h3.088c0.934,0,1.646,0.207,2.139,0.621
		s0.738,1.016,0.738,1.805c0,0.438-0.114,0.818-0.343,1.143s-0.562,0.582-0.999,0.773c0.469,0.152,0.806,0.399,1.011,0.741
		s0.308,0.765,0.308,1.269V77.6c0,0.266,0.029,0.504,0.088,0.715s0.16,0.383,0.305,0.516v0.141h-1.189
		c-0.152-0.133-0.25-0.328-0.293-0.586s-0.064-0.523-0.064-0.797v-0.779c0-0.461-0.135-0.832-0.404-1.113s-0.631-0.422-1.084-0.422
		H155.597z M155.597,74.366h1.816c0.652,0,1.122-0.124,1.409-0.371c0.287-0.248,0.431-0.625,0.431-1.132
		c0-0.479-0.14-0.851-0.419-1.114c-0.279-0.263-0.714-0.395-1.304-0.395h-1.934V74.366z"/>
	<path style="fill:#231F20;" d="M166.203,78.034c-0.199,0.34-0.455,0.602-0.768,0.785s-0.674,0.275-1.084,0.275
		c-0.691,0-1.23-0.221-1.617-0.662s-0.58-1.129-0.58-2.062v-3.738h1.154v3.75c0,0.676,0.1,1.141,0.299,1.395s0.51,0.381,0.932,0.381
		c0.41,0,0.749-0.083,1.017-0.249s0.47-0.401,0.606-0.706v-4.57h1.154v6.34h-1.037L166.203,78.034z"/>
	<path style="fill:#231F20;" d="M171.998,73.651l-0.592-0.035c-0.305,0-0.562,0.072-0.771,0.217s-0.37,0.348-0.483,0.609v4.529
		h-1.154v-6.34h1.031l0.111,0.926c0.18-0.328,0.401-0.584,0.665-0.768s0.567-0.275,0.911-0.275c0.086,0,0.168,0.007,0.246,0.021
		s0.143,0.028,0.193,0.044L171.998,73.651z"/>
	<path style="fill:#231F20;" d="M177.007,78.971c-0.039-0.191-0.069-0.36-0.091-0.507s-0.034-0.294-0.038-0.442
		c-0.215,0.305-0.495,0.56-0.841,0.765s-0.718,0.308-1.116,0.308c-0.66,0-1.163-0.169-1.509-0.507s-0.519-0.804-0.519-1.397
		c0-0.605,0.245-1.079,0.735-1.421s1.155-0.513,1.995-0.513h1.254v-0.627c0-0.371-0.113-0.665-0.34-0.882s-0.547-0.325-0.961-0.325
		c-0.371,0-0.673,0.095-0.905,0.284s-0.349,0.417-0.349,0.683h-1.102l-0.012-0.035c-0.023-0.461,0.194-0.883,0.653-1.266
		s1.052-0.574,1.778-0.574c0.719,0,1.297,0.183,1.734,0.548s0.656,0.892,0.656,1.579v3.053c0,0.227,0.012,0.445,0.035,0.656
		s0.066,0.418,0.129,0.621H177.007z M175.091,78.122c0.418,0,0.795-0.107,1.131-0.321s0.555-0.459,0.656-0.736v-1.028h-1.295
		c-0.465,0-0.837,0.117-1.116,0.351s-0.419,0.508-0.419,0.824c0,0.281,0.088,0.502,0.264,0.667
		C174.488,78.04,174.748,78.122,175.091,78.122z"/>
	<path style="fill:#231F20;" d="M180.957,78.971h-1.154v-9.141h1.154V78.971z"/>
	<path style="fill:#231F20;" d="M185.931,78.971V70.44h2.783c0.891,0,1.588,0.192,2.092,0.577s0.756,0.962,0.756,1.731
		c0,0.379-0.121,0.718-0.363,1.017s-0.561,0.521-0.955,0.665c0.516,0.109,0.921,0.361,1.216,0.756s0.442,0.854,0.442,1.377
		c0,0.781-0.253,1.378-0.759,1.79s-1.192,0.618-2.06,0.618H185.931z M187.085,74.067h1.869c0.43,0,0.779-0.118,1.049-0.354
		s0.404-0.565,0.404-0.987c0-0.461-0.146-0.806-0.437-1.034s-0.71-0.343-1.257-0.343h-1.629V74.067z M187.085,74.975v3.088h1.998
		c0.523,0,0.932-0.129,1.225-0.388s0.439-0.625,0.439-1.1c0-0.498-0.122-0.889-0.366-1.173s-0.62-0.426-1.128-0.426H187.085z"/>
	<path style="fill:#231F20;" d="M194.632,71.008h-1.154v-1.178h1.154V71.008z M194.632,78.971h-1.154v-6.34h1.154V78.971z"/>
	<path style="fill:#231F20;" d="M198.318,76.036h-0.75v2.936h-1.154v-9.141h1.154v5.297h0.738l1.734-2.496h1.383l-2.168,2.878
		l2.479,3.462h-1.359L198.318,76.036z"/>
	<path style="fill:#231F20;" d="M205.074,79.094c-0.883,0-1.585-0.294-2.106-0.882s-0.782-1.351-0.782-2.288v-0.258
		c0-0.902,0.269-1.653,0.806-2.253s1.173-0.899,1.907-0.899c0.855,0,1.502,0.258,1.939,0.773s0.656,1.203,0.656,2.062v0.721h-4.113
		l-0.018,0.029c0.012,0.607,0.166,1.107,0.463,1.499c0.297,0.392,0.713,0.587,1.248,0.587c0.391,0,0.733-0.056,1.028-0.167
		s0.55-0.265,0.765-0.46l0.451,0.751c-0.227,0.224-0.525,0.411-0.896,0.56S205.601,79.094,205.074,79.094z M204.898,73.422
		c-0.387,0-0.717,0.163-0.99,0.488c-0.273,0.325-0.441,0.733-0.504,1.223l0.012,0.029h2.924v-0.152c0-0.452-0.121-0.829-0.363-1.133
		S205.375,73.422,204.898,73.422z"/>
	<path style="fill:#231F20;" d="M213.142,75.274v3.697h-1.154v-8.525h3.088c0.934,0,1.646,0.207,2.139,0.621
		s0.738,1.016,0.738,1.805c0,0.438-0.114,0.818-0.343,1.143s-0.562,0.582-0.999,0.773c0.469,0.152,0.806,0.399,1.011,0.741
		s0.308,0.765,0.308,1.269V77.6c0,0.266,0.029,0.504,0.088,0.715s0.16,0.383,0.305,0.516v0.141h-1.189
		c-0.152-0.133-0.25-0.328-0.293-0.586s-0.064-0.523-0.064-0.797v-0.779c0-0.461-0.135-0.832-0.404-1.113s-0.631-0.422-1.084-0.422
		H213.142z M213.142,74.366h1.816c0.652,0,1.122-0.124,1.409-0.371c0.287-0.248,0.431-0.625,0.431-1.132
		c0-0.479-0.14-0.851-0.419-1.114c-0.279-0.263-0.714-0.395-1.304-0.395h-1.934V74.366z"/>
	<path style="fill:#231F20;" d="M219.453,75.743c0-0.938,0.254-1.71,0.762-2.317s1.197-0.911,2.068-0.911
		c0.879,0,1.573,0.303,2.083,0.908s0.765,1.379,0.765,2.32v0.129c0,0.945-0.254,1.719-0.762,2.32s-1.199,0.902-2.074,0.902
		s-1.567-0.302-2.077-0.905s-0.765-1.376-0.765-2.317V75.743z M220.607,75.869c0,0.671,0.142,1.225,0.425,1.662
		s0.704,0.655,1.263,0.655c0.551,0,0.969-0.218,1.254-0.655s0.428-0.991,0.428-1.662V75.74c0-0.663-0.144-1.215-0.431-1.656
		c-0.287-0.44-0.708-0.661-1.263-0.661c-0.551,0-0.968,0.221-1.251,0.661c-0.283,0.441-0.425,0.993-0.425,1.656V75.869z"/>
	<path style="fill:#231F20;" d="M230.568,78.034c-0.199,0.34-0.455,0.602-0.768,0.785s-0.674,0.275-1.084,0.275
		c-0.691,0-1.23-0.221-1.617-0.662s-0.58-1.129-0.58-2.062v-3.738h1.154v3.75c0,0.676,0.1,1.141,0.299,1.395s0.51,0.381,0.932,0.381
		c0.41,0,0.749-0.083,1.017-0.249s0.47-0.401,0.606-0.706v-4.57h1.154v6.34h-1.037L230.568,78.034z"/>
	<path style="fill:#231F20;" d="M234.886,71.102v1.529h1.201v0.855h-1.201v3.85c0,0.297,0.062,0.506,0.185,0.627
		s0.286,0.182,0.489,0.182c0.066,0,0.14-0.008,0.22-0.023s0.151-0.035,0.214-0.059l0.152,0.791c-0.086,0.07-0.212,0.128-0.378,0.173
		s-0.333,0.067-0.501,0.067c-0.469,0-0.842-0.142-1.119-0.425s-0.416-0.728-0.416-1.333v-3.85h-1.008v-0.855h1.008v-1.529H234.886z"
		/>
	<path style="fill:#231F20;" d="M240.142,79.094c-0.883,0-1.585-0.294-2.106-0.882s-0.782-1.351-0.782-2.288v-0.258
		c0-0.902,0.269-1.653,0.806-2.253s1.173-0.899,1.907-0.899c0.855,0,1.502,0.258,1.939,0.773s0.656,1.203,0.656,2.062v0.721h-4.113
		l-0.018,0.029c0.012,0.607,0.166,1.107,0.463,1.499c0.297,0.392,0.713,0.587,1.248,0.587c0.391,0,0.733-0.056,1.028-0.167
		s0.55-0.265,0.765-0.46l0.451,0.751c-0.227,0.224-0.525,0.411-0.896,0.56S240.669,79.094,240.142,79.094z M239.966,73.422
		c-0.387,0-0.717,0.163-0.99,0.488c-0.273,0.325-0.441,0.733-0.504,1.223l0.012,0.029h2.924v-0.152c0-0.452-0.121-0.829-0.363-1.133
		S240.443,73.422,239.966,73.422z"/>
	<path style="fill:#231F20;" d="M114.558,90.635l0.012,0.035c0.016,0.801-0.266,1.472-0.844,2.013s-1.342,0.812-2.291,0.812
		c-0.965,0-1.751-0.342-2.358-1.025s-0.911-1.551-0.911-2.602V88.35c0-1.051,0.304-1.919,0.911-2.604s1.394-1.028,2.358-1.028
		s1.732,0.257,2.303,0.771s0.848,1.194,0.832,2.042l-0.012,0.035h-1.107c0-0.598-0.176-1.07-0.527-1.418s-0.848-0.521-1.488-0.521
		c-0.645,0-1.158,0.26-1.541,0.779s-0.574,1.163-0.574,1.932v1.528c0,0.776,0.191,1.424,0.574,1.943s0.896,0.779,1.541,0.779
		c0.641,0,1.137-0.173,1.488-0.519s0.527-0.823,0.527-1.433H114.558z"/>
	<path style="fill:#231F20;" d="M117.16,93.371h-1.154V84.23h1.154V93.371z"/>
	<path style="fill:#231F20;" d="M122.832,93.371c-0.039-0.191-0.069-0.36-0.091-0.507s-0.034-0.294-0.038-0.442
		c-0.215,0.305-0.495,0.56-0.841,0.765s-0.718,0.308-1.116,0.308c-0.66,0-1.163-0.169-1.509-0.507s-0.519-0.804-0.519-1.397
		c0-0.605,0.245-1.079,0.735-1.421s1.155-0.513,1.995-0.513h1.254v-0.627c0-0.371-0.113-0.665-0.34-0.882s-0.547-0.325-0.961-0.325
		c-0.371,0-0.673,0.095-0.905,0.284s-0.349,0.417-0.349,0.683h-1.102l-0.012-0.035c-0.023-0.461,0.194-0.883,0.653-1.266
		s1.052-0.574,1.778-0.574c0.719,0,1.297,0.183,1.734,0.548s0.656,0.892,0.656,1.579v3.053c0,0.227,0.012,0.445,0.035,0.656
		s0.066,0.418,0.129,0.621H122.832z M120.916,92.521c0.418,0,0.795-0.107,1.131-0.321s0.555-0.459,0.656-0.736v-1.028h-1.295
		c-0.465,0-0.837,0.117-1.116,0.351s-0.419,0.508-0.419,0.824c0,0.281,0.088,0.502,0.264,0.667
		C120.312,92.44,120.572,92.521,120.916,92.521z"/>
	<path style="fill:#231F20;" d="M129.218,91.684c0-0.254-0.097-0.463-0.29-0.627s-0.56-0.307-1.099-0.428
		c-0.77-0.168-1.349-0.395-1.737-0.682s-0.583-0.678-0.583-1.173c0-0.515,0.219-0.954,0.656-1.316s1.008-0.544,1.711-0.544
		c0.738,0,1.325,0.189,1.761,0.568s0.644,0.84,0.624,1.383L130.25,88.9h-1.102c0-0.277-0.116-0.526-0.349-0.747
		s-0.54-0.331-0.923-0.331c-0.41,0-0.715,0.09-0.914,0.27s-0.299,0.396-0.299,0.65c0,0.25,0.088,0.447,0.264,0.592
		s0.533,0.273,1.072,0.387c0.801,0.172,1.396,0.405,1.787,0.7s0.586,0.69,0.586,1.187c0,0.562-0.228,1.018-0.683,1.365
		s-1.05,0.521-1.784,0.521c-0.809,0-1.445-0.205-1.91-0.615s-0.686-0.889-0.662-1.436l0.012-0.035h1.102
		c0.02,0.408,0.172,0.707,0.457,0.895s0.619,0.283,1.002,0.283c0.41,0,0.731-0.083,0.964-0.249S129.218,91.953,129.218,91.684z"/>
	<path style="fill:#231F20;" d="M135.494,91.684c0-0.254-0.097-0.463-0.29-0.627s-0.56-0.307-1.099-0.428
		c-0.77-0.168-1.349-0.395-1.737-0.682s-0.583-0.678-0.583-1.173c0-0.515,0.219-0.954,0.656-1.316s1.008-0.544,1.711-0.544
		c0.738,0,1.325,0.189,1.761,0.568s0.644,0.84,0.624,1.383l-0.012,0.035h-1.102c0-0.277-0.116-0.526-0.349-0.747
		s-0.54-0.331-0.923-0.331c-0.41,0-0.715,0.09-0.914,0.27s-0.299,0.396-0.299,0.65c0,0.25,0.088,0.447,0.264,0.592
		s0.533,0.273,1.072,0.387c0.801,0.172,1.396,0.405,1.787,0.7s0.586,0.69,0.586,1.187c0,0.562-0.228,1.018-0.683,1.365
		s-1.05,0.521-1.784,0.521c-0.809,0-1.445-0.205-1.91-0.615s-0.686-0.889-0.662-1.436l0.012-0.035h1.102
		c0.02,0.408,0.172,0.707,0.457,0.895s0.619,0.283,1.002,0.283c0.41,0,0.731-0.083,0.964-0.249S135.494,91.953,135.494,91.684z"/>
	<path style="fill:#231F20;" d="M142.501,93.371h-1.16V84.84h1.16V93.371z"/>
	<path style="fill:#231F20;" d="M147.207,91.25l0.193,0.674h0.035l0.193-0.674l2.203-6.41h1.248l-3.17,8.531h-0.99l-3.17-8.531
		h1.254L147.207,91.25z"/>
	<path style="fill:#231F20;" d="M159.892,91.223c0-0.388-0.146-0.713-0.439-0.976s-0.812-0.482-1.559-0.661
		c-0.902-0.215-1.606-0.532-2.112-0.952c-0.506-0.419-0.759-0.945-0.759-1.58c0-0.666,0.272-1.221,0.817-1.668
		c0.545-0.446,1.251-0.669,2.118-0.669c0.934,0,1.677,0.256,2.229,0.768s0.819,1.105,0.8,1.781l-0.012,0.035h-1.102
		c0-0.5-0.165-0.904-0.495-1.213s-0.804-0.463-1.421-0.463c-0.574,0-1.015,0.13-1.321,0.39s-0.46,0.599-0.46,1.017
		c0,0.371,0.166,0.681,0.498,0.929s0.871,0.466,1.617,0.653c0.898,0.223,1.582,0.551,2.051,0.984s0.703,0.971,0.703,1.611
		c0,0.688-0.281,1.24-0.844,1.658s-1.297,0.627-2.203,0.627c-0.852,0-1.604-0.231-2.259-0.694s-0.972-1.081-0.952-1.854l0.012-0.035
		h1.102c0,0.547,0.201,0.963,0.604,1.248s0.9,0.428,1.494,0.428c0.582,0,1.043-0.122,1.383-0.367
		C159.722,91.975,159.892,91.642,159.892,91.223z"/>
	<path style="fill:#231F20;" d="M165.142,93.494c-0.883,0-1.585-0.294-2.106-0.882s-0.782-1.351-0.782-2.288v-0.258
		c0-0.902,0.269-1.653,0.806-2.253s1.173-0.899,1.907-0.899c0.855,0,1.502,0.258,1.939,0.773s0.656,1.203,0.656,2.062v0.721h-4.113
		l-0.018,0.029c0.012,0.607,0.166,1.107,0.463,1.499c0.297,0.392,0.713,0.587,1.248,0.587c0.391,0,0.733-0.056,1.028-0.167
		s0.55-0.265,0.765-0.46l0.451,0.751c-0.227,0.224-0.525,0.411-0.896,0.56S165.669,93.494,165.142,93.494z M164.966,87.822
		c-0.387,0-0.717,0.163-0.99,0.488c-0.273,0.325-0.441,0.733-0.504,1.223l0.012,0.029h2.924v-0.152c0-0.452-0.121-0.829-0.363-1.133
		S165.443,87.822,164.966,87.822z"/>
	<path style="fill:#231F20;" d="M174.259,90.441c0,0.914-0.219,1.651-0.656,2.212s-1.041,0.841-1.811,0.841
		c-0.391,0-0.733-0.065-1.028-0.196s-0.546-0.327-0.753-0.589v3.1h-1.154v-8.777h0.885l0.182,0.82
		c0.207-0.305,0.465-0.537,0.773-0.697s0.668-0.24,1.078-0.24c0.785,0,1.396,0.312,1.831,0.935s0.653,1.446,0.653,2.47V90.441z
		 M173.105,90.315c0-0.718-0.142-1.308-0.425-1.771s-0.7-0.693-1.251-0.693c-0.332,0-0.615,0.075-0.85,0.225
		c-0.234,0.15-0.424,0.356-0.568,0.618v3.061c0.145,0.262,0.334,0.465,0.568,0.612c0.234,0.146,0.521,0.219,0.861,0.219
		c0.547,0,0.961-0.2,1.242-0.6c0.281-0.4,0.422-0.916,0.422-1.548V90.315z"/>
	<path style="fill:#231F20;" d="M179.574,93.371c-0.039-0.191-0.069-0.36-0.091-0.507s-0.034-0.294-0.038-0.442
		c-0.215,0.305-0.495,0.56-0.841,0.765s-0.718,0.308-1.116,0.308c-0.66,0-1.163-0.169-1.509-0.507s-0.519-0.804-0.519-1.397
		c0-0.605,0.245-1.079,0.735-1.421s1.155-0.513,1.995-0.513h1.254v-0.627c0-0.371-0.113-0.665-0.34-0.882s-0.547-0.325-0.961-0.325
		c-0.371,0-0.673,0.095-0.905,0.284s-0.349,0.417-0.349,0.683h-1.102l-0.012-0.035c-0.023-0.461,0.194-0.883,0.653-1.266
		s1.052-0.574,1.778-0.574c0.719,0,1.297,0.183,1.734,0.548s0.656,0.892,0.656,1.579v3.053c0,0.227,0.012,0.445,0.035,0.656
		s0.066,0.418,0.129,0.621H179.574z M177.658,92.521c0.418,0,0.795-0.107,1.131-0.321s0.555-0.459,0.656-0.736v-1.028h-1.295
		c-0.465,0-0.837,0.117-1.116,0.351s-0.419,0.508-0.419,0.824c0,0.281,0.088,0.502,0.264,0.667
		C177.054,92.44,177.314,92.521,177.658,92.521z"/>
	<path style="fill:#231F20;" d="M185.275,88.051l-0.592-0.035c-0.305,0-0.562,0.072-0.771,0.217s-0.37,0.348-0.483,0.609v4.529
		h-1.154v-6.34h1.031l0.111,0.926c0.18-0.328,0.401-0.584,0.665-0.768s0.567-0.275,0.911-0.275c0.086,0,0.168,0.007,0.246,0.021
		s0.143,0.028,0.193,0.044L185.275,88.051z"/>
	<path style="fill:#231F20;" d="M190.285,93.371c-0.039-0.191-0.069-0.36-0.091-0.507s-0.034-0.294-0.038-0.442
		c-0.215,0.305-0.495,0.56-0.841,0.765s-0.718,0.308-1.116,0.308c-0.66,0-1.163-0.169-1.509-0.507s-0.519-0.804-0.519-1.397
		c0-0.605,0.245-1.079,0.735-1.421s1.155-0.513,1.995-0.513h1.254v-0.627c0-0.371-0.113-0.665-0.34-0.882s-0.547-0.325-0.961-0.325
		c-0.371,0-0.673,0.095-0.905,0.284s-0.349,0.417-0.349,0.683H186.5l-0.012-0.035c-0.023-0.461,0.194-0.883,0.653-1.266
		s1.052-0.574,1.778-0.574c0.719,0,1.297,0.183,1.734,0.548s0.656,0.892,0.656,1.579v3.053c0,0.227,0.012,0.445,0.035,0.656
		s0.066,0.418,0.129,0.621H190.285z M188.369,92.521c0.418,0,0.795-0.107,1.131-0.321s0.555-0.459,0.656-0.736v-1.028h-1.295
		c-0.465,0-0.837,0.117-1.116,0.351s-0.419,0.508-0.419,0.824c0,0.281,0.088,0.502,0.264,0.667
		C187.765,92.44,188.025,92.521,188.369,92.521z"/>
	<path style="fill:#231F20;" d="M194.509,85.502v1.529h1.201v0.855h-1.201v3.85c0,0.297,0.062,0.506,0.185,0.627
		s0.286,0.182,0.489,0.182c0.066,0,0.14-0.008,0.22-0.023s0.151-0.035,0.214-0.059l0.152,0.791c-0.086,0.07-0.212,0.128-0.378,0.173
		s-0.333,0.067-0.501,0.067c-0.469,0-0.842-0.142-1.119-0.425s-0.416-0.728-0.416-1.333v-3.85h-1.008v-0.855h1.008v-1.529H194.509z"
		/>
	<path style="fill:#231F20;" d="M199.765,93.494c-0.883,0-1.585-0.294-2.106-0.882s-0.782-1.351-0.782-2.288v-0.258
		c0-0.902,0.269-1.653,0.806-2.253s1.173-0.899,1.907-0.899c0.855,0,1.502,0.258,1.939,0.773s0.656,1.203,0.656,2.062v0.721h-4.113
		l-0.018,0.029c0.012,0.607,0.166,1.107,0.463,1.499c0.297,0.392,0.713,0.587,1.248,0.587c0.391,0,0.733-0.056,1.028-0.167
		s0.55-0.265,0.765-0.46l0.451,0.751c-0.227,0.224-0.525,0.411-0.896,0.56S200.292,93.494,199.765,93.494z M199.589,87.822
		c-0.387,0-0.717,0.163-0.99,0.488c-0.273,0.325-0.441,0.733-0.504,1.223l0.012,0.029h2.924v-0.152c0-0.452-0.121-0.829-0.363-1.133
		S200.066,87.822,199.589,87.822z"/>
	<path style="fill:#231F20;" d="M203.216,90.318c0-1.02,0.218-1.842,0.653-2.467s1.046-0.938,1.831-0.938
		c0.371,0,0.7,0.068,0.987,0.205s0.532,0.336,0.735,0.598V84.23h1.154v9.141h-0.943l-0.135-0.779
		c-0.207,0.297-0.461,0.521-0.762,0.674s-0.65,0.229-1.049,0.229c-0.773,0-1.379-0.28-1.816-0.841s-0.656-1.298-0.656-2.212V90.318z
		 M204.371,90.441c0,0.641,0.131,1.153,0.393,1.538s0.668,0.577,1.219,0.577c0.344,0,0.633-0.078,0.867-0.234
		s0.426-0.375,0.574-0.656v-2.959c-0.148-0.262-0.341-0.47-0.577-0.624s-0.521-0.231-0.853-0.231c-0.555,0-0.964,0.229-1.228,0.686
		s-0.396,1.051-0.396,1.781V90.441z"/>
	<path style="fill:#231F20;" d="M213.5,93.371V84.84h2.783c0.891,0,1.588,0.192,2.092,0.577s0.756,0.962,0.756,1.731
		c0,0.379-0.121,0.718-0.363,1.017s-0.561,0.521-0.955,0.665c0.516,0.109,0.921,0.361,1.216,0.756s0.442,0.854,0.442,1.377
		c0,0.781-0.253,1.378-0.759,1.79s-1.192,0.618-2.06,0.618H213.5z M214.654,88.467h1.869c0.43,0,0.779-0.118,1.049-0.354
		s0.404-0.565,0.404-0.987c0-0.461-0.146-0.806-0.437-1.034s-0.71-0.343-1.257-0.343h-1.629V88.467z M214.654,89.375v3.088h1.998
		c0.523,0,0.932-0.129,1.225-0.388s0.439-0.625,0.439-1.1c0-0.498-0.122-0.889-0.366-1.173s-0.62-0.426-1.128-0.426H214.654z"/>
	<path style="fill:#231F20;" d="M222.201,85.408h-1.154V84.23h1.154V85.408z M222.201,93.371h-1.154v-6.34h1.154V93.371z"/>
	<path style="fill:#231F20;" d="M225.886,90.436h-0.75v2.936h-1.154V84.23h1.154v5.297h0.738l1.734-2.496h1.383l-2.168,2.878
		l2.479,3.462h-1.359L225.886,90.436z"/>
	<path style="fill:#231F20;" d="M232.642,93.494c-0.883,0-1.585-0.294-2.106-0.882s-0.782-1.351-0.782-2.288v-0.258
		c0-0.902,0.269-1.653,0.806-2.253s1.173-0.899,1.907-0.899c0.855,0,1.502,0.258,1.939,0.773s0.656,1.203,0.656,2.062v0.721h-4.113
		l-0.018,0.029c0.012,0.607,0.166,1.107,0.463,1.499c0.297,0.392,0.713,0.587,1.248,0.587c0.391,0,0.733-0.056,1.028-0.167
		s0.55-0.265,0.765-0.46l0.451,0.751c-0.227,0.224-0.525,0.411-0.896,0.56S233.169,93.494,232.642,93.494z M232.466,87.822
		c-0.387,0-0.717,0.163-0.99,0.488c-0.273,0.325-0.441,0.733-0.504,1.223l0.012,0.029h2.924v-0.152c0-0.452-0.121-0.829-0.363-1.133
		S232.943,87.822,232.466,87.822z"/>
	<path style="fill:#231F20;" d="M240.71,92.463h4.037v0.908h-5.191V84.84h1.154V92.463z"/>
	<path style="fill:#231F20;" d="M249.716,93.371c-0.039-0.191-0.069-0.36-0.091-0.507s-0.034-0.294-0.038-0.442
		c-0.215,0.305-0.495,0.56-0.841,0.765s-0.718,0.308-1.116,0.308c-0.66,0-1.163-0.169-1.509-0.507s-0.519-0.804-0.519-1.397
		c0-0.605,0.245-1.079,0.735-1.421s1.155-0.513,1.995-0.513h1.254v-0.627c0-0.371-0.113-0.665-0.34-0.882s-0.547-0.325-0.961-0.325
		c-0.371,0-0.673,0.095-0.905,0.284s-0.349,0.417-0.349,0.683h-1.102l-0.012-0.035c-0.023-0.461,0.194-0.883,0.653-1.266
		s1.052-0.574,1.778-0.574c0.719,0,1.297,0.183,1.734,0.548s0.656,0.892,0.656,1.579v3.053c0,0.227,0.012,0.445,0.035,0.656
		s0.066,0.418,0.129,0.621H249.716z M247.8,92.521c0.418,0,0.795-0.107,1.131-0.321s0.555-0.459,0.656-0.736v-1.028h-1.295
		c-0.465,0-0.837,0.117-1.116,0.351s-0.419,0.508-0.419,0.824c0,0.281,0.088,0.502,0.264,0.667
		C247.197,92.44,247.457,92.521,247.8,92.521z"/>
	<path style="fill:#231F20;" d="M253.449,87.031l0.082,0.943c0.211-0.336,0.476-0.597,0.794-0.782s0.681-0.278,1.087-0.278
		c0.684,0,1.213,0.2,1.588,0.601s0.562,1.019,0.562,1.854v4.002h-1.154v-3.979c0-0.559-0.11-0.955-0.331-1.189
		s-0.558-0.352-1.011-0.352c-0.332,0-0.626,0.08-0.882,0.24s-0.46,0.379-0.612,0.656v4.623h-1.154v-6.34H253.449z"/>
	<path style="fill:#231F20;" d="M261.869,93.494c-0.883,0-1.585-0.294-2.106-0.882s-0.782-1.351-0.782-2.288v-0.258
		c0-0.902,0.269-1.653,0.806-2.253s1.173-0.899,1.907-0.899c0.855,0,1.502,0.258,1.939,0.773s0.656,1.203,0.656,2.062v0.721h-4.113
		l-0.018,0.029c0.012,0.607,0.166,1.107,0.463,1.499c0.297,0.392,0.713,0.587,1.248,0.587c0.391,0,0.733-0.056,1.028-0.167
		s0.55-0.265,0.765-0.46l0.451,0.751c-0.227,0.224-0.525,0.411-0.896,0.56S262.396,93.494,261.869,93.494z M261.693,87.822
		c-0.387,0-0.717,0.163-0.99,0.488c-0.273,0.325-0.441,0.733-0.504,1.223l0.012,0.029h2.924v-0.152c0-0.452-0.121-0.829-0.363-1.133
		S262.169,87.822,261.693,87.822z"/>
	<path style="fill:#231F20;" d="M114.558,105.035l0.012,0.035c0.016,0.801-0.266,1.472-0.844,2.013s-1.342,0.812-2.291,0.812
		c-0.965,0-1.751-0.342-2.358-1.025s-0.911-1.551-0.911-2.602v-1.518c0-1.051,0.304-1.919,0.911-2.604s1.394-1.028,2.358-1.028
		s1.732,0.257,2.303,0.771s0.848,1.194,0.832,2.042l-0.012,0.035h-1.107c0-0.598-0.176-1.07-0.527-1.418s-0.848-0.521-1.488-0.521
		c-0.645,0-1.158,0.26-1.541,0.779s-0.574,1.163-0.574,1.932v1.528c0,0.776,0.191,1.424,0.574,1.943s0.896,0.779,1.541,0.779
		c0.641,0,1.137-0.173,1.488-0.519s0.527-0.823,0.527-1.433H114.558z"/>
	<path style="fill:#231F20;" d="M115.642,104.542c0-0.938,0.254-1.71,0.762-2.317s1.197-0.911,2.068-0.911
		c0.879,0,1.573,0.303,2.083,0.908s0.765,1.379,0.765,2.32v0.129c0,0.945-0.254,1.719-0.762,2.32s-1.199,0.902-2.074,0.902
		s-1.567-0.302-2.077-0.905s-0.765-1.376-0.765-2.317V104.542z M116.796,104.668c0,0.671,0.142,1.225,0.425,1.662
		s0.704,0.655,1.263,0.655c0.551,0,0.969-0.218,1.254-0.655s0.428-0.991,0.428-1.662v-0.129c0-0.663-0.144-1.215-0.431-1.656
		c-0.287-0.44-0.708-0.661-1.263-0.661c-0.551,0-0.968,0.221-1.251,0.661c-0.283,0.441-0.425,0.993-0.425,1.656V104.668z"/>
	<path style="fill:#231F20;" d="M125.732,102.451l-0.592-0.035c-0.305,0-0.562,0.072-0.771,0.217s-0.37,0.348-0.483,0.609v4.529
		h-1.154v-6.34h1.031l0.111,0.926c0.18-0.328,0.401-0.584,0.665-0.768s0.567-0.275,0.911-0.275c0.086,0,0.168,0.007,0.246,0.021
		s0.143,0.028,0.193,0.044L125.732,102.451z"/>
	<path style="fill:#231F20;" d="M129.845,102.451l-0.592-0.035c-0.305,0-0.562,0.072-0.771,0.217s-0.37,0.348-0.483,0.609v4.529
		h-1.154v-6.34h1.031l0.111,0.926c0.18-0.328,0.401-0.584,0.665-0.768s0.567-0.275,0.911-0.275c0.086,0,0.168,0.007,0.246,0.021
		s0.143,0.028,0.193,0.044L129.845,102.451z"/>
	<path style="fill:#231F20;" d="M132.207,99.808h-1.154V98.63h1.154V99.808z M132.207,107.771h-1.154v-6.34h1.154V107.771z"/>
	<path style="fill:#231F20;" d="M133.718,104.718c0-1.02,0.218-1.842,0.653-2.467s1.046-0.938,1.831-0.938
		c0.371,0,0.7,0.068,0.987,0.205s0.532,0.336,0.735,0.598V98.63h1.154v9.141h-0.943l-0.135-0.779
		c-0.207,0.297-0.461,0.521-0.762,0.674s-0.65,0.229-1.049,0.229c-0.773,0-1.379-0.28-1.816-0.841s-0.656-1.298-0.656-2.212V104.718
		z M134.873,104.841c0,0.641,0.131,1.153,0.393,1.538s0.668,0.577,1.219,0.577c0.344,0,0.633-0.078,0.867-0.234
		s0.426-0.375,0.574-0.656v-2.959c-0.148-0.262-0.341-0.47-0.577-0.624s-0.521-0.231-0.853-0.231c-0.555,0-0.964,0.229-1.228,0.686
		s-0.396,1.051-0.396,1.781V104.841z"/>
	<path style="fill:#231F20;" d="M140.533,104.542c0-0.938,0.254-1.71,0.762-2.317s1.197-0.911,2.068-0.911
		c0.879,0,1.573,0.303,2.083,0.908s0.765,1.379,0.765,2.32v0.129c0,0.945-0.254,1.719-0.762,2.32s-1.199,0.902-2.074,0.902
		s-1.567-0.302-2.077-0.905s-0.765-1.376-0.765-2.317V104.542z M141.687,104.668c0,0.671,0.142,1.225,0.425,1.662
		s0.704,0.655,1.263,0.655c0.551,0,0.969-0.218,1.254-0.655s0.428-0.991,0.428-1.662v-0.129c0-0.663-0.144-1.215-0.431-1.656
		c-0.287-0.44-0.708-0.661-1.263-0.661c-0.551,0-0.968,0.221-1.251,0.661c-0.283,0.441-0.425,0.993-0.425,1.656V104.668z"/>
	<path style="fill:#231F20;" d="M150.623,102.451l-0.592-0.035c-0.305,0-0.562,0.072-0.771,0.217s-0.37,0.348-0.483,0.609v4.529
		h-1.154v-6.34h1.031l0.111,0.926c0.18-0.328,0.401-0.584,0.665-0.768s0.567-0.275,0.911-0.275c0.086,0,0.168,0.007,0.246,0.021
		s0.143,0.028,0.193,0.044L150.623,102.451z"/>
	<path style="fill:#231F20;" d="M159.582,105.623c0-0.388-0.146-0.713-0.439-0.976s-0.812-0.482-1.559-0.661
		c-0.902-0.215-1.606-0.532-2.112-0.952c-0.506-0.419-0.759-0.945-0.759-1.58c0-0.666,0.272-1.221,0.817-1.668
		c0.545-0.446,1.251-0.669,2.118-0.669c0.934,0,1.677,0.256,2.229,0.768s0.819,1.105,0.8,1.781l-0.012,0.035h-1.102
		c0-0.5-0.165-0.904-0.495-1.213s-0.804-0.463-1.421-0.463c-0.574,0-1.015,0.13-1.321,0.39s-0.46,0.599-0.46,1.017
		c0,0.371,0.166,0.681,0.498,0.929s0.871,0.466,1.617,0.653c0.898,0.223,1.582,0.551,2.051,0.984s0.703,0.971,0.703,1.611
		c0,0.688-0.281,1.24-0.844,1.658s-1.297,0.627-2.203,0.627c-0.852,0-1.604-0.231-2.259-0.694s-0.972-1.081-0.952-1.854l0.012-0.035
		h1.102c0,0.547,0.201,0.963,0.604,1.248s0.9,0.428,1.494,0.428c0.582,0,1.043-0.122,1.383-0.367
		C159.412,106.375,159.582,106.042,159.582,105.623z"/>
	<path style="fill:#231F20;" d="M163.724,99.902v1.529h1.201v0.855h-1.201v3.85c0,0.297,0.062,0.506,0.185,0.627
		s0.286,0.182,0.489,0.182c0.066,0,0.14-0.008,0.22-0.023s0.151-0.035,0.214-0.059l0.152,0.791c-0.086,0.07-0.212,0.128-0.378,0.173
		s-0.333,0.067-0.501,0.067c-0.469,0-0.842-0.142-1.119-0.425s-0.416-0.728-0.416-1.333v-3.85h-1.008v-0.855h1.008v-1.529H163.724z"
		/>
	<path style="fill:#231F20;" d="M170.375,106.833c-0.199,0.34-0.455,0.602-0.768,0.785s-0.674,0.275-1.084,0.275
		c-0.691,0-1.23-0.221-1.617-0.662s-0.58-1.129-0.58-2.062v-3.738h1.154v3.75c0,0.676,0.1,1.141,0.299,1.395s0.51,0.381,0.932,0.381
		c0.41,0,0.749-0.083,1.017-0.249s0.47-0.401,0.606-0.706v-4.57h1.154v6.34h-1.037L170.375,106.833z"/>
	<path style="fill:#231F20;" d="M172.906,104.718c0-1.02,0.218-1.842,0.653-2.467s1.046-0.938,1.831-0.938
		c0.371,0,0.7,0.068,0.987,0.205s0.532,0.336,0.735,0.598V98.63h1.154v9.141h-0.943l-0.135-0.779
		c-0.207,0.297-0.461,0.521-0.762,0.674s-0.65,0.229-1.049,0.229c-0.773,0-1.379-0.28-1.816-0.841s-0.656-1.298-0.656-2.212V104.718
		z M174.06,104.841c0,0.641,0.131,1.153,0.393,1.538s0.668,0.577,1.219,0.577c0.344,0,0.633-0.078,0.867-0.234
		s0.426-0.375,0.574-0.656v-2.959c-0.148-0.262-0.341-0.47-0.577-0.624s-0.521-0.231-0.853-0.231c-0.555,0-0.964,0.229-1.228,0.686
		s-0.396,1.051-0.396,1.781V104.841z"/>
	<path style="fill:#231F20;" d="M181.929,105.421l0.205,0.797h0.035l1.559-4.787h1.283l-2.666,7.312
		c-0.16,0.426-0.39,0.797-0.688,1.113s-0.702,0.475-1.21,0.475c-0.094,0-0.213-0.011-0.357-0.032s-0.256-0.042-0.334-0.062
		l0.117-0.908c-0.023-0.004,0.046,0,0.208,0.012s0.265,0.018,0.308,0.018c0.246,0,0.447-0.109,0.604-0.328s0.287-0.461,0.393-0.727
		l0.275-0.662l-2.355-6.211h1.289L181.929,105.421z"/>
</g>
<g>
	<rect x="9.976" y="1.695" style="fill:none;" width="34.284" height="13.794"/>
	<path style="fill:#231F20;" d="M14.907,6.188h-2.695l-0.405,2.026h3.159l-0.22,1.099h-4.565l1.421-7.109h4.556l-0.22,1.099h-3.149
		L12.432,5.09h2.695L14.907,6.188z"/>
	<path style="fill:#231F20;" d="M17.993,5.7l0.029,0.005l0.962-1.675h1.587l-1.88,2.612l1.079,2.671h-1.582L17.739,7.6L17.71,7.595
		l-1.001,1.719h-1.587l1.938-2.671l-1.05-2.612h1.577L17.993,5.7z"/>
	<path style="fill:#231F20;" d="M21.763,9.313h-1.406l1.055-5.283h1.406L21.763,9.313z M23.071,2.766h-1.406l0.215-1.069h1.406
		L23.071,2.766z"/>
	<path style="fill:#231F20;" d="M25.801,7.858c0.026-0.163-0.02-0.299-0.137-0.41s-0.353-0.21-0.708-0.298
		c-0.56-0.127-0.97-0.315-1.23-0.564s-0.355-0.588-0.283-1.018c0.075-0.472,0.316-0.863,0.723-1.172s0.915-0.464,1.523-0.464
		s1.082,0.16,1.418,0.479s0.46,0.716,0.369,1.191l-0.01,0.029h-1.362c0.033-0.218,0.002-0.392-0.09-0.522s-0.253-0.195-0.481-0.195
		c-0.189,0-0.352,0.057-0.488,0.171s-0.218,0.254-0.244,0.42c-0.029,0.166,0.01,0.3,0.117,0.403s0.347,0.194,0.718,0.276
		c0.586,0.13,1.006,0.321,1.26,0.574s0.347,0.6,0.278,1.042c-0.082,0.495-0.334,0.888-0.759,1.179s-0.956,0.437-1.594,0.437
		c-0.635,0-1.122-0.181-1.46-0.542s-0.462-0.765-0.371-1.211l0.01-0.029h1.289c-0.036,0.283,0.012,0.488,0.144,0.615
		s0.323,0.19,0.574,0.19c0.218,0,0.397-0.052,0.537-0.156S25.768,8.038,25.801,7.858z"/>
	<path style="fill:#231F20;" d="M30.728,2.736L30.469,4.03h0.835l-0.2,1.001h-0.835l-0.537,2.69
		c-0.045,0.221-0.039,0.372,0.02,0.452s0.153,0.12,0.283,0.12c0.084,0,0.164-0.004,0.237-0.012s0.15-0.022,0.232-0.042l-0.088,1.03
		c-0.163,0.049-0.321,0.085-0.474,0.11s-0.317,0.037-0.493,0.037c-0.439,0-0.765-0.138-0.977-0.415s-0.26-0.702-0.146-1.274
		l0.537-2.695h-0.703l0.2-1.001h0.703l0.259-1.294H30.728z"/>
	<path style="fill:#231F20;" d="M32.612,9.313h-1.406l1.055-5.283h1.406L32.612,9.313z M33.921,2.766h-1.406l0.215-1.069h1.406
		L33.921,2.766z"/>
	<path style="fill:#231F20;" d="M35.972,4.717c0.211-0.255,0.449-0.449,0.713-0.583C36.948,4,37.227,3.933,37.52,3.933
		c0.465,0,0.811,0.17,1.035,0.51s0.267,0.863,0.127,1.57l-0.659,3.301h-1.411l0.659-3.303c0.075-0.378,0.066-0.636-0.027-0.773
		s-0.272-0.206-0.54-0.206c-0.153,0-0.302,0.039-0.447,0.118c-0.145,0.078-0.277,0.186-0.398,0.323l-0.767,3.842h-1.406l1.055-5.283
		h1.313L35.972,4.717z"/>
	<path style="fill:#231F20;" d="M39.36,6.618c0.179-0.889,0.464-1.559,0.854-2.009s0.897-0.676,1.519-0.676
		c0.257,0,0.488,0.059,0.693,0.177s0.373,0.283,0.503,0.496l0.21-0.575h1.226L43.34,9.157c-0.15,0.742-0.475,1.31-0.977,1.702
		s-1.134,0.588-1.899,0.588c-0.234,0-0.489-0.038-0.764-0.112s-0.519-0.174-0.73-0.298l0.474-1.064
		c0.179,0.104,0.37,0.183,0.571,0.237s0.425,0.081,0.669,0.081c0.316,0,0.584-0.102,0.806-0.307s0.368-0.48,0.439-0.828l0.039-0.209
		c-0.169,0.151-0.351,0.268-0.544,0.348s-0.396,0.121-0.608,0.121c-0.566,0-0.992-0.26-1.277-0.779s-0.351-1.158-0.198-1.917
		L39.36,6.618z M40.747,6.721c-0.101,0.501-0.109,0.892-0.024,1.174s0.285,0.422,0.601,0.422c0.172,0,0.333-0.046,0.481-0.138
		c0.148-0.091,0.281-0.223,0.398-0.393l0.469-2.368c-0.059-0.128-0.148-0.225-0.269-0.29s-0.272-0.098-0.454-0.098
		c-0.29,0-0.536,0.143-0.737,0.43s-0.35,0.672-0.444,1.157L40.747,6.721z"/>
</g>
<g>
	<rect x="54.31" y="1.695" style="fill:none;" width="41.172" height="13.794"/>
	<path style="fill:#231F20;" d="M56.434,6.735l-0.513,2.578h-1.406l1.421-7.109h2.676c0.713,0,1.261,0.212,1.643,0.637
		s0.507,0.969,0.374,1.633c-0.146,0.723-0.475,1.28-0.986,1.672s-1.156,0.588-1.934,0.588H56.434z M56.653,5.637h1.274
		c0.329,0,0.61-0.111,0.845-0.332s0.386-0.495,0.454-0.82c0.072-0.361,0.04-0.648-0.095-0.862s-0.382-0.32-0.74-0.32h-1.27
		L56.653,5.637z"/>
	<path style="fill:#231F20;" d="M64.031,5.29L63.47,5.275c-0.172,0-0.326,0.042-0.461,0.125s-0.25,0.201-0.344,0.354l-0.713,3.56
		H60.55l1.055-5.283h1.309l-0.078,0.679l0.024,0.015c0.146-0.25,0.32-0.445,0.52-0.583s0.417-0.208,0.652-0.208
		c0.065,0,0.137,0.006,0.215,0.017s0.142,0.025,0.19,0.042L64.031,5.29z"/>
	<path style="fill:#231F20;" d="M64.212,6.623c0.13-0.82,0.437-1.474,0.92-1.96s1.095-0.73,1.833-0.73
		c0.707,0,1.232,0.253,1.577,0.759s0.456,1.15,0.332,1.931L68.86,6.726c-0.133,0.824-0.442,1.478-0.925,1.963
		s-1.095,0.728-1.833,0.728c-0.707,0-1.232-0.252-1.577-0.757S64.07,7.51,64.197,6.726L64.212,6.623z M65.599,6.723
		c-0.082,0.504-0.073,0.896,0.024,1.175c0.098,0.28,0.314,0.419,0.649,0.419c0.309,0,0.563-0.147,0.762-0.441
		c0.199-0.294,0.337-0.678,0.415-1.153l0.015-0.103c0.078-0.487,0.067-0.874-0.032-1.16s-0.313-0.429-0.642-0.429
		c-0.312,0-0.569,0.149-0.769,0.449c-0.2,0.299-0.336,0.679-0.408,1.141L65.599,6.723z"/>
	<path style="fill:#231F20;" d="M74.173,6.916c-0.166,0.83-0.441,1.454-0.825,1.873s-0.884,0.627-1.499,0.627
		c-0.244,0-0.464-0.046-0.659-0.137c-0.195-0.092-0.358-0.226-0.488-0.402l-0.493,2.468h-1.401l1.46-7.314h1.294l-0.044,0.469
		c0.176-0.181,0.368-0.32,0.576-0.419c0.208-0.098,0.428-0.147,0.659-0.147c0.57,0,0.993,0.277,1.27,0.83S74.355,6,74.192,6.813
		L74.173,6.916z M72.786,6.806c0.104-0.535,0.115-0.964,0.032-1.288c-0.083-0.325-0.277-0.487-0.583-0.487
		c-0.169,0-0.329,0.051-0.479,0.154c-0.15,0.103-0.285,0.246-0.405,0.428l-0.469,2.362c0.055,0.117,0.144,0.204,0.266,0.259
		c0.122,0.055,0.281,0.083,0.476,0.083c0.29,0,0.53-0.123,0.72-0.369s0.331-0.593,0.422-1.039L72.786,6.806z"/>
	<path style="fill:#231F20;" d="M74.837,6.623c0.13-0.82,0.437-1.474,0.92-1.96s1.095-0.73,1.833-0.73
		c0.707,0,1.232,0.253,1.577,0.759s0.456,1.15,0.332,1.931l-0.015,0.103c-0.133,0.824-0.442,1.478-0.925,1.963
		s-1.095,0.728-1.833,0.728c-0.707,0-1.232-0.252-1.577-0.757s-0.454-1.149-0.327-1.934L74.837,6.623z M76.224,6.723
		c-0.082,0.504-0.073,0.896,0.024,1.175c0.098,0.28,0.314,0.419,0.649,0.419c0.309,0,0.563-0.147,0.762-0.441
		c0.199-0.294,0.337-0.678,0.415-1.153l0.015-0.103c0.078-0.487,0.067-0.874-0.032-1.16s-0.313-0.429-0.642-0.429
		c-0.312,0-0.569,0.149-0.769,0.449c-0.2,0.299-0.336,0.679-0.408,1.141L76.224,6.723z"/>
	<path style="fill:#231F20;" d="M82.776,7.858c0.026-0.163-0.02-0.299-0.137-0.41s-0.353-0.21-0.708-0.298
		c-0.56-0.127-0.97-0.315-1.23-0.564s-0.355-0.588-0.283-1.018c0.075-0.472,0.316-0.863,0.723-1.172s0.915-0.464,1.523-0.464
		s1.082,0.16,1.418,0.479s0.46,0.716,0.369,1.191l-0.01,0.029h-1.362c0.033-0.218,0.002-0.392-0.09-0.522s-0.253-0.195-0.481-0.195
		c-0.189,0-0.352,0.057-0.488,0.171s-0.218,0.254-0.244,0.42c-0.029,0.166,0.01,0.3,0.117,0.403s0.347,0.194,0.718,0.276
		c0.586,0.13,1.006,0.321,1.26,0.574s0.347,0.6,0.278,1.042c-0.082,0.495-0.334,0.888-0.759,1.179s-0.956,0.437-1.594,0.437
		c-0.635,0-1.122-0.181-1.46-0.542s-0.462-0.765-0.371-1.211l0.01-0.029h1.289c-0.036,0.283,0.012,0.488,0.144,0.615
		s0.323,0.19,0.574,0.19c0.218,0,0.397-0.052,0.537-0.156S82.744,8.038,82.776,7.858z"/>
	<path style="fill:#231F20;" d="M86.966,9.416c-0.693,0-1.221-0.246-1.582-0.737s-0.48-1.11-0.356-1.855l0.029-0.195
		c0.13-0.817,0.434-1.471,0.911-1.963s1.059-0.736,1.746-0.732c0.648,0,1.126,0.217,1.436,0.652s0.407,1.013,0.293,1.736
		l-0.122,0.776h-2.92c-0.026,0.373,0.034,0.669,0.181,0.89c0.146,0.22,0.382,0.331,0.708,0.331c0.273,0,0.516-0.033,0.728-0.098
		s0.441-0.165,0.688-0.298l0.239,0.881c-0.225,0.173-0.51,0.319-0.857,0.437S87.366,9.416,86.966,9.416z M87.537,5.031
		c-0.221,0-0.414,0.102-0.579,0.305S86.671,5.804,86.59,6.13l0.01,0.024h1.494l0.02-0.127c0.049-0.316,0.028-0.561-0.061-0.735
		S87.791,5.031,87.537,5.031z"/>
	<path style="fill:#231F20;" d="M90.018,6.618c0.179-0.889,0.464-1.559,0.854-2.009s0.895-0.676,1.514-0.676
		c0.228,0,0.438,0.051,0.632,0.152s0.357,0.245,0.491,0.428l0.562-2.817h1.411l-1.523,7.617h-1.221l0.015-0.517
		c-0.189,0.2-0.391,0.354-0.605,0.46s-0.441,0.16-0.679,0.16c-0.566,0-0.991-0.259-1.274-0.776s-0.348-1.157-0.195-1.919
		L90.018,6.618z M91.404,6.721c-0.101,0.501-0.109,0.892-0.024,1.174s0.285,0.422,0.601,0.422c0.163,0,0.319-0.049,0.469-0.147
		c0.15-0.098,0.287-0.236,0.41-0.413l0.459-2.309c-0.059-0.134-0.148-0.237-0.269-0.31c-0.121-0.072-0.269-0.108-0.444-0.108
		c-0.29,0-0.536,0.143-0.737,0.43s-0.35,0.672-0.444,1.157L91.404,6.721z"/>
</g>
<line style="fill:none;stroke:#B21F71;stroke-width:4;stroke-linecap:round;stroke-linejoin:round;stroke-miterlimit:10;" x1="7.537" y1="31.75" x2="46.698" y2="31.75"/>
<line style="fill:none;stroke:#00A0D1;stroke-width:4;stroke-linecap:round;stroke-linejoin:round;stroke-miterlimit:10;" x1="7.537" y1="46.25" x2="46.698" y2="46.25"/>
<line style="fill:none;stroke:#B2B3B3;stroke-width:6.9035;stroke-linecap:round;stroke-linejoin:round;stroke-miterlimit:10;" x1="8.999" y1="103.5" x2="93.036" y2="103.5"/>
<line style="fill:none;stroke:#17B24B;stroke-width:4;stroke-linecap:round;stroke-linejoin:round;stroke-miterlimit:10;" x1="7.537" y1="17" x2="46.698" y2="17"/>
<line style="fill:none;stroke:#6D51A1;stroke-width:4;stroke-linecap:round;stroke-linejoin:round;stroke-miterlimit:10;" x1="7.537" y1="89.5" x2="46.698" y2="89.5"/>
<line style="fill:none;stroke:#E4CF1E;stroke-width:4;stroke-linecap:round;stroke-linejoin:round;stroke-miterlimit:10;" x1="7.537" y1="75.25" x2="46.698" y2="75.25"/>
<line style="fill:none;stroke:#F57E20;stroke-width:4;stroke-linecap:round;stroke-linejoin:round;stroke-miterlimit:10;" x1="7.537" y1="61" x2="46.698" y2="61"/>
<g>
	<g>
		
			<line style="fill:none;stroke:#B21F71;stroke-width:4;stroke-linecap:round;stroke-linejoin:round;" x1="55.31" y1="31.75" x2="61.31" y2="31.75"/>
		
			<line style="fill:none;stroke:#B21F71;stroke-width:4;stroke-linecap:round;stroke-linejoin:round;stroke-dasharray:9.0537,9.0537;" x1="70.363" y1="31.75" x2="83.944" y2="31.75"/>
		
			<line style="fill:none;stroke:#B21F71;stroke-width:4;stroke-linecap:round;stroke-linejoin:round;" x1="88.471" y1="31.75" x2="94.471" y2="31.75"/>
	</g>
</g>
<g>
	<g>
		
			<line style="fill:none;stroke:#00A0D1;stroke-width:4;stroke-linecap:round;stroke-linejoin:round;" x1="55.31" y1="46.25" x2="61.31" y2="46.25"/>
		
			<line style="fill:none;stroke:#00A0D1;stroke-width:4;stroke-linecap:round;stroke-linejoin:round;stroke-dasharray:9.0537,9.0537;" x1="70.363" y1="46.25" x2="83.944" y2="46.25"/>
		
			<line style="fill:none;stroke:#00A0D1;stroke-width:4;stroke-linecap:round;stroke-linejoin:round;" x1="88.471" y1="46.25" x2="94.471" y2="46.25"/>
	</g>
</g>
<g>
	<g>
		
			<line style="fill:none;stroke:#17B24B;stroke-width:4;stroke-linecap:round;stroke-linejoin:round;" x1="55.31" y1="17" x2="61.31" y2="17"/>
		
			<line style="fill:none;stroke:#17B24B;stroke-width:4;stroke-linecap:round;stroke-linejoin:round;stroke-dasharray:9.0537,9.0537;" x1="70.363" y1="17" x2="83.944" y2="17"/>
		
			<line style="fill:none;stroke:#17B24B;stroke-width:4;stroke-linecap:round;stroke-linejoin:round;" x1="88.471" y1="17" x2="94.471" y2="17"/>
	</g>
</g>
<g>
	<g>
		
			<line style="fill:none;stroke:#6D51A1;stroke-width:4;stroke-linecap:round;stroke-linejoin:round;" x1="55.31" y1="89.5" x2="61.31" y2="89.5"/>
		
			<line style="fill:none;stroke:#6D51A1;stroke-width:4;stroke-linecap:round;stroke-linejoin:round;stroke-dasharray:9.0537,9.0537;" x1="70.363" y1="89.5" x2="83.944" y2="89.5"/>
		
			<line style="fill:none;stroke:#6D51A1;stroke-width:4;stroke-linecap:round;stroke-linejoin:round;" x1="88.471" y1="89.5" x2="94.471" y2="89.5"/>
	</g>
</g>
<g>
	<g>
		
			<line style="fill:none;stroke:#E4CF1E;stroke-width:4;stroke-linecap:round;stroke-linejoin:round;" x1="55.31" y1="75.25" x2="61.31" y2="75.25"/>
		
			<line style="fill:none;stroke:#E4CF1E;stroke-width:4;stroke-linecap:round;stroke-linejoin:round;stroke-dasharray:9.0537,9.0537;" x1="70.363" y1="75.25" x2="83.944" y2="75.25"/>
		
			<line style="fill:none;stroke:#E4CF1E;stroke-width:4;stroke-linecap:round;stroke-linejoin:round;" x1="88.471" y1="75.25" x2="94.471" y2="75.25"/>
	</g>
</g>
<g>
	<g>
		
			<line style="fill:none;stroke:#F57E20;stroke-width:4;stroke-linecap:round;stroke-linejoin:round;" x1="55.31" y1="61" x2="61.31" y2="61"/>
		
			<line style="fill:none;stroke:#F57E20;stroke-width:4;stroke-linecap:round;stroke-linejoin:round;stroke-dasharray:9.0537,9.0537;" x1="70.363" y1="61" x2="83.944" y2="61"/>
		
			<line style="fill:none;stroke:#F57E20;stroke-width:4;stroke-linecap:round;stroke-linejoin:round;" x1="88.471" y1="61" x2="94.471" y2="61"/>
	</g>
</g>
<g>
	<rect x="5.463" y="112.208" style="fill:none;" width="227.036" height="12"/>
	<path style="fill:#231F20;" d="M5.914,115.52c0-0.898,0.181-1.665,0.543-2.3s0.743-1.06,1.142-1.271l0.021,0.003l0.13,0.396
		c-0.312,0.244-0.584,0.635-0.815,1.172c-0.231,0.538-0.347,1.202-0.347,1.993v0.044c0,0.791,0.115,1.455,0.345,1.993
		s0.502,0.939,0.817,1.203l-0.13,0.369H7.599c-0.399-0.212-0.779-0.635-1.142-1.27c-0.362-0.634-0.543-1.402-0.543-2.302V115.52z"/>
	<path style="fill:#231F20;" d="M9.523,115.817l0.092,0.622l0.021,0.003l0.133-0.625l0.913-3.254h0.595l0.919,3.254l0.137,0.639
		h0.021l0.099-0.639l0.742-3.254h0.673l-1.2,4.977h-0.602l-0.981-3.452l-0.089-0.448h-0.021l-0.085,0.448l-0.998,3.452H9.291
		l-1.196-4.977h0.67L9.523,115.817z"/>
	<path style="fill:#231F20;" d="M15.31,112.895h-0.673v-0.687h0.673V112.895z M15.31,117.54h-0.673v-3.698h0.673V117.54z"/>
	<path style="fill:#231F20;" d="M17.074,117.54H16.4v-5.332h0.673V117.54z"/>
	<path style="fill:#231F20;" d="M18.837,117.54h-0.673v-5.332h0.673V117.54z"/>
	<path style="fill:#231F20;" d="M23.363,114.437l-0.345-0.021c-0.178,0-0.328,0.042-0.449,0.126
		c-0.122,0.084-0.216,0.203-0.282,0.355v2.642h-0.673v-3.698h0.602l0.065,0.54c0.105-0.191,0.234-0.341,0.388-0.448
		c0.154-0.107,0.331-0.161,0.532-0.161c0.05,0,0.098,0.004,0.144,0.012c0.045,0.008,0.083,0.017,0.113,0.026L23.363,114.437z"/>
	<path style="fill:#231F20;" d="M25.482,117.612c-0.515,0-0.925-0.171-1.229-0.514c-0.305-0.343-0.457-0.788-0.457-1.335v-0.15
		c0-0.526,0.157-0.964,0.47-1.314c0.313-0.35,0.684-0.524,1.112-0.524c0.499,0,0.876,0.15,1.131,0.451s0.383,0.702,0.383,1.203v0.42
		h-2.399l-0.01,0.017c0.007,0.354,0.097,0.646,0.27,0.874c0.173,0.229,0.416,0.343,0.728,0.343c0.228,0,0.428-0.032,0.6-0.098
		c0.172-0.064,0.321-0.154,0.446-0.268l0.263,0.438c-0.132,0.131-0.307,0.24-0.523,0.327
		C26.052,117.568,25.79,117.612,25.482,117.612z M25.379,114.303c-0.226,0-0.418,0.095-0.578,0.285
		c-0.16,0.189-0.257,0.427-0.294,0.713l0.007,0.017h1.706v-0.088c0-0.264-0.071-0.484-0.212-0.661S25.657,114.303,25.379,114.303z"
		/>
	<path style="fill:#231F20;" d="M27.495,115.759c0-0.595,0.127-1.074,0.381-1.439c0.254-0.365,0.61-0.547,1.068-0.547
		c0.226,0,0.424,0.043,0.595,0.128c0.171,0.086,0.315,0.21,0.434,0.375l0.099-0.434h0.513v5.12h-0.673v-1.771
		c-0.119,0.139-0.259,0.244-0.42,0.314s-0.346,0.106-0.554,0.106c-0.451,0-0.804-0.164-1.06-0.491
		c-0.255-0.327-0.383-0.757-0.383-1.29V115.759z M28.168,115.829c0,0.374,0.077,0.675,0.231,0.906
		c0.153,0.231,0.39,0.347,0.709,0.347c0.185,0,0.342-0.041,0.474-0.123c0.131-0.082,0.241-0.197,0.33-0.345v-1.864
		c-0.089-0.139-0.199-0.248-0.33-0.328c-0.131-0.08-0.287-0.12-0.467-0.12c-0.321,0-0.56,0.136-0.714,0.408
		c-0.155,0.271-0.232,0.621-0.232,1.046V115.829z"/>
	<path style="fill:#231F20;" d="M33.976,116.993c-0.116,0.198-0.266,0.351-0.448,0.458s-0.393,0.161-0.632,0.161
		c-0.403,0-0.718-0.129-0.943-0.386s-0.338-0.659-0.338-1.203v-2.181h0.673v2.188c0,0.394,0.058,0.666,0.174,0.813
		s0.297,0.222,0.543,0.222c0.239,0,0.437-0.048,0.593-0.145c0.156-0.097,0.274-0.234,0.354-0.412v-2.666h0.673v3.698H34.02
		L33.976,116.993z"/>
	<path style="fill:#231F20;" d="M36.334,112.895h-0.673v-0.687h0.673V112.895z M36.334,117.54h-0.673v-3.698h0.673V117.54z"/>
	<path style="fill:#231F20;" d="M39.12,114.437l-0.345-0.021c-0.178,0-0.328,0.042-0.449,0.126
		c-0.122,0.084-0.216,0.203-0.282,0.355v2.642H37.37v-3.698h0.602l0.065,0.54c0.105-0.191,0.234-0.341,0.388-0.448
		c0.154-0.107,0.331-0.161,0.532-0.161c0.05,0,0.098,0.004,0.144,0.012c0.045,0.008,0.083,0.017,0.113,0.026L39.12,114.437z"/>
	<path style="fill:#231F20;" d="M41.239,117.612c-0.515,0-0.925-0.171-1.229-0.514c-0.305-0.343-0.457-0.788-0.457-1.335v-0.15
		c0-0.526,0.157-0.964,0.47-1.314c0.313-0.35,0.684-0.524,1.112-0.524c0.499,0,0.876,0.15,1.131,0.451s0.383,0.702,0.383,1.203v0.42
		h-2.399l-0.01,0.017c0.007,0.354,0.097,0.646,0.27,0.874c0.173,0.229,0.416,0.343,0.728,0.343c0.228,0,0.428-0.032,0.6-0.098
		c0.172-0.064,0.321-0.154,0.446-0.268l0.263,0.438c-0.132,0.131-0.307,0.24-0.523,0.327
		C41.809,117.568,41.546,117.612,41.239,117.612z M41.136,114.303c-0.226,0-0.418,0.095-0.578,0.285
		c-0.16,0.189-0.257,0.427-0.294,0.713l0.007,0.017h1.706v-0.088c0-0.264-0.071-0.484-0.212-0.661S41.414,114.303,41.136,114.303z"
		/>
	<path style="fill:#231F20;" d="M47.418,117.54c-0.023-0.112-0.041-0.21-0.053-0.296c-0.013-0.085-0.02-0.171-0.022-0.258
		c-0.125,0.178-0.289,0.326-0.49,0.446c-0.202,0.119-0.419,0.179-0.651,0.179c-0.385,0-0.679-0.099-0.88-0.295
		c-0.202-0.197-0.303-0.469-0.303-0.815c0-0.353,0.143-0.629,0.429-0.829c0.286-0.199,0.674-0.299,1.164-0.299h0.731v-0.366
		c0-0.216-0.066-0.388-0.198-0.514c-0.132-0.127-0.319-0.19-0.561-0.19c-0.216,0-0.393,0.055-0.528,0.166
		c-0.135,0.111-0.203,0.244-0.203,0.398H45.21l-0.007-0.021c-0.014-0.269,0.113-0.515,0.381-0.738
		c0.268-0.223,0.614-0.335,1.038-0.335c0.419,0,0.756,0.106,1.012,0.319c0.255,0.213,0.383,0.521,0.383,0.921v1.781
		c0,0.132,0.007,0.26,0.021,0.383s0.039,0.244,0.075,0.362H47.418z M46.301,117.044c0.244,0,0.464-0.062,0.66-0.188
		s0.324-0.268,0.383-0.429v-0.6h-0.755c-0.271,0-0.488,0.068-0.651,0.205c-0.163,0.136-0.245,0.296-0.245,0.48
		c0,0.164,0.051,0.293,0.154,0.389C45.949,116.997,46.1,117.044,46.301,117.044z"/>
	<path style="fill:#231F20;" d="M48.84,115.759c0-0.595,0.127-1.074,0.381-1.439c0.254-0.365,0.61-0.547,1.068-0.547
		c0.216,0,0.408,0.04,0.576,0.12c0.167,0.08,0.31,0.196,0.429,0.349v-2.034h0.673v5.332h-0.55l-0.079-0.455
		c-0.121,0.173-0.269,0.304-0.444,0.393s-0.379,0.133-0.612,0.133c-0.451,0-0.804-0.164-1.06-0.491
		c-0.255-0.327-0.383-0.757-0.383-1.29V115.759z M49.514,115.831c0,0.374,0.076,0.673,0.229,0.897
		c0.153,0.224,0.39,0.336,0.711,0.336c0.201,0,0.369-0.045,0.506-0.137s0.249-0.219,0.335-0.383v-1.726
		c-0.086-0.153-0.199-0.274-0.337-0.364c-0.138-0.09-0.303-0.135-0.497-0.135c-0.324,0-0.562,0.133-0.716,0.4
		c-0.154,0.267-0.231,0.613-0.231,1.039V115.831z"/>
	<path style="fill:#231F20;" d="M52.819,115.759c0-0.595,0.127-1.074,0.381-1.439c0.254-0.365,0.61-0.547,1.068-0.547
		c0.216,0,0.408,0.04,0.576,0.12c0.167,0.08,0.31,0.196,0.429,0.349v-2.034h0.673v5.332h-0.55l-0.079-0.455
		c-0.121,0.173-0.269,0.304-0.444,0.393s-0.379,0.133-0.612,0.133c-0.451,0-0.804-0.164-1.06-0.491
		c-0.255-0.327-0.383-0.757-0.383-1.29V115.759z M53.492,115.831c0,0.374,0.076,0.673,0.229,0.897
		c0.153,0.224,0.39,0.336,0.711,0.336c0.201,0,0.369-0.045,0.506-0.137s0.249-0.219,0.335-0.383v-1.726
		c-0.086-0.153-0.199-0.274-0.337-0.364c-0.138-0.09-0.303-0.135-0.497-0.135c-0.324,0-0.562,0.133-0.716,0.4
		c-0.154,0.267-0.231,0.613-0.231,1.039V115.831z"/>
	<path style="fill:#231F20;" d="M57.679,112.895h-0.673v-0.687h0.673V112.895z M57.679,117.54h-0.673v-3.698h0.673V117.54z"/>
	<path style="fill:#231F20;" d="M59.604,112.95v0.892h0.701v0.499h-0.701v2.246c0,0.173,0.036,0.295,0.108,0.366
		c0.071,0.071,0.167,0.106,0.285,0.106c0.039,0,0.082-0.004,0.128-0.014c0.047-0.009,0.088-0.021,0.125-0.034l0.089,0.461
		c-0.05,0.041-0.124,0.075-0.221,0.101c-0.097,0.026-0.194,0.04-0.292,0.04c-0.273,0-0.491-0.083-0.653-0.248
		c-0.162-0.166-0.243-0.425-0.243-0.778v-2.246h-0.588v-0.499h0.588v-0.892H59.604z"/>
	<path style="fill:#231F20;" d="M61.863,112.895h-0.673v-0.687h0.673V112.895z M61.863,117.54h-0.673v-3.698h0.673V117.54z"/>
	<path style="fill:#231F20;" d="M62.741,115.657c0-0.547,0.148-0.998,0.444-1.352c0.296-0.354,0.698-0.531,1.207-0.531
		c0.513,0,0.918,0.177,1.215,0.53c0.298,0.353,0.446,0.804,0.446,1.354v0.075c0,0.551-0.148,1.002-0.444,1.354
		s-0.7,0.526-1.21,0.526s-0.914-0.176-1.212-0.528c-0.297-0.353-0.446-0.803-0.446-1.352V115.657z M63.415,115.73
		c0,0.392,0.083,0.715,0.248,0.97c0.165,0.255,0.411,0.382,0.736,0.382c0.321,0,0.565-0.127,0.731-0.382s0.25-0.578,0.25-0.97
		v-0.075c0-0.387-0.083-0.709-0.251-0.966c-0.167-0.257-0.413-0.386-0.736-0.386c-0.321,0-0.564,0.128-0.729,0.386
		c-0.166,0.257-0.248,0.579-0.248,0.966V115.73z"/>
	<path style="fill:#231F20;" d="M67.479,113.842l0.048,0.55c0.123-0.196,0.277-0.348,0.463-0.457
		c0.186-0.108,0.397-0.162,0.634-0.162c0.399,0,0.708,0.117,0.926,0.351c0.219,0.233,0.328,0.594,0.328,1.082v2.334h-0.673v-2.321
		c0-0.326-0.064-0.557-0.193-0.694c-0.128-0.137-0.325-0.205-0.589-0.205c-0.194,0-0.365,0.047-0.514,0.14
		c-0.149,0.093-0.269,0.221-0.357,0.383v2.697h-0.673v-3.698H67.479z"/>
	<path style="fill:#231F20;" d="M73.128,117.54c-0.023-0.112-0.041-0.21-0.053-0.296c-0.013-0.085-0.02-0.171-0.022-0.258
		c-0.125,0.178-0.289,0.326-0.49,0.446c-0.202,0.119-0.419,0.179-0.651,0.179c-0.385,0-0.679-0.099-0.88-0.295
		c-0.202-0.197-0.303-0.469-0.303-0.815c0-0.353,0.143-0.629,0.429-0.829c0.286-0.199,0.674-0.299,1.164-0.299h0.731v-0.366
		c0-0.216-0.066-0.388-0.198-0.514c-0.132-0.127-0.319-0.19-0.561-0.19c-0.216,0-0.393,0.055-0.528,0.166
		c-0.135,0.111-0.203,0.244-0.203,0.398H70.92l-0.007-0.021c-0.014-0.269,0.113-0.515,0.381-0.738
		c0.268-0.223,0.614-0.335,1.038-0.335c0.419,0,0.756,0.106,1.012,0.319c0.255,0.213,0.383,0.521,0.383,0.921v1.781
		c0,0.132,0.007,0.26,0.021,0.383s0.039,0.244,0.075,0.362H73.128z M72.011,117.044c0.244,0,0.464-0.062,0.66-0.188
		s0.324-0.268,0.383-0.429v-0.6h-0.755c-0.271,0-0.488,0.068-0.651,0.205c-0.163,0.136-0.245,0.296-0.245,0.48
		c0,0.164,0.051,0.293,0.154,0.389C71.659,116.997,71.81,117.044,72.011,117.044z"/>
	<path style="fill:#231F20;" d="M75.432,117.54h-0.673v-5.332h0.673V117.54z"/>
	<path style="fill:#231F20;" d="M80.358,116.556c0-0.148-0.057-0.27-0.169-0.366c-0.113-0.096-0.327-0.179-0.642-0.25
		c-0.448-0.098-0.786-0.23-1.013-0.397c-0.227-0.167-0.341-0.396-0.341-0.685c0-0.3,0.128-0.556,0.383-0.768
		c0.256-0.211,0.588-0.317,0.998-0.317c0.432,0,0.773,0.11,1.027,0.332s0.376,0.49,0.364,0.807l-0.007,0.021h-0.643
		c0-0.162-0.067-0.307-0.203-0.436c-0.136-0.128-0.315-0.193-0.539-0.193c-0.238,0-0.416,0.052-0.533,0.157
		c-0.115,0.105-0.174,0.231-0.174,0.379c0,0.146,0.051,0.261,0.154,0.345c0.102,0.084,0.311,0.16,0.625,0.226
		c0.467,0.1,0.814,0.236,1.043,0.409c0.228,0.172,0.342,0.402,0.342,0.692c0,0.328-0.133,0.594-0.398,0.796
		s-0.612,0.304-1.041,0.304c-0.472,0-0.843-0.12-1.114-0.359s-0.399-0.519-0.386-0.837l0.006-0.021h0.643
		c0.012,0.238,0.101,0.412,0.268,0.522c0.166,0.11,0.36,0.165,0.584,0.165c0.239,0,0.427-0.048,0.562-0.146
		C80.291,116.84,80.358,116.713,80.358,116.556z"/>
	<path style="fill:#231F20;" d="M82.756,112.95v0.892h0.701v0.499h-0.701v2.246c0,0.173,0.036,0.295,0.108,0.366
		c0.071,0.071,0.167,0.106,0.285,0.106c0.039,0,0.081-0.004,0.128-0.014s0.089-0.021,0.125-0.034l0.089,0.461
		c-0.05,0.041-0.124,0.075-0.221,0.101c-0.097,0.026-0.194,0.04-0.292,0.04c-0.273,0-0.491-0.083-0.652-0.248
		c-0.162-0.166-0.243-0.425-0.243-0.778v-2.246h-0.588v-0.499h0.588v-0.892H82.756z"/>
	<path style="fill:#231F20;" d="M86.636,116.993c-0.116,0.198-0.266,0.351-0.448,0.458c-0.182,0.107-0.393,0.161-0.632,0.161
		c-0.403,0-0.718-0.129-0.943-0.386s-0.339-0.659-0.339-1.203v-2.181h0.674v2.188c0,0.394,0.059,0.666,0.174,0.813
		c0.117,0.148,0.298,0.222,0.544,0.222c0.239,0,0.437-0.048,0.593-0.145c0.156-0.097,0.274-0.234,0.354-0.412v-2.666h0.674v3.698
		H86.68L86.636,116.993z"/>
	<path style="fill:#231F20;" d="M88.113,115.759c0-0.595,0.127-1.074,0.381-1.439s0.61-0.547,1.068-0.547
		c0.217,0,0.408,0.04,0.576,0.12c0.167,0.08,0.311,0.196,0.429,0.349v-2.034h0.674v5.332H90.69l-0.078-0.455
		c-0.121,0.173-0.27,0.304-0.445,0.393c-0.175,0.089-0.379,0.133-0.611,0.133c-0.451,0-0.805-0.164-1.06-0.491
		c-0.255-0.327-0.383-0.757-0.383-1.29V115.759z M88.786,115.831c0,0.374,0.077,0.673,0.229,0.897
		c0.152,0.224,0.39,0.336,0.711,0.336c0.2,0,0.369-0.045,0.506-0.137s0.248-0.219,0.335-0.383v-1.726
		c-0.087-0.153-0.199-0.274-0.337-0.364c-0.138-0.09-0.304-0.135-0.497-0.135c-0.323,0-0.562,0.133-0.716,0.4
		c-0.154,0.267-0.231,0.613-0.231,1.039V115.831z"/>
	<path style="fill:#231F20;" d="M93.376,116.169l0.12,0.465h0.02l0.91-2.792h0.748l-1.555,4.266
		c-0.094,0.249-0.228,0.465-0.402,0.649c-0.174,0.185-0.409,0.277-0.705,0.277c-0.055,0-0.125-0.006-0.209-0.019
		c-0.084-0.012-0.149-0.024-0.195-0.036l0.068-0.53c-0.014-0.002,0.027,0,0.122,0.007s0.154,0.01,0.179,0.01
		c0.145,0,0.262-0.064,0.353-0.191s0.167-0.269,0.229-0.424l0.16-0.386l-1.374-3.623h0.752L93.376,116.169z"/>
	<path style="fill:#231F20;" d="M97.786,117.54v-3.199h-0.578v-0.499h0.578v-0.468c0-0.394,0.103-0.699,0.309-0.915
		c0.206-0.215,0.494-0.323,0.863-0.323c0.077,0,0.155,0.006,0.234,0.019c0.078,0.012,0.166,0.03,0.262,0.053l-0.082,0.513
		c-0.041-0.009-0.091-0.017-0.149-0.024c-0.058-0.007-0.119-0.01-0.183-0.01c-0.196,0-0.342,0.059-0.438,0.176
		c-0.096,0.118-0.144,0.288-0.144,0.511v0.468h0.769v0.499h-0.769v3.199H97.786z"/>
	<path style="fill:#231F20;" d="M99.764,115.657c0-0.547,0.147-0.998,0.443-1.352c0.297-0.354,0.699-0.531,1.207-0.531
		c0.513,0,0.918,0.177,1.215,0.53c0.298,0.353,0.446,0.804,0.446,1.354v0.075c0,0.551-0.148,1.002-0.444,1.354
		s-0.699,0.526-1.21,0.526s-0.914-0.176-1.212-0.528c-0.297-0.353-0.445-0.803-0.445-1.352V115.657z M100.437,115.73
		c0,0.392,0.083,0.715,0.248,0.97s0.41,0.382,0.736,0.382c0.321,0,0.565-0.127,0.731-0.382s0.25-0.578,0.25-0.97v-0.075
		c0-0.387-0.084-0.709-0.252-0.966c-0.167-0.257-0.413-0.386-0.736-0.386c-0.321,0-0.564,0.128-0.729,0.386
		s-0.248,0.579-0.248,0.966V115.73z"/>
	<path style="fill:#231F20;" d="M105.649,114.437l-0.345-0.021c-0.178,0-0.327,0.042-0.449,0.126s-0.216,0.203-0.282,0.355v2.642
		h-0.674v-3.698h0.602l0.065,0.54c0.104-0.191,0.234-0.341,0.388-0.448c0.154-0.107,0.331-0.161,0.531-0.161
		c0.051,0,0.099,0.004,0.145,0.012c0.045,0.008,0.083,0.017,0.112,0.026L105.649,114.437z"/>
	<path style="fill:#231F20;" d="M109.788,114.437l-0.345-0.021c-0.178,0-0.327,0.042-0.449,0.126s-0.216,0.203-0.282,0.355v2.642
		h-0.674v-3.698h0.602l0.065,0.54c0.104-0.191,0.234-0.341,0.388-0.448c0.154-0.107,0.331-0.161,0.531-0.161
		c0.051,0,0.099,0.004,0.145,0.012c0.045,0.008,0.083,0.017,0.112,0.026L109.788,114.437z"/>
	<path style="fill:#231F20;" d="M111.908,117.612c-0.515,0-0.925-0.171-1.229-0.514c-0.305-0.343-0.457-0.788-0.457-1.335v-0.15
		c0-0.526,0.157-0.964,0.471-1.314c0.313-0.35,0.684-0.524,1.112-0.524c0.499,0,0.876,0.15,1.132,0.451
		c0.255,0.301,0.383,0.702,0.383,1.203v0.42h-2.4l-0.01,0.017c0.007,0.354,0.097,0.646,0.27,0.874
		c0.174,0.229,0.416,0.343,0.729,0.343c0.228,0,0.428-0.032,0.6-0.098c0.172-0.064,0.321-0.154,0.446-0.268l0.263,0.438
		c-0.132,0.131-0.306,0.24-0.522,0.327C112.477,117.568,112.215,117.612,111.908,117.612z M111.805,114.303
		c-0.226,0-0.418,0.095-0.577,0.285c-0.16,0.189-0.258,0.427-0.295,0.713l0.008,0.017h1.705v-0.088c0-0.264-0.07-0.484-0.212-0.661
		S112.083,114.303,111.805,114.303z"/>
	<path style="fill:#231F20;" d="M115.579,117.082c0.224,0,0.42-0.069,0.59-0.207c0.17-0.138,0.255-0.307,0.255-0.507h0.604
		l0.008,0.021c0.011,0.319-0.131,0.603-0.426,0.851s-0.639,0.373-1.031,0.373c-0.537,0-0.948-0.175-1.233-0.526
		s-0.427-0.792-0.427-1.323v-0.144c0-0.526,0.143-0.966,0.429-1.317c0.286-0.353,0.696-0.528,1.231-0.528
		c0.434,0,0.787,0.127,1.062,0.383s0.407,0.568,0.398,0.94l-0.007,0.021h-0.608c0-0.226-0.08-0.417-0.239-0.576
		c-0.159-0.159-0.361-0.238-0.605-0.238c-0.353,0-0.605,0.127-0.757,0.381c-0.151,0.253-0.228,0.565-0.228,0.934v0.143
		c0,0.378,0.076,0.692,0.227,0.944C114.971,116.957,115.223,117.082,115.579,117.082z"/>
	<path style="fill:#231F20;" d="M117.633,115.657c0-0.547,0.147-0.998,0.443-1.352c0.297-0.354,0.699-0.531,1.207-0.531
		c0.513,0,0.918,0.177,1.215,0.53c0.298,0.353,0.446,0.804,0.446,1.354v0.075c0,0.551-0.148,1.002-0.444,1.354
		s-0.699,0.526-1.21,0.526s-0.914-0.176-1.212-0.528c-0.297-0.353-0.445-0.803-0.445-1.352V115.657z M118.306,115.73
		c0,0.392,0.083,0.715,0.248,0.97s0.41,0.382,0.736,0.382c0.321,0,0.565-0.127,0.731-0.382s0.25-0.578,0.25-0.97v-0.075
		c0-0.387-0.084-0.709-0.252-0.966c-0.167-0.257-0.413-0.386-0.736-0.386c-0.321,0-0.564,0.128-0.729,0.386
		s-0.248,0.579-0.248,0.966V115.73z"/>
	<path style="fill:#231F20;" d="M122.37,113.842l0.049,0.485c0.12-0.175,0.273-0.312,0.459-0.408
		c0.186-0.097,0.402-0.146,0.648-0.146s0.457,0.057,0.634,0.171s0.31,0.285,0.397,0.513c0.117-0.209,0.271-0.376,0.462-0.499
		s0.415-0.185,0.67-0.185c0.376,0,0.673,0.129,0.892,0.388c0.219,0.259,0.328,0.648,0.328,1.167v2.211h-0.673v-2.218
		c0-0.365-0.062-0.623-0.188-0.774c-0.125-0.152-0.312-0.228-0.561-0.228c-0.229,0-0.416,0.08-0.559,0.239s-0.226,0.361-0.251,0.605
		v0.027v2.348H124v-2.218c0-0.346-0.064-0.6-0.193-0.76c-0.129-0.161-0.313-0.241-0.555-0.241c-0.205,0-0.374,0.042-0.506,0.126
		c-0.133,0.084-0.234,0.203-0.305,0.355v2.738h-0.674v-3.698H122.37z"/>
	<path style="fill:#231F20;" d="M128.488,113.842l0.049,0.485c0.12-0.175,0.273-0.312,0.459-0.408
		c0.186-0.097,0.402-0.146,0.648-0.146s0.457,0.057,0.634,0.171s0.31,0.285,0.397,0.513c0.117-0.209,0.271-0.376,0.462-0.499
		s0.415-0.185,0.67-0.185c0.376,0,0.673,0.129,0.892,0.388c0.219,0.259,0.328,0.648,0.328,1.167v2.211h-0.673v-2.218
		c0-0.365-0.062-0.623-0.188-0.774c-0.125-0.152-0.312-0.228-0.561-0.228c-0.229,0-0.416,0.08-0.559,0.239s-0.226,0.361-0.251,0.605
		v0.027v2.348h-0.677v-2.218c0-0.346-0.064-0.6-0.193-0.76c-0.129-0.161-0.313-0.241-0.555-0.241c-0.205,0-0.374,0.042-0.506,0.126
		c-0.133,0.084-0.234,0.203-0.305,0.355v2.738h-0.674v-3.698H128.488z"/>
	<path style="fill:#231F20;" d="M135.54,117.612c-0.515,0-0.925-0.171-1.229-0.514c-0.305-0.343-0.457-0.788-0.457-1.335v-0.15
		c0-0.526,0.157-0.964,0.471-1.314c0.313-0.35,0.684-0.524,1.112-0.524c0.499,0,0.876,0.15,1.132,0.451
		c0.255,0.301,0.383,0.702,0.383,1.203v0.42h-2.4l-0.01,0.017c0.007,0.354,0.097,0.646,0.27,0.874
		c0.174,0.229,0.416,0.343,0.729,0.343c0.228,0,0.428-0.032,0.6-0.098c0.172-0.064,0.321-0.154,0.446-0.268l0.263,0.438
		c-0.132,0.131-0.306,0.24-0.522,0.327C136.109,117.568,135.847,117.612,135.54,117.612z M135.437,114.303
		c-0.226,0-0.418,0.095-0.577,0.285c-0.16,0.189-0.258,0.427-0.295,0.713l0.008,0.017h1.705v-0.088c0-0.264-0.07-0.484-0.212-0.661
		S135.715,114.303,135.437,114.303z"/>
	<path style="fill:#231F20;" d="M138.307,113.842l0.049,0.55c0.123-0.196,0.277-0.348,0.463-0.457
		c0.186-0.108,0.396-0.162,0.634-0.162c0.398,0,0.708,0.117,0.927,0.351c0.219,0.233,0.328,0.594,0.328,1.082v2.334h-0.674v-2.321
		c0-0.326-0.064-0.557-0.193-0.694s-0.325-0.205-0.59-0.205c-0.193,0-0.364,0.047-0.514,0.14s-0.269,0.221-0.357,0.383v2.697h-0.674
		v-3.698H138.307z"/>
	<path style="fill:#231F20;" d="M141.531,115.759c0-0.595,0.127-1.074,0.381-1.439s0.61-0.547,1.068-0.547
		c0.217,0,0.408,0.04,0.576,0.12c0.167,0.08,0.311,0.196,0.429,0.349v-2.034h0.674v5.332h-0.551l-0.078-0.455
		c-0.121,0.173-0.27,0.304-0.445,0.393c-0.175,0.089-0.379,0.133-0.611,0.133c-0.451,0-0.805-0.164-1.06-0.491
		c-0.255-0.327-0.383-0.757-0.383-1.29V115.759z M142.204,115.831c0,0.374,0.077,0.673,0.229,0.897
		c0.152,0.224,0.39,0.336,0.711,0.336c0.2,0,0.369-0.045,0.506-0.137s0.248-0.219,0.335-0.383v-1.726
		c-0.087-0.153-0.199-0.274-0.337-0.364c-0.138-0.09-0.304-0.135-0.497-0.135c-0.323,0-0.562,0.133-0.716,0.4
		c-0.154,0.267-0.231,0.613-0.231,1.039V115.831z"/>
	<path style="fill:#231F20;" d="M147.936,117.54c-0.022-0.112-0.04-0.21-0.053-0.296c-0.013-0.085-0.021-0.171-0.022-0.258
		c-0.125,0.178-0.289,0.326-0.49,0.446c-0.202,0.119-0.419,0.179-0.651,0.179c-0.385,0-0.679-0.099-0.88-0.295
		c-0.202-0.197-0.303-0.469-0.303-0.815c0-0.353,0.143-0.629,0.429-0.829c0.286-0.199,0.674-0.299,1.164-0.299h0.731v-0.366
		c0-0.216-0.066-0.388-0.198-0.514c-0.132-0.127-0.319-0.19-0.561-0.19c-0.217,0-0.393,0.055-0.528,0.166
		c-0.136,0.111-0.203,0.244-0.203,0.398h-0.643l-0.007-0.021c-0.014-0.269,0.113-0.515,0.381-0.738s0.613-0.335,1.037-0.335
		c0.42,0,0.757,0.106,1.012,0.319c0.256,0.213,0.383,0.521,0.383,0.921v1.781c0,0.132,0.008,0.26,0.021,0.383
		s0.038,0.244,0.074,0.362H147.936z M146.819,117.044c0.243,0,0.463-0.062,0.659-0.188s0.323-0.268,0.383-0.429v-0.6h-0.755
		c-0.271,0-0.488,0.068-0.651,0.205s-0.245,0.296-0.245,0.48c0,0.164,0.052,0.293,0.154,0.389
		C146.466,116.997,146.618,117.044,146.819,117.044z"/>
	<path style="fill:#231F20;" d="M150.4,112.95v0.892h0.701v0.499H150.4v2.246c0,0.173,0.036,0.295,0.108,0.366
		c0.071,0.071,0.167,0.106,0.285,0.106c0.039,0,0.081-0.004,0.128-0.014s0.089-0.021,0.125-0.034l0.089,0.461
		c-0.05,0.041-0.124,0.075-0.221,0.101c-0.097,0.026-0.194,0.04-0.292,0.04c-0.273,0-0.491-0.083-0.652-0.248
		c-0.162-0.166-0.243-0.425-0.243-0.778v-2.246h-0.588v-0.499h0.588v-0.892H150.4z"/>
	<path style="fill:#231F20;" d="M152.66,112.895h-0.674v-0.687h0.674V112.895z M152.66,117.54h-0.674v-3.698h0.674V117.54z"/>
	<path style="fill:#231F20;" d="M153.539,115.657c0-0.547,0.147-0.998,0.443-1.352c0.297-0.354,0.699-0.531,1.207-0.531
		c0.513,0,0.918,0.177,1.215,0.53c0.298,0.353,0.446,0.804,0.446,1.354v0.075c0,0.551-0.148,1.002-0.444,1.354
		s-0.699,0.526-1.21,0.526s-0.914-0.176-1.212-0.528c-0.297-0.353-0.445-0.803-0.445-1.352V115.657z M154.211,115.73
		c0,0.392,0.083,0.715,0.248,0.97s0.41,0.382,0.736,0.382c0.321,0,0.565-0.127,0.731-0.382s0.25-0.578,0.25-0.97v-0.075
		c0-0.387-0.084-0.709-0.252-0.966c-0.167-0.257-0.413-0.386-0.736-0.386c-0.321,0-0.564,0.128-0.729,0.386
		s-0.248,0.579-0.248,0.966V115.73z"/>
	<path style="fill:#231F20;" d="M158.275,113.842l0.049,0.55c0.123-0.196,0.277-0.348,0.463-0.457
		c0.186-0.108,0.396-0.162,0.634-0.162c0.398,0,0.708,0.117,0.927,0.351c0.219,0.233,0.328,0.594,0.328,1.082v2.334h-0.674v-2.321
		c0-0.326-0.064-0.557-0.193-0.694s-0.325-0.205-0.59-0.205c-0.193,0-0.364,0.047-0.514,0.14s-0.269,0.221-0.357,0.383v2.697h-0.674
		v-3.698H158.275z"/>
	<path style="fill:#231F20;" d="M163.019,115.551c0,0.9-0.182,1.667-0.545,2.302c-0.363,0.635-0.743,1.058-1.14,1.27h-0.021
		l-0.13-0.369c0.308-0.239,0.578-0.633,0.812-1.181c0.233-0.548,0.351-1.219,0.351-2.015v-0.044c0-0.779-0.12-1.444-0.36-1.995
		c-0.24-0.55-0.508-0.951-0.802-1.201l0.13-0.369h0.021c0.396,0.212,0.776,0.636,1.14,1.271s0.545,1.402,0.545,2.3V115.551z"/>
</g>
<g>
</g>
<g>
</g>
<g>
</g>
<g>
</g>
<g>
</g>
<g>
</g>
</svg>
